<?xml version="1.0" encoding="UTF-8" standalone="no"?>
<svg
   width="102"
   height="56"
   viewBox="0 0 102 56"
   fill="none"
   version="1.1"
   id="svg1"
   sodipodi:docname="2023-spojka-vlevo.svg"
   inkscape:version="1.3.1 (91b66b0783, 2023-11-16)"
   xmlns:inkscape="http://www.inkscape.org/namespaces/inkscape"
   xmlns:sodipodi="http://sodipodi.sourceforge.net/DTD/sodipodi-0.dtd"
   xmlns="http://www.w3.org/2000/svg"
   xmlns:svg="http://www.w3.org/2000/svg">
  <defs
     id="defs1" />
  <sodipodi:namedview
     id="namedview1"
     pagecolor="#ffffff"
     bordercolor="#999999"
     borderopacity="1"
     inkscape:showpageshadow="0"
     inkscape:pageopacity="0"
     inkscape:pagecheckerboard="0"
     inkscape:deskcolor="#d1d1d1"
     inkscape:zoom="9.8529412"
     inkscape:cx="51"
     inkscape:cy="27.961194"
     inkscape:window-width="1920"
     inkscape:window-height="1009"
     inkscape:window-x="1912"
     inkscape:window-y="-8"
     inkscape:window-maximized="1"
     inkscape:current-layer="svg1" />
  <line
     x1="4.37114e-08"
     y1="27.5"
     x2="74"
     y2="27.5"
     stroke="#F0ECE8"
     id="line1" />
  <circle
     cx="74"
     cy="28"
     r="28"
     fill="#55237C"
     id="circle1" />
  <path
     d="m 64.57019,33.000423 h -7.796923 v -1.546884 l 3.67971,-3.921899 q 0.757817,-0.828131 1.117195,-1.445322 0.367189,-0.617191 0.367189,-1.171882 0,-0.757817 -0.382815,-1.187508 -0.382814,-0.437502 -1.093756,-0.437502 -0.76563,0 -1.210945,0.531253 -0.437503,0.523441 -0.437503,1.382821 h -2.265639 q 0,-1.039069 0.49219,-1.898449 0.500004,-0.85938 1.406259,-1.343758 0.906256,-0.492191 2.0547,-0.492191 1.757824,0 2.72658,0.843755 0.976568,0.843755 0.976568,2.382827 0,0.843756 -0.437502,1.718761 -0.437503,0.875006 -1.50001,2.039075 l -2.585953,2.72658 h 4.890655 z m 9.039119,-4.703154 q 0,2.35939 -0.976569,3.609398 -0.976568,1.250007 -2.859392,1.250007 -1.859387,0 -2.843768,-1.22657 -0.984381,-1.22657 -1.007819,-3.515646 v -2.093763 q 0,-2.382828 0.984381,-3.61721 0.992194,-1.234383 2.851581,-1.234383 1.859386,0 2.843767,1.22657 0.984381,1.218758 1.007819,3.507834 z M 71.351483,26.00038 q 0,-1.414071 -0.390628,-2.0547 -0.382815,-0.648442 -1.203132,-0.648442 -0.79688,0 -1.179695,0.617192 -0.375003,0.609378 -0.39844,1.914074 v 2.765642 q 0,1.390634 0.375002,2.070325 0.382815,0.67188 1.218758,0.67188 0.82813,0 1.19532,-0.648442 0.367189,-0.648441 0.382815,-1.984387 z m 11.578197,7.000043 h -7.796924 v -1.546884 l 3.679711,-3.921899 q 0.757817,-0.828131 1.117194,-1.445322 0.36719,-0.617191 0.36719,-1.171882 0,-0.757817 -0.382815,-1.187508 -0.382815,-0.437502 -1.093757,-0.437502 -0.76563,0 -1.210945,0.531253 -0.437503,0.523441 -0.437503,1.382821 h -2.265639 q 0,-1.039069 0.492191,-1.898449 0.500003,-0.85938 1.406259,-1.343758 0.906255,-0.492191 2.0547,-0.492191 1.757823,0 2.726579,0.843755 0.976569,0.843755 0.976569,2.382827 0,0.843756 -0.437503,1.718761 -0.437503,0.875006 -1.500009,2.039075 l -2.585954,2.72658 h 4.890656 z m 3.67971,-6.687541 h 1.203133 q 0.85938,0 1.273445,-0.42969 0.414065,-0.42969 0.414065,-1.140632 0,-0.687505 -0.414065,-1.070319 -0.406252,-0.382815 -1.125007,-0.382815 -0.648441,0 -1.085944,0.359377 -0.437503,0.351565 -0.437503,0.921881 h -2.257826 q 0,-0.890631 0.476565,-1.59376 0.484378,-0.710942 1.343758,-1.109382 0.867193,-0.39844 1.906262,-0.39844 1.804699,0 2.828143,0.867193 1.023444,0.85938 1.023444,2.375015 0,0.781254 -0.476566,1.437508 -0.476565,0.656255 -1.250008,1.007819 0.960944,0.343752 1.429697,1.031257 0.476565,0.687504 0.476565,1.62501 0,1.515634 -1.109382,2.429702 -1.101569,0.914068 -2.921893,0.914068 -1.703135,0 -2.78908,-0.898443 -1.078131,-0.898443 -1.078131,-2.375014 h 2.257826 q 0,0.640629 0.476566,1.046881 0.484378,0.406253 1.187507,0.406253 0.804693,0 1.25782,-0.421878 0.460941,-0.42969 0.460941,-1.13282 0,-1.703135 -1.875012,-1.703135 h -1.19532 z"
     id="text1"
     style="font-weight:bold;font-size:16.0001px;font-family:Roboto;-inkscape-font-specification:'Roboto Bold';fill:#ffffff;stroke-width:1.33301"
     aria-label="2023" />
</svg>
