<svg width="40" height="40" viewBox="0 0 40 40" fill="none" xmlns="http://www.w3.org/2000/svg">
<path d="M0 39C0 39.5523 0.447715 40 1 40C1.55228 40 2 39.5523 2 39H0ZM10 26.5C10 26.2899 10.0918 26.1715 10.0941 26.1685C10.097 26.1648 10.0669 26.2024 9.96276 26.2821C9.75295 26.4425 9.42199 26.641 8.94592 26.9097C8.03324 27.4249 6.72102 28.124 5.41361 29.0704C2.77357 30.9816 0 34.0121 0 39H2C2 34.9009 4.22643 32.3989 6.58639 30.6905C7.77898 29.8271 8.96676 29.1946 9.92908 28.6514C10.3905 28.3909 10.8408 28.1284 11.1779 27.8706C11.3472 27.7411 11.5319 27.5803 11.6813 27.3855C11.83 27.1914 12 26.8894 12 26.5H10Z" fill="black"/>
<path d="M40 39C40 39.5523 39.5523 40 39 40C38.4477 40 38 39.5523 38 39H40ZM30 26.5C30 26.2899 29.9082 26.1715 29.9059 26.1685C29.903 26.1648 29.9331 26.2024 30.0372 26.2821C30.247 26.4425 30.578 26.641 31.0541 26.9097C31.9668 27.4249 33.279 28.124 34.5864 29.0704C37.2264 30.9816 40 34.0121 40 39H38C38 34.9009 35.7736 32.3989 33.4136 30.6905C32.221 29.8271 31.0332 29.1946 30.0709 28.6514C29.6095 28.3909 29.1592 28.1284 28.8221 27.8706C28.6528 27.7411 28.4681 27.5803 28.3187 27.3855C28.17 27.1914 28 26.8894 28 26.5H30Z" fill="black"/>
<path fill-rule="evenodd" clip-rule="evenodd" d="M8 0H32V28L30.5 26.5L29 28L27.5 26.5L26 28L24.5 26.5L23 28L21.5 26.5L20 28L18.5 26.5L17 28L15.5 26.5L14 28L12.5 26.5L11 28L9.5 26.5L8 28V0ZM14 14.5C14 15.3284 13.3284 16 12.5 16C11.6716 16 11 15.3284 11 14.5C11 13.6716 11.6716 13 12.5 13C13.3284 13 14 13.6716 14 14.5ZM27.5 16C28.3284 16 29 15.3284 29 14.5C29 13.6716 28.3284 13 27.5 13C26.6716 13 26 13.6716 26 14.5C26 15.3284 26.6716 16 27.5 16Z" fill="#40AB98"/>
</svg>
