<svg width="439" height="501" viewBox="0 0 439 501" fill="none" xmlns="http://www.w3.org/2000/svg">
<path d="M254.776 500.21H90.8587C82.9351 500.21 76.6211 493.772 76.6211 485.972V182.279C76.6211 174.355 83.059 168.041 90.8587 168.041H254.776C262.7 168.041 269.014 174.479 269.014 182.279V485.848C269.138 493.772 262.7 500.21 254.776 500.21Z" fill="#575756"/>
<path d="M252.052 198.373H93.582V470.001H252.052V198.373Z" fill="#9CC6E1"/>
<path d="M249.699 201.468H95.9336V466.658H249.699V201.468Z" fill="#7CACD1"/>
<path d="M200.18 188.717H145.458C142.859 188.717 140.754 186.612 140.754 184.012C140.754 181.412 142.859 179.308 145.458 179.308H200.18C202.78 179.308 204.885 181.412 204.885 184.012C204.885 186.612 202.78 188.717 200.18 188.717Z" fill="#70706E"/>
<path d="M225.807 191.44C229.91 191.44 233.236 188.114 233.236 184.011C233.236 179.909 229.91 176.583 225.807 176.583C221.705 176.583 218.379 179.909 218.379 184.011C218.379 188.114 221.705 191.44 225.807 191.44Z" fill="#7CACD1"/>
<path d="M225.807 188.221C228.132 188.221 230.016 186.337 230.016 184.012C230.016 181.687 228.132 179.803 225.807 179.803C223.482 179.803 221.598 181.687 221.598 184.012C221.598 186.337 223.482 188.221 225.807 188.221Z" fill="#9CC6E1"/>
<path d="M121.193 189.459H104.108C101.136 189.459 98.6602 186.983 98.6602 184.012C98.6602 181.041 101.136 178.564 104.108 178.564H121.193C124.164 178.564 126.64 181.041 126.64 184.012C126.64 186.983 124.164 189.459 121.193 189.459Z" fill="#7CACD1"/>
<path d="M118.342 187.726H106.952C104.972 187.726 103.238 186.117 103.238 184.012C103.238 182.031 104.848 180.298 106.952 180.298H118.342C120.323 180.298 122.057 181.907 122.057 184.012C122.057 185.993 120.323 187.726 118.342 187.726Z" fill="#9CC6E1"/>
<path d="M274.584 230.191H269.137V273.647H274.584V230.191Z" fill="#FF7F53"/>
<path d="M172.817 491.915C177.261 491.915 180.864 488.312 180.864 483.868C180.864 479.423 177.261 475.82 172.817 475.82C168.372 475.82 164.77 479.423 164.77 483.868C164.77 488.312 168.372 491.915 172.817 491.915Z" fill="#FF7F53"/>
<path d="M249.699 477.059H235.957V490.801H249.699V477.059Z" fill="#FF7F53"/>
<path d="M108.314 491.915L95.9336 483.868L108.314 475.82V491.915Z" fill="#FF7F53"/>
<path d="M249.699 311.53V250.618L122.18 201.468H95.9336V252.228L249.699 311.53Z" fill="#9CC6E1"/>
<path d="M95.9336 299.522V423.823L207.234 466.659H249.699V358.825L95.9336 299.522Z" fill="#9CC6E1"/>
<path d="M229.025 183.269C230.051 183.269 230.882 182.437 230.882 181.412C230.882 180.386 230.051 179.555 229.025 179.555C227.999 179.555 227.168 180.386 227.168 181.412C227.168 182.437 227.999 183.269 229.025 183.269Z" fill="#F8F8F8"/>
<path d="M323.615 321.559H307.645V377.395H323.615V321.559Z" fill="#FF7F53"/>
<path d="M355.557 303.235H339.586V377.518H355.557V303.235Z" fill="#FF7F53"/>
<path d="M387.498 336.291H371.527V377.394H387.498V336.291Z" fill="#FF7F53"/>
<path d="M404.584 377.395H291.055V387.175H404.584V377.395Z" fill="#1C669B"/>
<path d="M369.051 420.48C364.346 422.956 360.509 426.794 358.032 431.498C357.166 433.108 354.937 433.108 354.194 431.498C351.718 426.794 347.88 422.956 343.176 420.48C341.566 419.613 341.566 417.385 343.176 416.642C347.88 414.166 351.718 410.328 354.194 405.623C355.061 404.014 357.29 404.014 358.032 405.623C360.509 410.328 364.346 414.166 369.051 416.642C370.661 417.385 370.661 419.737 369.051 420.48Z" fill="#9CC6E1"/>
<path d="M51.4924 236.753C48.1496 238.487 45.3021 241.21 43.5688 244.677C42.9498 245.791 41.3404 245.791 40.8451 244.677C39.1119 241.334 36.3882 238.487 32.9216 236.753C31.8074 236.134 31.8074 234.525 32.9216 234.03C36.2644 232.296 39.1119 229.573 40.8451 226.106C41.4642 224.992 43.0736 224.992 43.5688 226.106C45.3021 229.449 48.0258 232.296 51.4924 234.03C52.6066 234.525 52.6066 236.134 51.4924 236.753Z" fill="#9CC6E1"/>
<path d="M321.508 285.285C318.165 287.018 315.318 289.742 313.584 293.208C312.965 294.322 311.356 294.322 310.861 293.208C309.127 289.865 306.404 287.018 302.937 285.285C301.823 284.666 301.823 283.056 302.937 282.561C306.28 280.828 309.127 278.104 310.861 274.637C311.48 273.523 313.089 273.523 313.584 274.637C315.318 277.98 318.041 280.828 321.508 282.561C322.622 283.056 322.622 284.666 321.508 285.285Z" fill="#9CC6E1"/>
<path d="M437.144 305.96C429.716 309.798 423.525 315.864 419.687 323.416C418.449 325.892 414.859 325.892 413.497 323.416C409.659 315.988 403.593 309.798 396.041 305.96C393.565 304.722 393.565 301.131 396.041 299.77C403.469 295.932 409.659 289.865 413.497 282.313C414.735 279.837 418.326 279.837 419.687 282.313C423.525 289.741 429.592 295.932 437.144 299.77C439.62 301.131 439.62 304.722 437.144 305.96Z" fill="#9CC6E1"/>
<path d="M347.51 182.897C365.493 182.897 380.071 168.319 380.071 150.336C380.071 132.353 365.493 117.775 347.51 117.775C329.527 117.775 314.949 132.353 314.949 150.336C314.949 168.319 329.527 182.897 347.51 182.897Z" fill="#FF7F53"/>
<path d="M347.508 198.25C347.26 198.25 347.012 198.25 346.765 198.25C345.031 198.25 343.67 196.764 343.793 195.155C343.793 193.422 345.155 192.183 346.888 192.183C348.869 192.183 350.726 192.06 352.584 191.936C354.317 191.688 355.802 192.926 356.05 194.66C356.298 196.393 355.06 197.878 353.326 198.126C351.469 198.126 349.488 198.25 347.508 198.25ZM331.66 195.279C331.289 195.279 330.918 195.155 330.546 195.031C328.442 194.288 326.461 193.298 324.604 192.307C323.118 191.441 322.623 189.584 323.366 188.098C324.232 186.612 326.089 186.117 327.575 186.86C329.308 187.726 331.041 188.593 332.775 189.212C334.384 189.831 335.127 191.564 334.508 193.174C334.137 194.536 332.899 195.279 331.66 195.279ZM367.688 193.422C366.573 193.422 365.459 192.802 364.964 191.688C364.221 190.203 364.84 188.346 366.326 187.603C368.059 186.736 369.669 185.746 371.278 184.631C372.64 183.641 374.621 184.012 375.487 185.374C376.478 186.736 376.106 188.717 374.745 189.584C372.888 190.822 371.03 191.936 369.05 192.926C368.678 193.298 368.183 193.422 367.688 193.422ZM314.08 183.146C313.214 183.146 312.347 182.774 311.728 182.155C310.242 180.546 308.88 178.813 307.642 176.955C306.652 175.594 307.023 173.613 308.509 172.746C309.871 171.756 311.852 172.127 312.718 173.613C313.833 175.222 314.947 176.708 316.185 178.193C317.299 179.432 317.175 181.412 315.937 182.527C315.442 182.898 314.823 183.146 314.08 183.146ZM384.03 179.555C383.411 179.555 382.792 179.308 382.297 178.936C380.935 177.946 380.563 176.089 381.554 174.603C382.668 172.994 383.659 171.384 384.525 169.651C385.268 168.165 387.125 167.546 388.611 168.413C390.096 169.156 390.715 171.013 389.849 172.498C388.858 174.479 387.62 176.336 386.382 178.07C385.887 179.06 384.897 179.555 384.03 179.555ZM304.052 164.204C302.69 164.204 301.452 163.213 301.081 161.851C300.585 159.747 300.214 157.518 299.966 155.29C299.843 153.556 300.957 152.071 302.69 151.947C304.423 151.823 305.909 152.937 306.033 154.671C306.28 156.528 306.528 158.508 307.023 160.366C307.395 161.975 306.404 163.708 304.795 164.08C304.547 164.204 304.3 164.204 304.052 164.204ZM391.953 159.623C391.83 159.623 391.706 159.623 391.582 159.623C389.849 159.375 388.735 157.889 388.982 156.156C389.23 154.299 389.354 152.318 389.354 150.461V150.337C389.354 148.604 390.715 147.242 392.449 147.242C394.182 147.242 395.544 148.604 395.544 150.337V150.461C395.544 152.69 395.42 154.918 395.049 157.023C394.801 158.508 393.439 159.623 391.953 159.623ZM304.052 142.785C303.804 142.785 303.557 142.785 303.309 142.661C301.7 142.29 300.709 140.557 301.081 138.947C301.576 136.843 302.319 134.738 303.062 132.633C303.681 131.024 305.414 130.281 307.023 130.9C308.633 131.519 309.376 133.252 308.757 134.862C308.014 136.595 307.518 138.452 307.023 140.309C306.652 141.795 305.414 142.785 304.052 142.785ZM389.725 138.204C388.487 138.204 387.249 137.462 386.877 136.224C386.258 134.367 385.392 132.633 384.525 130.9C383.782 129.414 384.278 127.557 385.763 126.814C387.249 126.072 389.106 126.567 389.849 128.052C390.839 130.033 391.83 132.014 392.573 134.119C393.192 135.728 392.325 137.462 390.715 138.081C390.344 138.081 390.096 138.204 389.725 138.204ZM313.956 123.719C313.214 123.719 312.471 123.472 311.975 122.976C310.737 121.862 310.614 119.881 311.728 118.643C313.214 117.034 314.823 115.424 316.432 114.063C317.67 112.948 319.651 113.072 320.766 114.434C321.88 115.672 321.756 117.653 320.394 118.767C318.909 120.005 317.547 121.367 316.309 122.853C315.69 123.348 314.823 123.719 313.956 123.719ZM377.84 120.377C377.097 120.377 376.354 120.129 375.735 119.634C374.373 118.396 372.764 117.158 371.278 116.043C369.916 115.053 369.545 113.196 370.535 111.834C371.526 110.472 373.383 110.101 374.745 111.091C376.602 112.329 378.335 113.691 379.944 115.177C381.182 116.291 381.306 118.272 380.192 119.51C379.449 120.005 378.583 120.377 377.84 120.377ZM331.66 111.586C330.422 111.586 329.308 110.844 328.813 109.606C328.194 107.996 329.061 106.263 330.546 105.644C332.651 104.901 334.756 104.158 336.86 103.787C338.47 103.415 340.203 104.406 340.574 106.139C340.946 107.872 339.955 109.482 338.222 109.853C336.365 110.225 334.508 110.844 332.775 111.463C332.279 111.463 331.908 111.586 331.66 111.586ZM358.898 110.101C358.65 110.101 358.402 110.101 358.155 109.977C356.298 109.482 354.441 109.11 352.46 108.863C350.726 108.615 349.612 107.129 349.736 105.396C349.984 103.663 351.469 102.549 353.203 102.672C355.431 102.92 357.536 103.291 359.64 103.911C361.25 104.282 362.24 106.015 361.869 107.625C361.621 109.234 360.259 110.101 358.898 110.101Z" fill="#9CC6E1"/>
<path d="M343.916 166.308C343.173 166.308 342.43 166.06 341.935 165.565L329.06 154.546C327.822 153.432 327.574 151.451 328.688 150.213C329.802 148.975 331.783 148.727 333.021 149.842L343.421 158.756L361.744 135.604C362.735 134.242 364.715 133.995 366.077 135.109C367.439 136.099 367.687 138.08 366.572 139.442L346.268 165.194C345.773 165.813 345.03 166.308 344.164 166.308C344.04 166.308 343.916 166.308 343.916 166.308Z" fill="#F8F8F8"/>
</svg>
