<svg
   xmlns:dc="http://purl.org/dc/elements/1.1/"
   xmlns:cc="http://creativecommons.org/ns#"
   xmlns:rdf="http://www.w3.org/1999/02/22-rdf-syntax-ns#"
   xmlns:svg="http://www.w3.org/2000/svg"
   xmlns="http://www.w3.org/2000/svg"
   xmlns:sodipodi="http://sodipodi.sourceforge.net/DTD/sodipodi-0.dtd"
   xmlns:inkscape="http://www.inkscape.org/namespaces/inkscape"
   version="1.0"
   id="Layer_3"
   x="0px"
   y="0px"
   viewBox="0 0 1000.01 200"
   xml:space="preserve"
   sodipodi:docname="logo-cesko-digital-cerne.svg"
   width="1000.01"
   height="200"
   inkscape:version="1.0 (4035a4fb49, 2020-05-01)"><metadata
   id="metadata43"><rdf:RDF><cc:Work
       rdf:about=""><dc:format>image/svg+xml</dc:format><dc:type
         rdf:resource="http://purl.org/dc/dcmitype/StillImage" /><dc:title /></cc:Work></rdf:RDF></metadata><defs
   id="defs41" /><sodipodi:namedview
   inkscape:document-rotation="0"
   pagecolor="#ffffff"
   bordercolor="#666666"
   borderopacity="1"
   objecttolerance="10"
   gridtolerance="10"
   guidetolerance="10"
   inkscape:pageopacity="0"
   inkscape:pageshadow="2"
   inkscape:window-width="1920"
   inkscape:window-height="1017"
   id="namedview39"
   showgrid="false"
   fit-margin-top="0"
   fit-margin-left="0"
   fit-margin-right="0"
   fit-margin-bottom="0"
   inkscape:zoom="0.66145833"
   inkscape:cx="500"
   inkscape:cy="112.83"
   inkscape:window-x="-8"
   inkscape:window-y="369"
   inkscape:window-maximized="1"
   inkscape:current-layer="Layer_3" />
<style
   type="text/css"
   id="style2">
	.st0{fill:#1428C8;}
</style>
<g
   id="g36"
   style="fill:#000000"
   transform="translate(-460,-427.17)">
	<path
   class="st0"
   d="m 489.01,539.08 c 6.59,0 12,1.06 16.48,2.77 0.66,0.26 0.66,1.06 0.4,1.58 l -2.24,5.01 c -0.26,0.53 -0.92,0.66 -1.58,0.4 -5.54,-1.85 -8.57,-1.98 -12.66,-1.98 -11.47,0 -19.91,7.52 -19.91,23.08 0,16.88 10.29,23.08 19.91,23.08 5.27,0 7.78,-0.53 13.32,-2.37 0.66,-0.26 1.32,-0.13 1.58,0.4 l 2.24,5.01 c 0.26,0.66 0.26,1.32 -0.4,1.58 -4.75,2.24 -10.42,3.3 -17.14,3.3 -18.86,0 -29.01,-12.79 -29.01,-30.99 0,-18.08 9.89,-30.87 29.01,-30.87 z"
   id="path4"
   style="fill:#000000" />
	<path
   class="st0"
   d="m 564.6,593.28 c 6.99,0 11.21,-0.92 16.75,-3.43 0.66,-0.26 1.19,0 1.45,0.53 l 1.98,4.88 c 0.26,0.53 0.26,1.06 -0.4,1.32 -6.33,3.03 -11.34,4.35 -19.39,4.35 -18.33,0 -27.69,-10.95 -27.69,-30.59 0,-20.7 11.08,-31.25 26.11,-31.25 15.3,0 24,9.36 24,29.01 v 3.3 c 0,0.92 -0.4,1.58 -1.45,1.58 h -39.3 c 0.4,12.78 7.12,20.3 17.94,20.3 z m -1.06,-46.95 c -7.38,0 -15.69,5.14 -16.88,19.52 h 31.52 c 0,-15.3 -7.38,-19.52 -14.64,-19.52 z"
   id="path6"
   style="fill:#000000" />
	<path
   class="st0"
   d="m 618.45,590.37 c 0.26,-0.66 0.92,-0.79 1.71,-0.53 6.86,2.37 13.45,3.43 18.99,3.43 9.36,0 15.69,-3.03 15.69,-7.78 0,-6.07 -7.25,-8.97 -15.16,-11.87 -9.89,-3.69 -20.84,-7.52 -20.84,-18.86 0,-12.13 13.19,-15.69 25.72,-15.69 7.25,0 14.24,1.06 18.2,2.37 0.66,0.26 0.92,0.92 0.66,1.58 l -1.58,5.14 c -0.26,0.79 -0.79,0.92 -1.45,0.79 -3.69,-1.06 -10.81,-2.37 -17.41,-2.37 -7.78,0 -14.9,1.85 -14.9,7.91 0,5.41 7.12,8.31 15.03,11.47 9.89,3.96 20.97,8.18 20.97,18.33 0,12.79 -12.27,16.62 -24.66,16.62 -8.97,0 -17.93,-1.85 -22.16,-3.82 -0.79,-0.4 -0.79,-0.92 -0.66,-1.45 z"
   id="path8"
   style="fill:#000000" />
	<path
   class="st0"
   d="m 734.15,540.79 c 0.79,-0.66 1.06,-0.79 2.11,-0.79 h 8.7 c 0.79,0 1.58,1.19 0.66,1.98 l -28.88,25.32 31.38,30.73 c 0.79,0.79 0.4,1.98 -0.79,1.98 h -9.1 c -0.92,0 -1.45,-0.26 -2.24,-1.06 l -29.93,-30.2 v 30.07 c 0,0.79 -0.4,1.19 -1.19,1.19 h -6.72 c -0.79,0 -1.19,-0.4 -1.19,-1.19 v -92.84 c 0,-0.79 0.4,-1.19 1.19,-1.19 h 6.72 c 0.79,0 1.19,0.39 1.19,1.19 v 60.27 z"
   id="path10"
   style="fill:#000000" />
	<path
   class="st0"
   d="m 799.61,600.92 c -19.12,0 -25.32,-12.92 -25.32,-30.99 0,-18.07 6.2,-30.86 25.32,-30.86 19.12,0 25.19,12.79 25.19,30.86 0,18.07 -6.07,30.99 -25.19,30.99 z m 0,-54.99 c -10.28,0 -15.82,8.18 -15.82,24 0,15.96 5.54,24.13 15.82,24.13 10.29,0 15.69,-8.04 15.69,-24.13 0,-15.95 -5.4,-24 -15.69,-24 z"
   id="path12"
   style="fill:#000000" />
	<path
   class="st0"
   d="m 869.88,593.28 c 0,-4.88 2.77,-7.78 7.65,-7.78 4.88,0 7.65,2.9 7.65,7.78 0,4.88 -2.77,7.65 -7.65,7.65 -4.88,-0.01 -7.65,-2.78 -7.65,-7.65 z"
   id="path14"
   style="fill:#000000" />
	<path
   class="st0"
   d="m 970.6,505.98 c 0,-0.79 0.4,-1.19 1.18,-1.19 h 6.73 c 0.79,0 1.19,0.39 1.19,1.19 v 92.84 c 0,0.79 -0.4,1.19 -1.19,1.19 h -4.49 c -0.66,0 -0.92,-0.26 -1.06,-0.92 l -1.06,-4.35 c -6.33,4.35 -12.13,6.2 -17.8,6.2 -16.09,0 -23.87,-11.47 -23.87,-30.86 0,-19.12 8.18,-30.99 25.32,-30.99 5.54,0 10.55,1.98 15.04,5.28 v -38.39 z m -13.84,87.03 c 4.62,0 9.89,-1.58 13.85,-4.09 v -37.85 c -4.09,-2.64 -9.23,-4.48 -13.85,-4.48 -10.29,0 -17.01,8.04 -17.01,23.6 -0.01,16.76 6.72,22.82 17.01,22.82 z"
   id="path16"
   style="fill:#000000" />
	<path
   class="st0"
   d="m 1370.22,559.91 c 0,-7.78 -3.96,-12.27 -11.87,-12.27 h -19.25 c -0.66,0 -1.19,-0.4 -1.19,-1.05 v -5.41 c 0,-0.79 0.53,-1.19 1.19,-1.19 h 20.57 c 12.39,0 19.65,7.25 19.65,19.65 v 39.16 c 0,0.79 -0.4,1.19 -1.19,1.19 h -4.49 c -0.66,0 -0.92,-0.26 -1.06,-0.92 l -1.06,-4.22 c -9.62,4.22 -15.03,6.07 -23.21,6.07 -10.29,0 -15.96,-6.73 -15.96,-16.75 0,-14.51 8.97,-18.99 24.66,-18.99 h 13.19 v -5.27 z m -14.38,12.4 c -9.23,0 -14.11,3.3 -14.11,11.21 0,5.67 2.64,10.02 8.44,10.02 5.8,0 12.66,-1.98 20.05,-4.48 v -16.75 z"
   id="path18"
   style="fill:#000000" />
	<path
   class="st0"
   d="m 1404.75,512.44 c -0.79,0 -1.19,-0.4 -1.19,-1.06 v -5.41 c 0,-0.79 0.4,-1.19 1.19,-1.19 h 30.33 c 0.79,0 1.19,0.39 1.19,1.19 v 74.11 c 0,7.78 3.95,12.26 11.87,12.26 h 10.68 c 0.79,0 1.19,0.4 1.19,1.06 v 5.41 c 0,0.79 -0.4,1.19 -1.19,1.19 h -12 c -12.4,0 -19.65,-7.25 -19.65,-19.65 v -67.91 z"
   id="path20"
   style="fill:#000000" />
	<path
   class="st0"
   d="m 1137.49,540 h -4.35 c -0.79,0 -1.06,0.26 -1.19,0.92 l -1.06,4.35 c -5.41,-4.09 -11.08,-6.2 -16.88,-6.2 -17.14,0 -24.66,11.87 -24.66,30.99 0,19.39 7.26,30.86 23.34,30.86 5.41,0 11.87,-1.98 16.88,-5.67 v 5.23 6.76 c 0,7.78 -4.09,12.27 -12,12.27 h -19.24 c -0.79,0 -1.19,0.4 -1.19,1.06 v 5.41 c 0,0.79 0.4,1.19 1.19,1.19 h 20.69 c 12.4,0 19.65,-7.25 19.65,-19.65 v -7.03 -52.42 -6.88 c 0.01,-0.79 -0.39,-1.19 -1.18,-1.19 z m -22.29,53.01 c -10.28,0 -16.35,-6.07 -16.35,-22.81 0,-15.56 6.07,-23.6 16.35,-23.6 4.62,0 10.42,1.84 14.38,4.48 v 37.85 c -3.83,2.5 -9.76,4.08 -14.38,4.08 z"
   id="path22"
   style="fill:#000000" />
	<path
   class="st0"
   d="m 1010.9,547.65 c -0.79,0 -1.19,-0.4 -1.19,-1.19 v -5.28 c 0,-0.79 0.4,-1.19 1.19,-1.19 h 32.04 c 0.79,0 1.19,0.4 1.19,1.19 v 50.11 c 0,0.79 0.26,1.06 0.92,1.06 h 19.91 c 0.79,0 1.19,0.4 1.19,1.19 v 5.27 c 0,0.79 -0.4,1.19 -1.19,1.19 h -54.07 c -0.79,0 -1.19,-0.4 -1.19,-1.19 v -5.27 c 0,-0.79 0.4,-1.19 1.19,-1.19 h 23.21 c 0.66,0 0.92,-0.26 0.92,-1.06 v -43.65 h -24.12 z"
   id="path24"
   style="fill:#000000" />
	<path
   class="st0"
   d="m 1030.29,474.44 c 0,-4.88 2.77,-7.78 7.65,-7.78 4.88,0 7.65,2.9 7.65,7.78 0,4.88 -2.77,7.65 -7.65,7.65 -4.88,0 -7.65,-2.77 -7.65,-7.65 z"
   id="path26"
   style="fill:#000000" />
	<path
   class="st0"
   d="m 1170.99,547.65 c -0.79,0 -1.19,-0.4 -1.19,-1.19 v -5.28 c 0,-0.79 0.4,-1.19 1.19,-1.19 h 32.04 c 0.79,0 1.19,0.4 1.19,1.19 v 50.11 c 0,0.79 0.26,1.06 0.92,1.06 h 19.91 c 0.79,0 1.19,0.4 1.19,1.19 v 5.27 c 0,0.79 -0.4,1.19 -1.19,1.19 h -54.07 c -0.79,0 -1.19,-0.4 -1.19,-1.19 v -5.27 c 0,-0.79 0.4,-1.19 1.19,-1.19 h 23.21 c 0.66,0 0.92,-0.26 0.92,-1.06 v -43.65 h -24.12 z"
   id="path28"
   style="fill:#000000" />
	<path
   class="st0"
   d="m 1190.37,474.44 c 0,-4.88 2.77,-7.78 7.65,-7.78 4.88,0 7.65,2.9 7.65,7.78 0,4.88 -2.77,7.65 -7.65,7.65 -4.88,0 -7.65,-2.77 -7.65,-7.65 z"
   id="path30"
   style="fill:#000000" />
	<path
   class="st0"
   d="m 1273.72,547.65 h 27.03 c 0.79,0 1.19,-0.4 1.19,-1.05 v -5.41 c 0,-0.79 -0.4,-1.19 -1.19,-1.19 h -27.03 v -18.06 -2.73 c 0,-0.79 -0.4,-1.19 -1.19,-1.19 h -6.73 c -0.79,0 -1.18,0.39 -1.18,1.19 v 1.54 19.25 h -17.93 c -0.79,0 -1.19,0.4 -1.19,1.19 v 5.41 c 0,0.66 0.4,1.05 1.19,1.05 h 17.93 v 9.93 22.77 c 0,12.4 7.26,19.65 19.65,19.65 h 16.48 c 0.79,0 1.19,-0.4 1.19,-1.19 v -5.41 c 0,-0.66 -0.4,-1.06 -1.19,-1.06 h -15.03 c -7.91,0 -12,-4.48 -12,-12.26 v -20.31 z"
   id="path32"
   style="fill:#000000" />
	<path
   class="st0"
   d="m 494.88,454.17 -27.75,-25 c -0.8,-0.67 -0.27,-2 0.8,-2 h 8.72 c 0.54,0 0.86,0.11 1.2,0.4 l 29.09,26.6 -29.09,26.6 c -0.34,0.29 -0.67,0.4 -1.2,0.4 h -8.72 c -1.07,0 -1.61,-1.34 -0.8,-2 z"
   id="path34"
   style="fill:#000000" />
</g>
</svg>
