<?xml version="1.0" encoding="UTF-8"?>
<!DOCTYPE svg PUBLIC "-//W3C//DTD SVG 1.1//EN" "http://www.w3.org/Graphics/SVG/1.1/DTD/svg11.dtd">
<!-- Creator: CorelDRAW 2018 (64 bitů) -->
<svg xmlns="http://www.w3.org/2000/svg" xml:space="preserve" width="401px" height="132px" version="1.1" style="shape-rendering:geometricPrecision; text-rendering:geometricPrecision; image-rendering:optimizeQuality; fill-rule:evenodd; clip-rule:evenodd"
viewBox="0 0 40568000 13349000"
 xmlns:xlink="http://www.w3.org/1999/xlink">
 <defs>
  <style type="text/css">
   <![CDATA[
    .fil0 {fill:black}
    .fil3 {fill:#01AED4}
    .fil2 {fill:white}
    .fil1 {fill:white;fill-rule:nonzero}
   ]]>
  </style>
 </defs>
 <g id="Vrstva_x0020_1">
  <metadata id="CorelCorpID_0Corel-Layer"/>
  <polygon class="fil0" points="40568000,11560000 22026000,11560000 22026000,9124000 40568000,9124000 "/>
  <path class="fil0" d="M22600000 3205000l0 5433000 1716000 0 0 -2086000 2416000 0 0 -1169000 -2416000 0 0 -977000 2585000 0 0 -1201000 -4301000 0zm4971000 5433000l0 0 1724000 0 0 -5433000 -1724000 0 0 5433000zm2539000 0l0 0 1723000 0 0 -1916000 508000 0 1055000 1916000 1908000 0 -1324000 -2193000c254000,-100000 485000,-185000 701000,-416000 392000,-400000 415000,-882000 415000,-1089000 0,-520000 -215000,-1258000 -939000,-1566000 -331000,-138000 -823000,-169000 -1339000,-169000l-2708000 0 0 5433000zm2431000 -4294000l0 0c300000,0 839000,15000 839000,635000 0,612000 -546000,627000 -831000,627000l-716000 0 0 -1262000 708000 0zm3494000 4294000l0 0 4532000 0 0 -1178000 -2808000 0 0 -1077000 2408000 0 0 -1177000 -2408000 0 0 -808000 2803000 0 0 -1193000 -4527000 0 0 5433000z"/>
  <path class="fil0" d="M0 8662000l1724000 0 0 -1770000 1323000 0c593000,-15000 1093000,-39000 1547000,-508000 423000,-439000 516000,-929000 516000,-1381000 0,-344000 -54000,-843000 -454000,-1266000 -439000,-454000 -955000,-485000 -1547000,-508000l-3109000 0 0 5433000zm2693000 -4286000l0 0c216000,15000 716000,44000 716000,681000 0,329000 -154000,574000 -416000,659000 -92000,29000 -192000,29000 -284000,37000l-985000 0 0 -1377000 969000 0zm1778000 4286000l0 0 2078000 -5433000 1954000 0 2032000 5433000 -1847000 0 -239000 -754000 -1893000 0 -238000 754000 -1847000 0zm3624000 -1970000l0 0 -577000 -1916000 -592000 1916000 1169000 0zm2817000 1970000l0 0 3817000 0 0 -1370000 -2101000 0 0 -4063000 -1716000 0 0 5433000zm4325000 0l0 0 4532000 0 0 -1178000 -2809000 0 0 -1077000 2409000 0 0 -1177000 -2409000 0 0 -808000 2798000 0 0 -1193000 -4521000 0 0 5433000z"/>
  <path class="fil1" d="M25224000 10565000c-16000,47000 -77000,229000 -282000,229000 -217000,0 -294000,-195000 -294000,-402000 0,-55000 0,-213000 105000,-314000 29000,-29000 91000,-74000 187000,-74000 185000,0 252000,147000 288000,230000l368000 -183000c-29000,-55000 -57000,-103000 -116000,-164000 -146000,-149000 -347000,-224000 -558000,-224000 -471000,0 -721000,380000 -721000,754000 0,357000 225000,731000 721000,731000 199000,0 398000,-65000 540000,-204000 67000,-67000 101000,-131000 136000,-198000l-374000 -181000z"/>
  <path id="1" class="fil1" d="M26800000 11105000l473000 0 61000 -193000 485000 0 61000 193000 473000 0 -521000 -1391000 -500000 0 -532000 1391000zm928000 -504000l-300000 0 152000 -491000 148000 491000z"/>
  <path id="2" class="fil1" d="M29655000 11105000l441000 0 0 -453000 339000 0c152000,-4000 280000,-10000 396000,-130000 108000,-112000 132000,-238000 132000,-354000 0,-88000 -14000,-216000 -116000,-324000 -113000,-116000 -245000,-124000 -396000,-130000l-796000 0 0 1391000zm689000 -1097000c55000,3000 184000,11000 184000,174000 0,84000 -40000,147000 -107000,169000 -24000,7000 -49000,7000 -73000,9000l-252000 0 0 -352000 248000 0z"/>
  <polygon id="3" class="fil1" points="32297000,11105000 32738000,11105000 32738000,9714000 32297000,9714000 "/>
  <polygon id="4" class="fil1" points="34032000,10059000 34385000,10059000 34385000,11105000 34824000,11105000 34824000,10059000 35177000,10059000 35177000,9714000 34032000,9714000 "/>
  <path id="5" class="fil1" d="M36223000 11105000l473000 0 61000 -193000 485000 0 61000 193000 473000 0 -520000 -1391000 -501000 0 -532000 1391000zm928000 -504000l-299000 0 151000 -491000 148000 491000z"/>
  <polygon id="6" class="fil1" points="39078000,11105000 40055000,11105000 40055000,10754000 39517000,10754000 39517000,9714000 39078000,9714000 "/>
  <path class="fil2" d="M20395000 4934000c-106000,-695000 -467000,-2025000 151000,-2823000 224000,-540000 635000,-1155000 1047000,-1504000l715000 -607000 -279000 1013000c-58000,212000 -30000,651000 -4000,864000 122000,987000 565000,1997000 1017000,2810000 524000,945000 835000,2020000 782000,3174000 -91000,2018000 -1246000,3640000 -2520000,4768000l-815000 720000 380000 -1143000c351000,-1060000 644000,-2334000 269000,-3445000 -254000,-749000 -747000,-1283000 -1051000,-1987000 -266000,-614000 -312000,-1215000 -207000,-1851000l414000 -223000 101000 234000z"/>
  <path class="fil3" d="M21552000 899000c0,0 -388000,1404000 1047000,3988000 1436000,2585000 725000,5337000 -1668000,7453000 1662000,-5007000 -1712000,-4585000 -887000,-7744000 0,0 -173000,880000 962000,1268000 -1800000,-2971000 546000,-4965000 546000,-4965000z"/>
 </g>
</svg>
