<svg width="82" height="82" viewBox="0 0 82 82" fill="none" xmlns="http://www.w3.org/2000/svg">
<path fill-rule="evenodd" clip-rule="evenodd" d="M26.337 37.6526C20.0869 37.6526 15.0273 32.7416 15.0273 26.9376C15.0273 20.9849 20.0848 16.2227 26.337 16.2227C32.4382 16.2227 37.4958 20.9849 37.4958 26.9376V37.6526H26.337Z" fill="#009FE3"/>
<path fill-rule="evenodd" clip-rule="evenodd" d="M37.5005 0H0V37.6513H12.649C9.97039 34.6749 8.48226 30.9544 8.48226 26.9363C8.48226 17.5607 16.5181 9.9709 26.3397 9.9709C30.5064 9.9709 34.5243 11.3103 37.4984 13.6914V0H37.5005Z" fill="#009FE3"/>
<path fill-rule="evenodd" clip-rule="evenodd" d="M55.6613 37.6526C61.7625 37.6526 66.8221 32.7416 66.8221 26.9376C66.8221 20.9849 61.7625 16.2227 55.6613 16.2227C49.4112 16.2227 44.3516 20.9849 44.3516 26.9376V37.6526H55.6613Z" fill="#009FE3"/>
<path fill-rule="evenodd" clip-rule="evenodd" d="M44.3516 0H82.0009V37.6513H69.3519C71.8838 34.6749 73.3698 30.9544 73.3698 26.9363C73.3698 17.5607 65.4849 9.9709 55.6613 9.9709C51.3457 9.9709 47.4766 11.3103 44.3516 13.6914V0Z" fill="#009FE3"/>
<path fill-rule="evenodd" clip-rule="evenodd" d="M0.0078125 44.4971H37.5062V81.9995H0.0078125V44.4971Z" fill="#009FE3"/>
<path fill-rule="evenodd" clip-rule="evenodd" d="M44.3516 44.4971H82.0009V81.9995H44.3516V44.4971Z" fill="#009FE3"/>
</svg>
