<svg width="22" height="22" viewBox="0 0 22 22" fill="none" xmlns="http://www.w3.org/2000/svg">
<path d="M21 11C21 16.5228 16.5228 21 11 21C5.47715 21 1 16.5228 1 11C1 5.47715 5.47715 1 11 1C11.7569 1 12.4732 1.06315 13.148 1.18317C13.148 4.28245 15 8 20.2718 8.66247C20.7225 9.34646 21 10 21 11Z" stroke="white" stroke-width="2"/>
<circle cx="10" cy="6" r="1" fill="white"/>
<circle cx="6" cy="10" r="1" fill="white"/>
<path d="M13 11C13 11.5523 12.5523 12 12 12C11.4477 12 11 11.5523 11 11C11 10.4477 11.4477 10 12 10C12.5523 10 13 10.4477 13 11Z" fill="white"/>
<circle cx="7" cy="15" r="1" fill="white"/>
<circle cx="12" cy="16" r="1" fill="white"/>
<path d="M18 13C18 13.5523 17.5523 14 17 14C16.4477 14 16 13.5523 16 13C16 12.4477 16.4477 12 17 12C17.5523 12 18 12.4477 18 13Z" fill="white"/>
</svg>
