<svg width="18" height="21" viewBox="0 0 18 21" fill="none" xmlns="http://www.w3.org/2000/svg">
<path d="M3.06066 12.4393C2.47487 11.8536 1.52513 11.8536 0.93934 12.4393C0.353553 13.0251 0.353553 13.9749 0.93934 14.5607L3.06066 12.4393ZM7.5 19L6.43934 20.0607C6.77594 20.3973 7.25232 20.5541 7.72304 20.4833C8.19377 20.4125 8.60296 20.1225 8.82568 19.7018L7.5 19ZM17.8257 2.70183C18.2133 1.96968 17.934 1.06193 17.2018 0.674318C16.4697 0.286707 15.5619 0.566015 15.1743 1.29817L17.8257 2.70183ZM0.93934 14.5607L6.43934 20.0607L8.56066 17.9393L3.06066 12.4393L0.93934 14.5607ZM8.82568 19.7018L17.8257 2.70183L15.1743 1.29817L6.17432 18.2982L8.82568 19.7018Z" fill="#289AA2"/>
</svg>
