<svg width="24" height="15" viewBox="0 0 24 15" fill="none" xmlns="http://www.w3.org/2000/svg">
<path d="M1 12C1 12.5523 1.44772 13 2 13C2.55228 13 3 12.5523 3 12H1ZM2 2V1C1.44772 1 1 1.44772 1 2H2ZM8.29289 9.70711C8.68342 10.0976 9.31658 10.0976 9.70711 9.70711C10.0976 9.31658 10.0976 8.68342 9.70711 8.29289L8.29289 9.70711ZM11 3C11.5523 3 12 2.55228 12 2C12 1.44772 11.5523 1 11 1V3ZM14 1C13.4477 1 13 1.44772 13 2C13 2.55228 13.4477 3 14 3V1ZM22 2H23C23 1.44772 22.5523 1 22 1V2ZM21 12C21 12.5523 21.4477 13 22 13C22.5523 13 23 12.5523 23 12H21ZM11.2929 11.2929C10.9024 11.6834 10.9024 12.3166 11.2929 12.7071C11.6834 13.0976 12.3166 13.0976 12.7071 12.7071L11.2929 11.2929ZM3 12V2H1V12H3ZM1.29289 2.70711L8.29289 9.70711L9.70711 8.29289L2.70711 1.29289L1.29289 2.70711ZM2 3H11V1H2V3ZM14 3H22V1H14V3ZM21 2V12H23V2H21ZM21.2929 1.29289L11.2929 11.2929L12.7071 12.7071L22.7071 2.70711L21.2929 1.29289Z" fill="black"/>
</svg>
