<svg width="20" height="47" viewBox="0 0 20 47" fill="none" xmlns="http://www.w3.org/2000/svg">
<path d="M3.33464 3.33301H16.668C17.5846 3.33301 18.3346 4.08301 18.3346 4.99967V14.9997C18.3346 15.9163 17.5846 16.6663 16.668 16.6663H3.33464C2.41797 16.6663 1.66797 15.9163 1.66797 14.9997V4.99967C1.66797 4.08301 2.41797 3.33301 3.33464 3.33301Z" stroke="black" stroke-width="2" stroke-linecap="round" stroke-linejoin="round"/>
<path d="M18.3346 5L10.0013 10.8333L1.66797 5" stroke="black" stroke-width="2" stroke-linecap="round" stroke-linejoin="round"/>
<path d="M2.5 34.5003L10 28.667L17.5 34.5003V43.667C17.5 44.109 17.3244 44.5329 17.0118 44.8455C16.6993 45.1581 16.2754 45.3337 15.8333 45.3337H4.16667C3.72464 45.3337 3.30072 45.1581 2.98816 44.8455C2.67559 44.5329 2.5 44.109 2.5 43.667V34.5003Z" stroke="black" stroke-width="2" stroke-linecap="round" stroke-linejoin="round"/>
<path d="M7.5 45.3333V37H12.5V45.3333" stroke="black" stroke-width="2" stroke-linecap="round" stroke-linejoin="round"/>
<path d="M10 21V25M8 23H12" stroke="black" stroke-linecap="round" stroke-linejoin="round"/>
</svg>
