<svg width="23" height="24" viewBox="0 0 23 24" fill="none" xmlns="http://www.w3.org/2000/svg">
<path d="M9.86222 3.8602L1.74513 18.0002C1.57778 18.3026 1.48923 18.6455 1.48829 18.9947C1.48735 19.3439 1.57406 19.6873 1.73979 19.9907C1.90552 20.2941 2.14449 20.547 2.43294 20.7241C2.72138 20.9012 3.04923 20.9964 3.38388 21.0002H19.618C19.9527 20.9964 20.2806 20.9012 20.569 20.7241C20.8574 20.547 21.0964 20.2941 21.2621 19.9907C21.4279 19.6873 21.5146 19.3439 21.5136 18.9947C21.5127 18.6455 21.4242 18.3026 21.2568 18.0002L13.1397 3.8602C12.9689 3.56631 12.7283 3.32332 12.4413 3.15469C12.1542 2.98605 11.8304 2.89746 11.501 2.89746C11.1716 2.89746 10.8477 2.98605 10.5607 3.15469C10.2736 3.32332 10.0331 3.56631 9.86222 3.8602V3.8602Z" stroke="#FF7F53" stroke-width="2" stroke-linecap="round" stroke-linejoin="round"/>
<path d="M11.5 17H11.5096" stroke="#FF7F53" stroke-width="3" stroke-linecap="round" stroke-linejoin="round"/>
<path d="M11.5 9V13" stroke="#FF7F53" stroke-width="2" stroke-linecap="round" stroke-linejoin="round"/>
</svg>
