<svg width="308" height="323" viewBox="0 0 308 323" fill="none" xmlns="http://www.w3.org/2000/svg">
<path d="M13.1196 219.191C-13.8836 159.358 2.64468 88.959 45.7876 58.0303C88.9306 27.1015 138.996 71.0013 190.41 45.7646C241.824 20.5279 336.692 77.1871 298.373 170.495C260.054 263.803 201.711 322.029 151.526 322.522C89.4321 323.136 40.1158 279.01 13.1196 219.191Z" fill="white"/>
<path d="M208.506 80.876H98.537C99.1586 97.2608 33.1798 186.288 153.525 197.827C273.864 186.281 207.885 97.2608 208.506 80.876Z" fill="#CCA372"/>
<path d="M263.635 236.824C262.392 205.035 206.994 212.258 188.389 205.035C169.784 197.813 176.247 169.529 176.247 160.86H132.327C132.327 169.529 138.79 197.813 120.185 205.035C101.58 212.258 46.1826 205.035 44.9395 236.824L45.561 270.814C72.9739 302.653 109.294 322.945 151.525 322.522C188.205 322.162 229.243 290.952 263.635 237.756V236.824Z" fill="#FFD7CE"/>
<path d="M263.634 236.824C262.963 219.699 246.576 213.894 228.685 211.059C223.091 228.318 206.873 240.802 187.731 240.802H119.217C100.167 240.802 84.0132 228.438 78.3484 211.305C61.0643 214.233 45.5815 220.186 44.9316 236.824L45.5532 270.814C72.9661 302.653 109.286 322.945 151.518 322.522C188.198 322.162 229.236 290.951 263.627 237.755L263.634 236.824Z" fill="#289AA1"/>
<path d="M174.193 160.86H132.328C132.328 165.798 134.419 177.104 132.78 187.254C157.912 182.965 169.538 168.802 174.193 160.86Z" fill="#F8CBC5"/>
<path d="M167.554 37.0116C167.554 37.0116 175.126 14.9488 163.831 5.3281C152.565 -4.27145 138.615 0.475421 133.65 8.73484C128.14 17.9041 129.411 28.0327 139.336 44.1354C139.752 44.1283 167.554 37.0116 167.554 37.0116Z" fill="#CCA372"/>
<path d="M188.861 128.769C201.632 128.769 210.737 127.4 210.737 117.878C210.737 108.356 198.799 108.3 191.99 108.3L188.861 128.769Z" fill="#FFD7CE"/>
<path d="M134.885 36.1439C135.506 37.4205 136.199 38.7324 136.961 40.0937L147.535 42.111C155.87 40.002 167.553 37.0114 167.553 37.0114C167.553 37.0114 168.754 33.4989 169.488 28.6603C154.351 28.4064 141.588 33.0757 134.885 36.1439Z" fill="#C1986C"/>
<path d="M119.035 128.769C106.265 128.769 97.1602 127.4 97.1602 117.878C97.1602 108.356 109.097 108.3 115.906 108.3L119.035 128.769Z" fill="#FFD7CE"/>
<path d="M105.495 124.459C103.666 124.459 101.306 123.739 100.007 121.066C98.2268 117.405 100.678 114.662 102.225 113.724C102.712 113.427 103.355 113.583 103.651 114.069C103.948 114.556 103.793 115.191 103.305 115.487C103.009 115.67 100.501 117.342 101.871 120.156C103.319 123.126 106.456 122.286 106.59 122.251C107.141 122.096 107.713 122.42 107.868 122.97C108.024 123.521 107.699 124.092 107.148 124.247C106.71 124.374 106.138 124.459 105.495 124.459Z" fill="#FFA8A8"/>
<path d="M199.457 115.509C210.066 100.393 212.411 74.0633 200.693 56.5146C188.982 38.9731 168.802 32.7803 150.607 32.7803C132.419 32.7803 99.9628 48.8265 98.5643 80.2561C97.1657 111.686 108.361 118.534 108.361 118.534L199.457 115.509Z" fill="#CCA372"/>
<path d="M201.182 124.458C200.546 124.458 199.967 124.373 199.529 124.246C198.978 124.091 198.653 123.52 198.808 122.97C198.964 122.42 199.543 122.095 200.087 122.25C200.419 122.342 203.4 123.047 204.805 120.155C206.218 117.257 203.491 115.557 203.371 115.486C202.884 115.19 202.729 114.555 203.025 114.061C203.322 113.575 203.965 113.42 204.452 113.716C205.999 114.654 208.457 117.398 206.67 121.058C205.363 123.739 203.004 124.458 201.182 124.458Z" fill="#FFA8A8"/>
<path d="M106.717 94.2348C106.717 113.194 109.359 132.76 116.683 144.948C125.23 159.167 137.57 171.49 153.702 171.49C169.835 171.49 182.182 159.167 190.721 144.948C198.046 132.753 200.688 113.194 200.688 94.2348C200.688 75.2755 185.085 48.1484 154.536 48.1484C123.987 48.1484 106.717 67.6508 106.717 94.2348Z" fill="#FFD7CE"/>
<path d="M127.97 107.742C127.729 105.866 128.295 104.427 129.142 103.235C130.018 102.065 131.275 101.169 132.787 100.731C134.284 100.28 136.071 100.386 137.569 101.091C139.08 101.782 140.217 103.193 140.479 104.985L140.26 105.337C139.737 105.14 139.271 104.837 138.727 104.724L137.943 104.498L137.138 104.392C136.064 104.3 134.977 104.378 133.938 104.702C132.893 104.999 131.897 105.478 130.95 106.043C130.011 106.614 129.093 107.27 128.28 108.018L127.97 107.742Z" fill="#CCA372"/>
<path d="M179.567 105.175C178.791 104.392 177.908 103.687 177.003 103.066C176.085 102.452 175.118 101.923 174.093 101.571C173.076 101.19 171.989 101.063 170.915 101.091L170.103 101.155L169.312 101.338C168.768 101.423 168.28 101.698 167.751 101.867L167.553 101.5C167.906 99.7229 169.107 98.3686 170.661 97.762C172.193 97.1343 173.98 97.1202 175.45 97.6492C176.933 98.1641 178.148 99.1233 178.953 100.344C179.737 101.578 180.224 103.045 179.885 104.907L179.567 105.175Z" fill="#CCA372"/>
<path d="M146.285 140.202C145.832 140.202 145.423 139.906 145.289 139.454C145.126 138.904 145.444 138.333 145.995 138.171C152.5 136.28 160.906 137.275 161.259 137.31C161.824 137.381 162.234 137.896 162.163 138.46C162.092 139.031 161.577 139.433 161.012 139.363C160.927 139.349 152.67 138.389 146.581 140.153C146.475 140.188 146.383 140.202 146.285 140.202Z" fill="#FFA8A8"/>
<path d="M128.125 136.195C131.971 136.195 135.089 133.082 135.089 129.241C135.089 125.4 131.971 122.286 128.125 122.286C124.278 122.286 121.16 125.4 121.16 129.241C121.16 133.082 124.278 136.195 128.125 136.195Z" fill="#FFA8A8"/>
<path d="M179.623 136.195C183.469 136.195 186.587 133.082 186.587 129.241C186.587 125.4 183.469 122.286 179.623 122.286C175.776 122.286 172.658 125.4 172.658 129.241C172.658 133.082 175.776 136.195 179.623 136.195Z" fill="#FFA8A8"/>
<path d="M152.803 111.261L147.739 126.813C147.343 128.02 148.297 129.24 149.625 129.24H155.007C156.116 129.24 157.006 128.379 156.985 127.328L156.667 111.776C156.624 109.646 153.467 109.223 152.803 111.261Z" fill="#FFA8A8"/>
<path d="M157.503 61.1054C157.503 61.1054 147.282 80.7912 116.627 86.5608C116.747 86.4409 130.415 49.7002 130.415 49.7002L157.503 61.1054Z" fill="#F8CBC5"/>
<path d="M202.96 91.5413C202.96 91.5413 180.626 92.0139 159.81 78.6831C138.995 65.3524 139.574 44.2912 139.574 44.2912C139.574 44.2912 160.001 42.5279 178.147 50.879C196.293 59.2301 203.829 76.3767 202.96 91.5413Z" fill="#CCA372"/>
<path d="M101.617 99.5319C101.617 99.5319 143.588 82.7661 144.089 44.4385C144.301 45.1579 125.64 43.1759 116.245 54.3695C106.858 65.5772 102.867 82.6603 101.617 99.5319Z" fill="#CCA372"/>
<path d="M135.117 115.056C136.564 115.056 137.737 113.884 137.737 112.439C137.737 110.994 136.564 109.822 135.117 109.822C133.669 109.822 132.496 110.994 132.496 112.439C132.496 113.884 133.669 115.056 135.117 115.056Z" fill="#222221"/>
<path d="M172.632 115.176C174.08 115.176 175.253 114.004 175.253 112.559C175.253 111.114 174.08 109.942 172.632 109.942C171.185 109.942 170.012 111.114 170.012 112.559C170.012 114.004 171.185 115.176 172.632 115.176Z" fill="#222221"/>
</svg>
