<svg width="308" height="349" viewBox="0 0 308 349" fill="none" xmlns="http://www.w3.org/2000/svg">
<path d="M13.1196 237.262C-13.8836 172.622 2.64468 96.5673 45.7876 63.1538C88.9306 29.7403 138.996 77.1669 190.41 49.9027C241.824 22.6385 336.692 83.8496 298.373 184.654C260.054 285.459 201.711 348.361 151.526 348.895C89.4321 349.558 40.1158 301.887 13.1196 237.262Z" fill="#F1ECE7"/>
<path d="M208.506 87.834H98.537C99.1586 105.535 33.1798 201.714 153.525 214.181C273.864 201.707 207.885 105.535 208.506 87.834Z" fill="#CCA372"/>
<path d="M263.637 256.311C262.394 221.968 206.996 229.771 188.391 221.968C169.786 214.165 176.249 183.609 176.249 174.244H132.329C132.329 183.609 138.792 214.165 120.187 221.968C101.582 229.771 46.1846 221.968 44.9414 256.311L45.563 293.032C72.9759 327.428 109.296 349.351 151.527 348.894C188.207 348.505 229.245 314.787 263.637 257.317V256.311Z" fill="#FFD7CE"/>
<path d="M263.636 256.312C262.965 237.811 246.578 231.54 228.687 228.477C223.093 247.123 206.875 260.61 187.733 260.61H119.219C100.169 260.61 84.0151 247.252 78.3503 228.743C61.0663 231.906 45.5834 238.337 44.9336 256.312L45.5552 293.033C72.968 327.429 109.288 349.352 151.52 348.895C188.2 348.506 229.238 314.788 263.629 257.318L263.636 256.312Z" fill="#289AA1"/>
<path d="M174.193 174.244H132.328C132.328 179.578 134.419 191.793 132.78 202.758C157.912 198.125 169.538 182.824 174.193 174.244Z" fill="#F8CBC5"/>
<path d="M167.552 40.446C167.552 40.446 175.124 16.6107 163.829 6.21709C152.563 -4.15368 138.613 0.974553 133.648 9.89753C128.138 19.8035 129.41 30.7457 139.334 48.1421C139.75 48.1345 167.552 40.446 167.552 40.446Z" fill="#CCA372"/>
<path d="M188.863 139.574C201.634 139.574 210.738 138.096 210.738 127.809C210.738 117.522 198.801 117.461 191.992 117.461L188.863 139.574Z" fill="#FFD7CE"/>
<path d="M134.883 39.5076C135.504 40.8868 136.197 42.3041 136.959 43.7748L147.533 45.9541C155.868 43.6757 167.551 40.4449 167.551 40.4449C167.551 40.4449 168.752 36.6501 169.486 31.4228C154.349 31.1485 141.586 36.1929 134.883 39.5076Z" fill="#C1986C"/>
<path d="M119.035 139.574C106.265 139.574 97.1602 138.096 97.1602 127.809C97.1602 117.522 109.097 117.461 115.906 117.461L119.035 139.574Z" fill="#FFD7CE"/>
<path d="M105.493 134.918C103.664 134.918 101.304 134.141 100.005 131.253C98.2248 127.298 100.676 124.334 102.223 123.321C102.71 123.001 103.353 123.168 103.649 123.694C103.946 124.22 103.791 124.906 103.303 125.226C103.007 125.424 100.499 127.23 101.87 130.27C103.317 133.478 106.454 132.571 106.588 132.533C107.139 132.365 107.711 132.716 107.866 133.31C108.022 133.905 107.697 134.522 107.146 134.69C106.708 134.827 106.136 134.918 105.493 134.918Z" fill="#FFA8A8"/>
<path d="M199.459 125.25C210.068 108.92 212.413 80.4746 200.695 61.5162C188.984 42.5653 168.804 35.875 150.609 35.875C132.421 35.875 99.9648 53.2104 98.5662 87.1649C97.1677 121.119 108.363 128.518 108.363 128.518L199.459 125.25Z" fill="#CCA372"/>
<path d="M201.182 134.918C200.546 134.918 199.967 134.827 199.529 134.689C198.978 134.522 198.653 133.905 198.808 133.31C198.964 132.716 199.543 132.365 200.087 132.533C200.419 132.632 203.4 133.394 204.805 130.27C206.218 127.138 203.491 125.302 203.371 125.225C202.884 124.905 202.729 124.22 203.025 123.686C203.322 123.16 203.965 122.993 204.452 123.313C205.999 124.326 208.457 127.29 206.67 131.245C205.363 134.141 203.004 134.918 201.182 134.918Z" fill="#FFA8A8"/>
<path d="M106.719 102.267C106.719 122.75 109.36 143.888 116.685 157.055C125.232 172.417 137.571 185.729 153.704 185.729C169.837 185.729 182.184 172.417 190.723 157.055C198.048 143.88 200.69 122.75 200.69 102.267C200.69 81.7849 185.087 52.4785 154.538 52.4785C123.989 52.4785 106.719 73.5477 106.719 102.267Z" fill="#FFD7CE"/>
<path d="M127.97 116.86C127.729 114.833 128.295 113.278 129.142 111.991C130.018 110.726 131.275 109.758 132.787 109.286C134.284 108.798 136.071 108.912 137.569 109.674C139.08 110.421 140.218 111.945 140.479 113.88L140.26 114.261C139.737 114.048 139.271 113.72 138.727 113.598L137.943 113.355L137.138 113.24C136.064 113.141 134.977 113.225 133.938 113.576C132.893 113.896 131.897 114.414 130.95 115.023C130.011 115.641 129.093 116.349 128.28 117.157L127.97 116.86Z" fill="#CCA372"/>
<path d="M179.569 114.087C178.792 113.241 177.91 112.479 177.005 111.808C176.087 111.145 175.12 110.574 174.095 110.193C173.078 109.781 171.99 109.644 170.917 109.675L170.105 109.743L169.313 109.941C168.77 110.033 168.282 110.33 167.752 110.513L167.555 110.116C167.908 108.196 169.109 106.733 170.663 106.078C172.195 105.4 173.982 105.384 175.452 105.956C176.935 106.512 178.15 107.549 178.955 108.867C179.739 110.2 180.226 111.785 179.887 113.797L179.569 114.087Z" fill="#CCA372"/>
<path d="M146.285 151.927C145.832 151.927 145.423 151.607 145.289 151.119C145.126 150.525 145.444 149.907 145.995 149.732C152.5 147.69 160.906 148.764 161.259 148.803C161.824 148.879 162.234 149.435 162.163 150.045C162.092 150.662 161.577 151.096 161.012 151.02C160.927 151.005 152.67 149.968 146.581 151.873C146.475 151.911 146.383 151.927 146.285 151.927Z" fill="#FFA8A8"/>
<path d="M128.125 147.597C131.971 147.597 135.089 144.233 135.089 140.084C135.089 135.934 131.971 132.57 128.125 132.57C124.278 132.57 121.16 135.934 121.16 140.084C121.16 144.233 124.278 147.597 128.125 147.597Z" fill="#FFA8A8"/>
<path d="M179.625 147.597C183.471 147.597 186.589 144.233 186.589 140.084C186.589 135.934 183.471 132.57 179.625 132.57C175.778 132.57 172.66 135.934 172.66 140.084C172.66 144.233 175.778 147.597 179.625 147.597Z" fill="#FFA8A8"/>
<path d="M152.803 120.66L147.739 137.462C147.343 138.765 148.297 140.084 149.625 140.084H155.007C156.116 140.084 157.006 139.154 156.985 138.019L156.667 121.217C156.624 118.915 153.467 118.458 152.803 120.66Z" fill="#FFA8A8"/>
<path d="M157.501 66.4758C157.501 66.4758 147.28 87.7431 116.625 93.9762C116.745 93.8467 130.413 54.1543 130.413 54.1543L157.501 66.4758Z" fill="#F8CBC5"/>
<path d="M202.962 99.3566C202.962 99.3566 180.628 99.8672 159.812 85.4655C138.997 71.0637 139.576 48.3105 139.576 48.3105C139.576 48.3105 160.003 46.4055 178.149 55.4276C196.295 64.4496 203.831 82.9737 202.962 99.3566Z" fill="#CCA372"/>
<path d="M101.617 107.99C101.617 107.99 143.588 89.8776 144.089 48.4707C144.301 49.2479 125.64 47.1067 116.245 59.1996C106.858 71.3077 102.867 89.7633 101.617 107.99Z" fill="#CCA372"/>
<path d="M135.117 124.762C136.564 124.762 137.737 123.496 137.737 121.934C137.737 120.373 136.564 119.107 135.117 119.107C133.669 119.107 132.496 120.373 132.496 121.934C132.496 123.496 133.669 124.762 135.117 124.762Z" fill="#222221"/>
<path d="M172.632 124.89C174.08 124.89 175.253 123.625 175.253 122.063C175.253 120.502 174.08 119.236 172.632 119.236C171.185 119.236 170.012 120.502 170.012 122.063C170.012 123.625 171.185 124.89 172.632 124.89Z" fill="#222221"/>
</svg>
