<svg version="1.1" id="Layer_1" xmlns="http://www.w3.org/2000/svg" xmlns:xlink="http://www.w3.org/1999/xlink" x="0px" y="0px"
	 viewBox="0 0 481 582.1" style="enable-background:new 0 0 481 582.1;" xml:space="preserve">
<style type="text/css">
	.st0{fill:none;}
	.st1{fill:#FFD7CE;}
	.st2{fill:#FFA8A8;}
	.st3{fill:#F1ECE7;}
	.st4{fill:#575756;}
	.st5{fill:#4B4B4B;}
	.st6{fill:#232323;}
	.st7{fill:#55237C;}
	.st8{fill:#3C1E53;}
	.st9{fill:#F8CBC5;}
	.st10{fill:#5C3B2F;}
	.st11{fill:#200E0A;}
	.st12{fill:#1C1C1B;}
	.st13{fill:#86D4D9;}
</style>
<rect x="-66" y="-6.5" class="st0" width="619" height="588.5"/>
<g>
	<path class="st1" d="M426.2,203.7l2.7-6.6l26.8,3.4c2.9,0.4,5.8-0.3,8.2-2l12.6-9c2-1.4,2.5-4.1,1.1-6.1l-3.8-5.8
		c-0.6-1-1.8-1.3-2.9-0.9l-14,6.3l-18.5-3.1l11.5-4.4c1.4-0.5,2-2.1,1.5-3.5c0,0,0-0.1,0-0.1c-0.5-1-1.5-1.6-2.6-1.6l-17.3,1.1
		c-0.8,0-1.6,0.2-2.2,0.7l-10,5.6c-2,1.1-3.6,2.8-4.7,4.9l-5.8,11.8L426.2,203.7z"/>
	<path class="st2" d="M444.9,182.2h-0.2c-4.2-1-16-3.1-19.3-1.1c-0.5,0.3-1.2,0.2-1.6-0.3c-0.3-0.5-0.1-1.2,0.3-1.6
		c4.6-2.8,19.2,0.6,20.9,0.9c0.6,0.2,1,0.7,0.9,1.3C445.9,181.9,445.5,182.2,444.9,182.2z"/>
	<path class="st2" d="M459.5,194.9l-17-2.8c-0.6-0.1-1-0.6-0.9-1.2c0.1-0.6,0.6-1,1.2-0.9l16.1,2.6l12.9-8.6
		c0.5-0.3,1.2-0.2,1.5,0.3c0,0,0,0,0,0.1c0.3,0.5,0.2,1.2-0.3,1.5c0,0,0,0-0.1,0L459.5,194.9z"/>
	<path class="st2" d="M457.9,189.9l-16.9-2.8c-0.6-0.1-0.9-0.7-0.8-1.3c0.1-0.5,0.6-0.9,1.1-0.8l16.1,2.7l12.1-6.7
		c0.6-0.3,1.2-0.1,1.6,0.4s0.1,1.2-0.4,1.6l0,0L457.9,189.9z"/>
	<path class="st3" d="M18.5,258.5C-39.8,134.6,49.1,19.4,152.8,28.8c120.4,10.9,77.6,114,131,173S535.8,259,466.4,389.5
		c-42.2,79.4-205.2,157.3-316.3,116.6S56.2,338.5,18.5,258.5z"/>
	<path class="st1" d="M101.3,216.6l-3.4-5.7l-21.9,7c-2.6,0.9-5.5,0.7-8-0.6l-13.1-6.4c-2.1-1-2.9-3.5-2-5.6l2.6-5.9
		c0.4-1,1.5-1.5,2.6-1.2l14,3.7l16.7-5.8l-11.3-2.3c-1.3-0.3-2.2-1.7-1.9-3c0.2-1,1.1-1.7,2.1-1.8l16.3-1.6c0.7-0.1,1.5,0,2.2,0.2
		l10.2,3.7c2.1,0.7,3.9,2.1,5.1,3.9l7.2,10.1L101.3,216.6z"/>
	<path class="st2" d="M82.7,199.2c-0.4,0-0.9-0.2-1-0.7c-0.2-0.6,0-1.2,0.6-1.4c1.4-0.7,14.7-6,19.3-4.1c0.6,0.2,0.9,0.9,0.7,1.4
		c-0.2,0.6-0.9,0.9-1.4,0.7l0,0c-2.9-1.1-12.4,1.9-17.7,4.1H82.7z"/>
	<path class="st2" d="M71.4,213.4L57.3,207c-0.6-0.2-0.8-0.9-0.6-1.4c0.2-0.6,0.9-0.8,1.4-0.6l13.3,6l14.6-5
		c0.6-0.2,1.2,0.1,1.4,0.7c0.2,0.6-0.1,1.2-0.7,1.4L71.4,213.4z"/>
	<path class="st2" d="M72,208.4l-13-4.6c-0.6-0.2-0.9-0.9-0.6-1.5c0.2-0.6,0.8-0.8,1.4-0.6l12.2,4.2l14.6-5c0.6-0.2,1.2,0.1,1.4,0.7
		c0.2,0.6-0.1,1.2-0.6,1.4L72,208.4z"/>
	<path class="st4" d="M341.5,582.1L322,352.2l-123.8,2.6l63.1,76.2l25.2,151.1"/>
	<path class="st4" d="M341.5,582.1"/>
	<path class="st4" d="M286.5,582.1"/>
	<path class="st5" d="M258.4,582.1l3-151.1l-13.2-77.2l-49.9,1l8,227.3"/>
	<path class="st4" d="M239.8,348.3l21.5-1.9l5.5,63.4c-11.9,1-22.3-7.8-23.3-19.7c0,0,0,0,0,0L239.8,348.3z"/>
	<path class="st6" d="M196.8,353.1l126.6-1.8l0.4,9.5l-126.3,1.8L196.8,353.1z"/>
	<path class="st5" d="M274.5,349.8l-4.8,0.2l0.5,15.9l4.8-0.2L274.5,349.8z"/>
	<path class="st4" d="M237.6,349.6l-4.8,0.2l0.5,15.9l4.8-0.2L237.6,349.6z"/>
	<path class="st5" d="M309.2,348.6l-4.8,0.2l0.5,15.9l4.8-0.2L309.2,348.6z"/>
	<path class="st4" d="M206.2,349.6l-4.8,0.2l0.5,15.9l4.8-0.2L206.2,349.6z"/>
	<path class="st7" d="M406,193.1c-11.1,14.4-26.1,37.7-34.2,66.8c0,0.4-14.1-31.3-26.2-50.6s-14.1-34.3-69-31.8l-18.8-0.4
		c-19.8,1.1-49.2,4-60.4,18.4s-33.6,55.4-37.2,75.2c0.2,0.7-8.4-27.3-20.1-46.8c-5.9-9.8-18.8-21.6-18.8-21.6l-25.8,15.1
		c5.4,7,10.3,14.4,14.7,22c10.2,17.7,17,38.5,20.1,48.7s10.8,36.2,27.2,36.2s32.2-21.8,35.3-44.5c0.1,0.1-0.1,2.3,0.2,5.8
		c0,0,0,47.7,2.4,70.2l130-1.2c0,0-2.3-79.5-0.3-103c0.1-1,0.3-1.8,0.5-2.4c0.2,0,18,29.7,23.2,40.8s12.2,27.5,28.8,28.3
		s26.4-29.1,32.1-48c4.8-15.6,14.3-47.6,23-67.5L406,193.1z"/>
	<path class="st8" d="M157.4,324.4c5.1,0,10.1-2.1,14.7-5.7c-5.1-7.6-15.5-9.6-23.1-4.5c-1.7,1.1-3.1,2.5-4.3,4.2
		C148.2,322,152.4,324.4,157.4,324.4z"/>
	<path class="st8" d="M365.5,314.4c3.6,2.5,7.8,3.9,12.1,4.1c5.5,0.2,10.1-2.8,14.1-7.6c-3.1-3.1-7.4-4.9-11.8-4.9
		C374,306,368.5,309.2,365.5,314.4z"/>
	<path class="st8" d="M263.4,201.8c12.4,0,22.4-10,22.5-22.4v-2.1c-2.9,0-6,0.1-9.2,0.2l-18.8-0.4c-5.1,0.2-10.9,0.7-16.8,1.3v0.9
		c-0.1,12.3,9.8,22.4,22.1,22.5C263.2,201.8,263.3,201.8,263.4,201.8z"/>
	<path class="st1" d="M278.6,159.6v18.9c0,8.4-6.8,15.2-15.2,15.2c-8.4,0-15.2-6.8-15.2-15.2c0,0,0,0,0,0v-18.9H278.6z"/>
	<path class="st9" d="M278.6,166.3v-6.7h-30.4v18.9C265,179.6,274.3,171.7,278.6,166.3z"/>
	<path class="st1" d="M240.7,142.6c-8.3,0-14.3-0.9-14.3-7.1s7.8-6.3,12.3-6.3L240.7,142.6z"/>
	<path class="st1" d="M286.5,142.6c8.3,0,14.3-0.9,14.3-7.1s-7.8-6.3-12.3-6.3L286.5,142.6z"/>
	<path class="st10" d="M292.5,136.3c6.9-10,8.7-27.7,1.3-39.5S273.6,80.5,262,80.4s-32.6,10.2-33.8,31.3s5.9,25.7,5.9,25.7
		L292.5,136.3z"/>
	<path class="st11" d="M297.8,107.1c-0.2-1.2-0.6-2.4-0.9-3.7l-13-3.4l4.8,10.9C294.1,110.4,296.5,108.7,297.8,107.1z"/>
	<path class="st1" d="M232.6,119.9c0,12.5,1.8,25.2,6.6,33.3c5.6,9.3,13.7,17.5,24.2,17.5s18.7-8.1,24.2-17.5
		c4.8-8,6.6-20.8,6.6-33.3s-10.2-30.3-30.2-30.3S232.6,102.5,232.6,119.9z"/>
	<path class="st2" d="M262.8,126.9l-3.3,13.9c-0.2,1.1,0.3,2.1,1.2,2.1h3.6c0.8-0.1,1.4-0.8,1.3-1.7l-0.2-13.9
		C265.3,125.5,263.3,125,262.8,126.9z"/>
	<path class="st9" d="M235.5,104c0,0-9.4,4.6,10.2,3.2s16-20.3,16-20.3L235.5,104z"/>
	<path class="st12" d="M252.6,133.5c0.9,0,1.7-0.7,1.7-1.7s-0.7-1.7-1.7-1.7s-1.7,0.7-1.7,1.7l0,0
		C250.9,132.8,251.7,133.5,252.6,133.5z"/>
	<path class="st12" d="M274.4,133.6c0.9,0,1.7-0.7,1.7-1.7s-0.7-1.7-1.7-1.7c-0.9,0-1.7,0.7-1.7,1.7
		C272.7,132.9,273.4,133.6,274.4,133.6C274.4,133.6,274.4,133.6,274.4,133.6z"/>
	<path class="st10" d="M246,125.1c-0.1-1.1,0.2-2.1,0.8-3c0.6-0.8,1.4-1.4,2.3-1.7c1-0.3,2.1-0.2,3.1,0.2c1.1,0.4,1.8,1.4,1.9,2.6
		l-0.1,0.2c-0.3-0.1-0.7-0.3-1-0.4l-0.6-0.1l-0.6-0.1c-0.7-0.1-1.4,0-2.1,0.2c-0.7,0.3-1.4,0.5-2,0.9c-0.7,0.3-1.3,0.8-1.8,1.3
		V125.1z"/>
	<path class="st10" d="M279.5,129c-0.5-0.5-1.1-1-1.7-1.3c-0.6-0.4-1.2-0.8-1.9-1c-0.7-0.2-1.4-0.3-2.1-0.3h-0.6l-0.5,0.1
		c-0.3,0.1-0.7,0.2-1,0.3l-0.1-0.2c0.2-1.1,1-2,2-2.4c1-0.4,2.1-0.5,3.1-0.1c0.9,0.3,1.8,1,2.3,1.8c0.6,0.9,0.9,2,0.7,3L279.5,129z"
		/>
	<path class="st2" d="M256,151.2c-0.3,0-0.6-0.2-0.7-0.4c-0.1-0.3,0-0.7,0.3-0.9c6.2-2.4,14.2-1.8,14.6-1.7c0.4,0,0.7,0.3,0.7,0.7
		c0,0.4-0.3,0.7-0.7,0.7c0,0-0.1,0-0.1,0c-0.1,0-8-0.8-13.9,1.6H256z"/>
	<path class="st2" d="M231.8,139.7c-1.5,0.1-3-0.8-3.6-2.2c-0.9-1.7-0.3-3.9,1.4-4.8c0.3-0.2,0.6-0.1,0.8,0.1c0,0,0,0.1,0.1,0.1
		c0.2,0.3,0.2,0.6-0.1,0.8c0,0-0.1,0.1-0.1,0.1c-1.1,0.6-1.5,2-0.9,3.1c0,0,0,0,0,0c0.5,1.2,1.9,1.8,3.1,1.3c0.4-0.2,0.8,0,0.9,0.3
		s0,0.8-0.3,0.9c-0.1,0-0.1,0-0.2,0.1C232.6,139.7,232.2,139.7,231.8,139.7z"/>
	<path class="st2" d="M294.5,139.7c-0.4,0-0.8-0.1-1.1-0.1c-0.4-0.1-0.6-0.5-0.6-0.8c0.1-0.4,0.5-0.6,0.8-0.6c0.1,0,0.1,0,0.2,0.1
		c1.2,0.4,2.6-0.2,3.1-1.3c0.5-1.1,0.1-2.4-0.9-3.1c-0.3-0.2-0.4-0.5-0.3-0.8c0,0,0,0,0-0.1c0.2-0.3,0.5-0.4,0.8-0.3c0,0,0,0,0.1,0
		c1.7,1,2.3,3.1,1.5,4.8C297.5,138.9,296.1,139.8,294.5,139.7z"/>
	<path class="st10" d="M230.2,108c0,0,24.2,0.9,32.9-17.9c0,0.4-8.8-4.7-15.9-1.2S234.5,100,230.2,108z"/>
	<path class="st10" d="M242.2,75.9c5.8-2.7,12.4-3.3,18.6-1.7c10.5,2.7,14.5,13,14.5,13s-7.2,4.6-15.6,3.9S244.9,83.4,242.2,75.9z"
		/>
	<path class="st10" d="M300.8,86.8c-4.8,5.8-11.4,9.9-18.8,11.4c-12.3,2.7-22.1-6.1-22.1-6.1s5.3-8.7,14.5-12.2
		S293.9,80.3,300.8,86.8z"/>
	<path class="st10" d="M224.9,99.6c2.3-6,6.5-11,12-14.2c9.2-5.4,19.5-1,19.5-1s-1.9,8.3-8.3,13.8S232.2,103,224.9,99.6z"/>
	<path class="st11" d="M256.4,89.6c0,0,0-1.9,4.3-4.4s12.1-3.7,22.5,0.4L256.4,89.6z"/>
	<path class="st10" d="M303.2,104.6c-8.3,4.1-17.8,5.2-26.8,3.1c-15.1-3.4-21.5-18.2-21.5-18.2s10.2-6.9,22.4-6.2
		C289.5,84.1,298.8,93.9,303.2,104.6z"/>
	<path class="st5" d="M288.7,372.7l0.3,1.7c2.5,12.5,32,17,32,17L288.7,372.7z"/>
	<path class="st4" d="M249.7,582.1l2.5-146.1c0.1-0.6,0.6-1.1,1.2-1c0.5,0.1,1,0.5,1,1L252,582.1"/>
	<path class="st8" d="M181.9,308.2c5.7-8.5,9.4-18.2,10.9-28.4c0,0,3.2-35.3,9.1-61.4C202.1,218.8,176.5,257.5,181.9,308.2z"/>
	<path class="st13" d="M247,41.2v-14c7.4-0.7,15.2-2.7,15.2-10.9c0-4.8-2.8-6.7-6.7-6.7c-4.8,0-7.2,2.4-8.1,8l-11.2-1.8
		c1.2-9.7,8.1-15.8,20-15.8c9.3,0,18.2,4,18.2,16.4c0,9.7-5.9,15.4-15.9,17.8v7H247z M252.7,57.2c-4.6,0-6.8-2-6.8-6.1
		s2.2-6.2,6.8-6.2c4.6,0,6.8,2.2,6.8,6.2S257.3,57.2,252.7,57.2L252.7,57.2z"/>
	<path class="st13" d="M192.2,100.1v-10c5.3-0.4,10.9-1.9,10.9-7.8c0-3.4-2-4.8-4.8-4.8c-3.4,0-5.1,1.8-5.8,5.7l-8.1-1.2
		c0.9-7,5.8-11.3,14.3-11.3c6.7,0,13.1,2.9,13.1,11.8c0,6.9-4.2,11-11.4,12.8v5h-8.2V100.1z M196.2,111.6c-3.3,0-4.9-1.4-4.9-4.4
		s1.6-4.4,4.9-4.4s4.9,1.6,4.9,4.4S199.6,111.6,196.2,111.6z"/>
	<path class="st13" d="M316.5,89.6V77.2c6.6-0.6,13.3-2.3,13.3-9.6c0-4.2-2.4-5.9-5.9-5.9c-4.1,0-6.3,2.1-7.1,7l-9.9-1.6
		c1.1-8.6,7.1-13.9,17.6-13.9c8.2,0,16,3.5,16,14.3c0,8.5-5.2,13.6-14,15.6v6.2h-10L316.5,89.6z M321.4,103.6c-4,0-6-1.8-6-5.3
		c0-3.4,2-5.4,6-5.4s6,2,6,5.4S325.4,103.6,321.4,103.6L321.4,103.6z"/>
</g>
</svg>
