<svg width="215" height="19" viewBox="0 0 215 19" fill="none" xmlns="http://www.w3.org/2000/svg">
<path d="M3.21875 8.36328H4.83984C5.92708 8.36328 6.71484 8.16146 7.20312 7.75781C7.69141 7.35417 7.93555 6.75521 7.93555 5.96094C7.93555 5.15365 7.67188 4.57422 7.14453 4.22266C6.61719 3.87109 5.82292 3.69531 4.76172 3.69531H3.21875V8.36328ZM3.21875 10.2969V16H0.884766V1.72266H4.91797C6.76042 1.72266 8.12435 2.06771 9.00977 2.75781C9.89518 3.44792 10.3379 4.48958 10.3379 5.88281C10.3379 7.66016 9.41341 8.92643 7.56445 9.68164L11.5977 16H8.94141L5.52344 10.2969H3.21875ZM21.0508 16L20.7285 14.584H20.6113C20.2923 15.0853 19.8366 15.4792 19.2441 15.7656C18.6582 16.0521 17.9876 16.1953 17.2324 16.1953C15.9238 16.1953 14.9473 15.8698 14.3027 15.2188C13.6582 14.5677 13.3359 13.5814 13.3359 12.2598V5.19922H15.6504V11.8594C15.6504 12.6862 15.8197 13.3079 16.1582 13.7246C16.4967 14.1348 17.0273 14.3398 17.75 14.3398C18.7135 14.3398 19.4199 14.0534 19.8691 13.4805C20.3249 12.901 20.5527 11.9342 20.5527 10.5801V5.19922H22.8574V16H21.0508ZM31.6465 5.00391C32.9941 5.00391 34.0423 5.49219 34.791 6.46875C35.5462 7.44531 35.9238 8.81576 35.9238 10.5801C35.9238 12.3509 35.543 13.7311 34.7812 14.7207C34.0195 15.7038 32.9616 16.1953 31.6074 16.1953C30.2402 16.1953 29.179 15.7038 28.4238 14.7207H28.2676L27.8477 16H26.1289V0.804688H28.4238V4.41797C28.4238 4.6849 28.4108 5.08203 28.3848 5.60938C28.3587 6.13672 28.3392 6.47201 28.3262 6.61523H28.4238C29.153 5.54102 30.2272 5.00391 31.6465 5.00391ZM31.0508 6.87891C30.1263 6.87891 29.459 7.15234 29.0488 7.69922C28.6452 8.23958 28.4368 9.14779 28.4238 10.4238V10.5801C28.4238 11.8952 28.6322 12.849 29.0488 13.4414C29.4655 14.0273 30.1458 14.3203 31.0898 14.3203C31.9036 14.3203 32.5189 13.998 32.9355 13.3535C33.3587 12.709 33.5703 11.778 33.5703 10.5605C33.5703 8.10612 32.7305 6.87891 31.0508 6.87891ZM40.8848 16H38.5898V5.19922H40.8848V16ZM38.4531 2.33789C38.4531 1.92773 38.5638 1.61198 38.7852 1.39062C39.013 1.16927 39.3353 1.05859 39.752 1.05859C40.1556 1.05859 40.4681 1.16927 40.6895 1.39062C40.9173 1.61198 41.0312 1.92773 41.0312 2.33789C41.0312 2.72852 40.9173 3.03776 40.6895 3.26562C40.4681 3.48698 40.1556 3.59766 39.752 3.59766C39.3353 3.59766 39.013 3.48698 38.7852 3.26562C38.5638 3.03776 38.4531 2.72852 38.4531 2.33789ZM46.3926 10.2969L47.6914 8.67578L50.9531 5.19922H53.5996L49.2539 9.83789L53.873 16H51.1777L47.7109 11.2637L46.4512 12.2988V16H44.1758V0.804688H46.4512V8.2168L46.334 10.2969H46.3926ZM65.2012 10.5801C65.2012 12.3444 64.7487 13.7214 63.8438 14.7109C62.9388 15.7005 61.679 16.1953 60.0645 16.1953C59.0553 16.1953 58.1634 15.9674 57.3887 15.5117C56.6139 15.056 56.0182 14.4017 55.6016 13.5488C55.1849 12.696 54.9766 11.7064 54.9766 10.5801C54.9766 8.82878 55.4258 7.46159 56.3242 6.47852C57.2227 5.49544 58.4889 5.00391 60.123 5.00391C61.6855 5.00391 62.9225 5.50846 63.834 6.51758C64.7454 7.52018 65.2012 8.87435 65.2012 10.5801ZM57.3398 10.5801C57.3398 13.0736 58.2611 14.3203 60.1035 14.3203C61.9264 14.3203 62.8379 13.0736 62.8379 10.5801C62.8379 8.11263 61.9199 6.87891 60.084 6.87891C59.1204 6.87891 58.4206 7.19792 57.9844 7.83594C57.5547 8.47396 57.3398 9.38867 57.3398 10.5801ZM77.3496 16H75.0449V9.35938C75.0449 8.52604 74.8757 7.9043 74.5371 7.49414C74.2051 7.08398 73.6745 6.87891 72.9453 6.87891C71.9753 6.87891 71.2656 7.16536 70.8164 7.73828C70.3672 8.3112 70.1426 9.27148 70.1426 10.6191V16H67.8477V5.19922H69.6445L69.9668 6.61523H70.084C70.4095 6.10091 70.8717 5.70378 71.4707 5.42383C72.0697 5.14388 72.7337 5.00391 73.4629 5.00391C76.054 5.00391 77.3496 6.32227 77.3496 8.95898V16ZM90.0938 16.1953C88.4596 16.1953 87.2161 15.7201 86.3633 14.7695C85.5169 13.8125 85.0938 12.4421 85.0938 10.6582C85.0938 8.8418 85.5365 7.44531 86.4219 6.46875C87.3138 5.49219 88.5996 5.00391 90.2793 5.00391C91.4186 5.00391 92.444 5.21549 93.3555 5.63867L92.6621 7.48438C91.6921 7.10677 90.8913 6.91797 90.2598 6.91797C88.3913 6.91797 87.457 8.1582 87.457 10.6387C87.457 11.8496 87.6882 12.7611 88.1504 13.373C88.6191 13.9785 89.3027 14.2812 90.2012 14.2812C91.2233 14.2812 92.1901 14.0273 93.1016 13.5195V15.5215C92.6914 15.7624 92.252 15.9349 91.7832 16.0391C91.321 16.1432 90.7578 16.1953 90.0938 16.1953ZM100.357 16.1953C98.6777 16.1953 97.3626 15.707 96.4121 14.7305C95.4681 13.7474 94.9961 12.3965 94.9961 10.6777C94.9961 8.91341 95.4355 7.52669 96.3145 6.51758C97.1934 5.50846 98.401 5.00391 99.9375 5.00391C101.363 5.00391 102.49 5.43685 103.316 6.30273C104.143 7.16862 104.557 8.36003 104.557 9.87695V11.1172H97.3594C97.3919 12.1654 97.6751 12.9727 98.209 13.5391C98.7428 14.099 99.4948 14.3789 100.465 14.3789C101.103 14.3789 101.695 14.3203 102.242 14.2031C102.796 14.0794 103.388 13.8776 104.02 13.5977V15.4629C103.46 15.7298 102.893 15.9186 102.32 16.0293C101.747 16.14 101.093 16.1953 100.357 16.1953ZM99.9375 6.74219C99.2083 6.74219 98.6224 6.97331 98.1797 7.43555C97.7435 7.89779 97.4831 8.57161 97.3984 9.45703H102.301C102.288 8.5651 102.073 7.89128 101.656 7.43555C101.24 6.97331 100.667 6.74219 99.9375 6.74219ZM116.666 16H114.361V9.35938C114.361 8.52604 114.192 7.9043 113.854 7.49414C113.521 7.08398 112.991 6.87891 112.262 6.87891C111.292 6.87891 110.582 7.16536 110.133 7.73828C109.684 8.3112 109.459 9.27148 109.459 10.6191V16H107.164V5.19922H108.961L109.283 6.61523H109.4C109.726 6.10091 110.188 5.70378 110.787 5.42383C111.386 5.14388 112.05 5.00391 112.779 5.00391C115.37 5.00391 116.666 6.32227 116.666 8.95898V16ZM123.883 14.3398C124.443 14.3398 125.003 14.252 125.562 14.0762V15.8047C125.309 15.9154 124.98 16.0065 124.576 16.0781C124.179 16.1562 123.766 16.1953 123.336 16.1953C121.161 16.1953 120.074 15.0495 120.074 12.7578V6.9375H118.6V5.92188L120.182 5.08203L120.963 2.79688H122.379V5.19922H125.455V6.9375H122.379V12.7188C122.379 13.2721 122.516 13.6823 122.789 13.9492C123.069 14.2096 123.434 14.3398 123.883 14.3398ZM133.209 5.00391C133.671 5.00391 134.052 5.03646 134.352 5.10156L134.127 7.24023C133.801 7.16211 133.463 7.12305 133.111 7.12305C132.193 7.12305 131.448 7.42253 130.875 8.02148C130.309 8.62044 130.025 9.39844 130.025 10.3555V16H127.73V5.19922H129.527L129.83 7.10352H129.947C130.305 6.45898 130.771 5.94792 131.344 5.57031C131.923 5.19271 132.545 5.00391 133.209 5.00391ZM143.98 16L143.658 14.584H143.541C143.222 15.0853 142.766 15.4792 142.174 15.7656C141.588 16.0521 140.917 16.1953 140.162 16.1953C138.854 16.1953 137.877 15.8698 137.232 15.2188C136.588 14.5677 136.266 13.5814 136.266 12.2598V5.19922H138.58V11.8594C138.58 12.6862 138.749 13.3079 139.088 13.7246C139.426 14.1348 139.957 14.3398 140.68 14.3398C141.643 14.3398 142.35 14.0534 142.799 13.4805C143.255 12.901 143.482 11.9342 143.482 10.5801V5.19922H145.787V16H143.98ZM158.16 16H155.855V9.33984C155.855 8.51302 155.699 7.89779 155.387 7.49414C155.074 7.08398 154.586 6.87891 153.922 6.87891C153.036 6.87891 152.385 7.16862 151.969 7.74805C151.559 8.32096 151.354 9.27799 151.354 10.6191V16H149.059V5.19922H150.855L151.178 6.61523H151.295C151.594 6.10091 152.027 5.70378 152.594 5.42383C153.167 5.14388 153.795 5.00391 154.479 5.00391C156.139 5.00391 157.239 5.57031 157.779 6.70312H157.936C158.255 6.16927 158.704 5.7526 159.283 5.45312C159.863 5.15365 160.527 5.00391 161.275 5.00391C162.564 5.00391 163.502 5.32943 164.088 5.98047C164.68 6.63151 164.977 7.62435 164.977 8.95898V16H162.682V9.33984C162.682 8.51302 162.522 7.89779 162.203 7.49414C161.891 7.08398 161.402 6.87891 160.738 6.87891C159.846 6.87891 159.192 7.15885 158.775 7.71875C158.365 8.27214 158.16 9.125 158.16 10.2773V16ZM170.562 13.9004C170.25 15.1113 169.677 16.6706 168.844 18.5781H167.154C167.604 16.8203 167.939 15.1862 168.16 13.6758H170.416L170.562 13.9004ZM185.943 16H177.75V14.584L183.209 6.95703H178.082V5.19922H185.787V6.80078L180.445 14.2422H185.943V16ZM187.955 14.7793C187.955 14.304 188.079 13.9395 188.326 13.6855C188.574 13.4316 188.932 13.3047 189.4 13.3047C189.876 13.3047 190.237 13.4382 190.484 13.7051C190.732 13.9655 190.855 14.3236 190.855 14.7793C190.855 15.2415 190.729 15.6094 190.475 15.8828C190.227 16.1497 189.869 16.2832 189.4 16.2832C188.932 16.2832 188.574 16.1497 188.326 15.8828C188.079 15.6159 187.955 15.248 187.955 14.7793ZM206.617 16L206.295 14.584H206.178C205.859 15.0853 205.403 15.4792 204.811 15.7656C204.225 16.0521 203.554 16.1953 202.799 16.1953C201.49 16.1953 200.514 15.8698 199.869 15.2188C199.225 14.5677 198.902 13.5814 198.902 12.2598V5.19922H201.217V11.8594C201.217 12.6862 201.386 13.3079 201.725 13.7246C202.063 14.1348 202.594 14.3398 203.316 14.3398C204.28 14.3398 204.986 14.0534 205.436 13.4805C205.891 12.901 206.119 11.9342 206.119 10.5801V5.19922H208.424V16H206.617ZM202.252 3.88086V3.63672C202.623 3.18099 203.004 2.67318 203.395 2.11328C203.792 1.55339 204.104 1.07487 204.332 0.677734H206.998V0.882812C206.66 1.27995 206.152 1.79427 205.475 2.42578C204.804 3.05078 204.238 3.53581 203.775 3.88086H202.252ZM211.354 14.7793C211.354 14.304 211.477 13.9395 211.725 13.6855C211.972 13.4316 212.33 13.3047 212.799 13.3047C213.274 13.3047 213.635 13.4382 213.883 13.7051C214.13 13.9655 214.254 14.3236 214.254 14.7793C214.254 15.2415 214.127 15.6094 213.873 15.8828C213.626 16.1497 213.268 16.2832 212.799 16.2832C212.33 16.2832 211.972 16.1497 211.725 15.8828C211.477 15.6159 211.354 15.248 211.354 14.7793Z" fill="#4B4B4B"/>
</svg>
