<svg width="43" height="42" viewBox="0 0 43 42" fill="none" xmlns="http://www.w3.org/2000/svg">
<path fill-rule="evenodd" clip-rule="evenodd" d="M23.8087 1.46498C22.9864 1.36378 22.2378 1.94828 22.1366 2.77051C22.0354 3.59273 22.6199 4.34131 23.4422 4.44251L25.6487 4.7141L25.2777 7.72836C17.3276 7.31766 10.2532 13.4307 9.21871 21.8352C8.13922 30.6056 14.0458 38.5501 22.4114 39.5798C30.777 40.6094 38.4337 34.3343 39.5132 25.564C40.5517 17.1269 35.125 9.4542 27.2635 7.96647L27.6337 4.95842L29.9317 5.24126C30.7539 5.34246 31.5025 4.75796 31.6037 3.93574C31.7049 3.11351 31.1204 2.36493 30.2982 2.26373L23.8087 1.46498ZM26.1984 13.9652C26.2996 13.143 25.7151 12.3944 24.8929 12.2932C24.0707 12.192 23.3221 12.7765 23.2209 13.5987L21.9379 24.0228C21.6623 26.2618 24.2591 27.6918 26.0038 26.2618L30.4856 22.5888C31.1263 22.0637 31.22 21.1186 30.6949 20.4779C30.1698 19.8371 29.2247 19.7434 28.5839 20.2685L25.0679 23.1501L26.1984 13.9652Z" fill="#40AB98"/>
<line x1="1" y1="22.6318" x2="13" y2="22.6318" stroke="black" stroke-width="2" stroke-linecap="round"/>
<line x1="5" y1="17.6318" x2="15" y2="17.6318" stroke="black" stroke-width="2" stroke-linecap="round"/>
<line x1="5" y1="27.6318" x2="15" y2="27.6318" stroke="black" stroke-width="2" stroke-linecap="round"/>
</svg>
