<svg width="42" height="42" viewBox="0 0 42 42" fill="none" xmlns="http://www.w3.org/2000/svg">
<path d="M1 26.8333L3.40385 24.75M26 26.8333L23.5962 24.75M3.40385 24.75L13.5 16L23.5962 24.75M3.40385 24.75V41M23.5962 24.75V41" stroke="black" stroke-linecap="round"/>
<path d="M18 20V1H41V41" stroke="black" stroke-linecap="round"/>
<line x1="21.5" y1="4" x2="21.5" y2="7" stroke="black"/>
<line x1="21.5" y1="10" x2="21.5" y2="13" stroke="black"/>
<line x1="21.5" y1="16" x2="21.5" y2="19" stroke="black"/>
<line x1="29.5" y1="4" x2="29.5" y2="7" stroke="black"/>
<line x1="29.5" y1="10" x2="29.5" y2="13" stroke="black"/>
<line x1="29.5" y1="16" x2="29.5" y2="19" stroke="black"/>
<line x1="29.5" y1="22" x2="29.5" y2="25" stroke="black"/>
<line x1="29.5" y1="28" x2="29.5" y2="31" stroke="black"/>
<line x1="29.5" y1="34" x2="29.5" y2="37" stroke="black"/>
<line x1="25.5" y1="4" x2="25.5" y2="7" stroke="black"/>
<line x1="25.5" y1="10" x2="25.5" y2="13" stroke="black"/>
<line x1="25.5" y1="16" x2="25.5" y2="19" stroke="black"/>
<line x1="25.5" y1="22" x2="25.5" y2="25" stroke="black"/>
<line x1="25.5" y1="28" x2="25.5" y2="31" stroke="black"/>
<line x1="25.5" y1="34" x2="25.5" y2="37" stroke="black"/>
<line x1="33.5" y1="4" x2="33.5" y2="7" stroke="black"/>
<line x1="33.5" y1="10" x2="33.5" y2="13" stroke="black"/>
<line x1="33.5" y1="16" x2="33.5" y2="19" stroke="black"/>
<line x1="33.5" y1="22" x2="33.5" y2="25" stroke="black"/>
<line x1="33.5" y1="28" x2="33.5" y2="31" stroke="black"/>
<line x1="33.5" y1="34" x2="33.5" y2="37" stroke="black"/>
<line x1="37.5" y1="4" x2="37.5" y2="7" stroke="black"/>
<line x1="37.5" y1="10" x2="37.5" y2="13" stroke="black"/>
<line x1="37.5" y1="16" x2="37.5" y2="19" stroke="black"/>
<line x1="37.5" y1="22" x2="37.5" y2="25" stroke="black"/>
<line x1="37.5" y1="28" x2="37.5" y2="31" stroke="black"/>
<line x1="37.5" y1="34" x2="37.5" y2="37" stroke="black"/>
</svg>
