<svg width="38" height="40" viewBox="0 0 38 40" fill="none" xmlns="http://www.w3.org/2000/svg">
<circle cx="18.5" cy="3.5" r="3.5" fill="black"/>
<line x1="18.5" y1="11.5" x2="18.5" y2="23.5" stroke="black" stroke-width="5" stroke-linecap="round"/>
<line x1="20" y1="24" x2="20" y2="39" stroke="black" stroke-width="2" stroke-linecap="round"/>
<line x1="17" y1="24" x2="17" y2="39" stroke="black" stroke-width="2" stroke-linecap="round"/>
<line x1="20.343" y1="10.628" x2="28.628" y2="5.657" stroke="black" stroke-width="2" stroke-linecap="round"/>
<line x1="1" y1="-1" x2="10.6619" y2="-1" transform="matrix(-0.857493 -0.514496 -0.514496 0.857493 17 12)" stroke="black" stroke-width="2" stroke-linecap="round"/>
<path fill-rule="evenodd" clip-rule="evenodd" d="M32.0063 5.90369C31.8795 5.65838 31.5778 5.56232 31.3325 5.68913C31.0872 5.81593 30.9911 6.11759 31.1179 6.36289L31.8067 7.69539L30.9184 8.15459L34.592 15.2612L37.257 13.8836L33.5834 6.77698L32.6951 7.23619L32.0063 5.90369Z" fill="#40AB98"/>
<path fill-rule="evenodd" clip-rule="evenodd" d="M5.25155 5.90369C5.37835 5.65838 5.68001 5.56232 5.92532 5.68913C6.17062 5.81593 6.26668 6.11759 6.13988 6.36289L5.45108 7.69539L6.33941 8.15459L2.66579 15.2612L0.000790715 13.8836L3.67441 6.77698L4.56274 7.23619L5.25155 5.90369Z" fill="#40AB98"/>
</svg>
