<svg width="50" height="46" viewBox="0 0 50 46" fill="none" xmlns="http://www.w3.org/2000/svg">
<path d="M43.0732 15.2582C42.0455 15.2582 41.2159 16.084 41.2159 17.107C41.2159 18.13 42.0455 18.9558 43.0732 18.9558C44.5342 18.9558 45.7166 20.139 45.7166 21.5872C45.7166 23.0354 44.528 24.2186 43.0732 24.2186C42.5284 24.2186 42.0207 24.0522 41.5936 23.7688C40.8383 16.1333 34.1708 10.2912 26.3456 10.2912H19.7772C18.2419 10.2912 16.7623 10.5192 15.3694 10.9506C13.6793 8.52255 10.5467 7.36399 7.56898 8.30686C6.60322 8.60883 6.07081 9.63798 6.38035 10.5993L8.07043 15.9053C7.29039 16.8728 6.62179 17.939 6.10176 19.079C5.58174 20.2191 4.47358 20.9771 3.21685 20.9771H2.17061C1.01293 20.9771 0.078125 21.9077 0.078125 23.0601V28.8097C0.078125 29.9621 1.01293 30.8927 2.17061 30.8927H3.9226C5.05552 30.8927 6.10795 31.5028 6.65893 32.4888C7.59374 34.165 8.85047 35.6379 10.3363 36.8396C9.51908 38.3925 9.04858 40.1612 9.04858 42.0346C9.04858 43.7355 10.4353 45.1159 12.144 45.1159C13.8526 45.1159 15.2394 43.7355 15.2394 42.0346C15.2394 41.1719 15.456 40.3584 15.8399 39.6497C17.0966 39.9887 18.4152 40.1735 19.7772 40.1735H26.6676C28.401 40.1735 30.0663 39.8777 31.614 39.3354C32.1093 40.1181 32.4002 41.0425 32.4002 42.0346C32.4002 43.7355 33.787 45.1159 35.4956 45.1159C37.2043 45.1159 38.591 43.7355 38.591 42.0346C38.591 39.8777 37.9658 37.8687 36.9071 36.1555C39.2658 33.9617 40.9126 31.0159 41.4697 27.7005C41.9836 27.8361 42.5222 27.9162 43.0793 27.9162C46.5895 27.9162 49.4373 25.0752 49.4373 21.5872C49.4373 18.0992 46.5833 15.2582 43.0732 15.2582Z" fill="#289AA1"/>
<path d="M27.2868 17.5325H19.1522C18.1245 17.5325 17.2949 16.7067 17.2949 15.6837C17.2949 14.6607 18.1245 13.835 19.1522 13.835H27.2868C28.3145 13.835 29.1441 14.6607 29.1441 15.6837C29.1441 16.7067 28.3145 17.5325 27.2868 17.5325Z" fill="white"/>
<path d="M23.2193 12.0786C26.57 12.0786 29.2863 9.37475 29.2863 6.03932C29.2863 2.7039 26.57 0 23.2193 0C19.8686 0 17.1523 2.7039 17.1523 6.03932C17.1523 9.37475 19.8686 12.0786 23.2193 12.0786Z" fill="#542A7A"/>
</svg>
