<svg width="57" height="42" viewBox="0 0 57 42" fill="none" xmlns="http://www.w3.org/2000/svg">
<path d="M28.9753 18.4455H11.0522C10.0301 18.4455 9.20508 17.6191 9.20508 16.5953C9.20508 15.5715 10.0301 14.7451 11.0522 14.7451H28.9753C29.9973 14.7451 30.8224 15.5715 30.8224 16.5953C30.8224 17.6191 29.9973 18.4455 28.9753 18.4455Z" fill="#55237C"/>
<path d="M26.1858 26.5256H1.84711C0.825041 26.5256 0 25.6992 0 24.6754C0 23.6516 0.825041 22.8252 1.84711 22.8252H26.1858C27.2079 22.8252 28.0329 23.6516 28.0329 24.6754C28.0329 25.6992 27.2017 26.5256 26.1858 26.5256Z" fill="#55237C"/>
<path d="M28.9753 34.6106H11.0522C10.0301 34.6106 9.20508 33.7841 9.20508 32.7604C9.20508 31.7366 10.0301 30.9102 11.0522 30.9102H28.9753C29.9973 30.9102 30.8224 31.7366 30.8224 32.7604C30.8224 33.7841 29.9973 34.6106 28.9753 34.6106Z" fill="#55237C"/>
<path d="M41.5114 7.87572V5.20526H43.5432C44.9778 5.20526 46.1415 4.03962 46.1415 2.60263C46.1415 1.16563 44.9778 0 43.5432 0H35.8223C34.3877 0 33.224 1.16563 33.224 2.60263C33.224 4.03962 34.3877 5.20526 35.8223 5.20526H37.8172V7.88189C29.3759 8.81316 22.8125 15.9735 22.8125 24.6756C22.8125 34.0068 30.3672 41.5742 39.6827 41.5742C49.0045 41.5742 56.553 34.0068 56.553 24.6756C56.553 15.9611 49.9711 8.78849 41.5114 7.87572Z" fill="#289AA1"/>
<path d="M47.4328 30.1527C47.168 30.1527 46.9033 30.0972 46.6508 29.98L38.8991 26.3475C38.2465 26.0453 37.834 25.3915 37.834 24.6699V13.1246C37.834 12.1008 38.659 11.2744 39.6811 11.2744C40.7032 11.2744 41.5282 12.1008 41.5282 13.1246V23.492L48.2147 26.625C49.1383 27.0567 49.5385 28.1607 49.1075 29.0858C48.7935 29.758 48.1224 30.1527 47.4328 30.1527Z" fill="white"/>
</svg>
