<svg width="54" height="46" viewBox="0 0 54 46" fill="none" xmlns="http://www.w3.org/2000/svg">
<path d="M34.8644 23.0717H19.5174C18.4897 23.0717 17.6602 22.2328 17.6602 21.1936V9.73085C17.6602 4.41577 21.938 0.0898438 27.194 0.0898438C32.4499 0.0898438 36.7278 4.41577 36.7278 9.73085V21.1936C36.7216 22.2328 35.892 23.0717 34.8644 23.0717ZM21.3746 19.3155H33.0071V9.73085C33.0071 6.48796 30.3946 3.84608 27.1878 3.84608C23.9809 3.84608 21.3684 6.48796 21.3684 9.73085V19.3155H21.3746Z" fill="#55237C"/>
<path d="M36.853 39.8306H17.8473C15.21 39.8306 13.0742 37.6707 13.0742 35.0038V18.4889C13.0742 15.8219 15.21 13.6621 17.8473 13.6621H36.853C39.4903 13.6621 41.6261 15.8219 41.6261 18.4889V35.0038C41.6261 37.6707 39.4903 39.8306 36.853 39.8306Z" fill="#289AA1"/>
<path d="M31.1316 23.0028C31.1316 20.8868 29.4353 19.1777 27.349 19.1777C25.2627 19.1777 23.5664 20.8931 23.5664 23.0028C23.5664 24.4302 24.3464 25.676 25.4917 26.3334V31.7048C25.4917 32.744 26.3213 33.5829 27.349 33.5829C28.3767 33.5829 29.2062 32.744 29.2062 31.7048V26.3334C30.3577 25.6823 31.1316 24.4365 31.1316 23.0028Z" fill="white"/>
<path d="M8.18917 27.9799H2.13458C1.10691 27.9799 0.277344 27.141 0.277344 26.1018C0.277344 25.0625 1.10691 24.2236 2.13458 24.2236H8.18917C9.21684 24.2236 10.0464 25.0625 10.0464 26.1018C10.0464 27.141 9.21684 27.9799 8.18917 27.9799Z" fill="#55237C"/>
<path d="M51.8646 27.9799H46.5096C45.4819 27.9799 44.6523 27.141 44.6523 26.1018C44.6523 25.0625 45.4819 24.2236 46.5096 24.2236H51.8646C52.8923 24.2236 53.7219 25.0625 53.7219 26.1018C53.7219 27.141 52.8861 27.9799 51.8646 27.9799Z" fill="#55237C"/>
<path d="M43.3713 11.7784C42.8946 11.7784 42.4179 11.5969 42.0589 11.2275C41.3345 10.4951 41.3345 9.30558 42.0589 8.57312L43.7675 6.84525C44.4918 6.11278 45.6681 6.11278 46.3924 6.84525C47.1167 7.57771 47.1167 8.76719 46.3924 9.49965L44.6838 11.2275C44.3185 11.5969 43.8418 11.7784 43.3713 11.7784Z" fill="#55237C"/>
<path d="M11.328 11.7784C10.8513 11.7784 10.3746 11.5969 10.0156 11.2275L8.30691 9.49965C7.58259 8.76719 7.58259 7.57771 8.30691 6.84525C9.03124 6.11278 10.2075 6.11278 10.9318 6.84525L12.6405 8.57312C13.3648 9.30558 13.3648 10.4951 12.6405 11.2275C12.2814 11.5969 11.8047 11.7784 11.328 11.7784Z" fill="#55237C"/>
<path d="M9.61936 45.9093C9.14267 45.9093 8.66598 45.7277 8.30691 45.3584C7.58259 44.6259 7.58259 43.4364 8.30691 42.704L10.0156 40.9761C10.7399 40.2436 11.9161 40.2436 12.6405 40.9761C13.3648 41.7086 13.3648 42.898 12.6405 43.6305L10.9318 45.3584C10.5666 45.7215 10.0961 45.9093 9.61936 45.9093Z" fill="#55237C"/>
<path d="M45.08 45.9093C44.6033 45.9093 44.1266 45.7277 43.7675 45.3584L42.0589 43.6305C41.3345 42.898 41.3345 41.7086 42.0589 40.9761C42.7832 40.2436 43.9594 40.2436 44.6838 40.9761L46.3924 42.704C47.1167 43.4364 47.1167 44.6259 46.3924 45.3584C46.0272 45.7215 45.5567 45.9093 45.08 45.9093Z" fill="#55237C"/>
</svg>
