<svg width="619" height="902" viewBox="0 0 619 902" fill="none" xmlns="http://www.w3.org/2000/svg">
<path d="M492.131 278.448L494.8 271.884L521.593 275.333C524.484 275.778 527.485 274.999 529.82 273.33L542.383 264.32C544.384 262.873 544.829 260.203 543.495 258.201L539.715 252.416C539.048 251.415 537.825 251.081 536.824 251.526L522.816 257.867L504.361 254.752L515.812 250.302C517.257 249.746 517.812 248.189 517.257 246.743C516.813 245.741 515.812 245.186 514.7 245.186L497.356 246.297C496.578 246.297 495.8 246.52 495.133 246.965L485.127 252.528C483.126 253.64 481.458 255.42 480.458 257.422L474.676 269.214L492.131 278.448Z" fill="#FFD7CE"/>
<path d="M510.921 256.977C510.81 256.977 510.81 256.977 510.698 256.977C506.474 255.975 494.689 253.862 491.354 255.865C490.798 256.199 490.131 255.975 489.797 255.531C489.464 255.086 489.686 254.307 490.131 253.973C494.689 251.192 509.364 254.53 511.033 254.864C511.588 254.974 512.032 255.642 511.922 256.199C511.922 256.643 511.477 256.977 510.921 256.977Z" fill="#FFA8A8"/>
<path d="M525.485 269.66L508.475 266.879C507.919 266.767 507.474 266.211 507.586 265.656C507.696 265.099 508.252 264.654 508.808 264.765L524.929 267.324L537.825 258.758C538.381 258.424 539.048 258.536 539.382 259.092C539.715 259.647 539.605 260.316 539.049 260.65L525.485 269.66Z" fill="#FFA8A8"/>
<path d="M523.927 264.654L507.028 261.873C506.472 261.761 506.027 261.206 506.138 260.649C506.25 260.093 506.806 259.647 507.362 259.759L523.482 262.429L535.6 255.754C536.156 255.421 536.823 255.643 537.157 256.2C537.49 256.755 537.268 257.423 536.712 257.757L523.927 264.654Z" fill="#FFA8A8"/>
<path d="M400.076 847.364C400.076 847.364 405.19 869.947 406.635 876.956C406.747 876.733 425.091 876.4 425.091 876.4C425.091 876.4 421.978 839.243 420.421 828.229C420.421 828.563 400.076 847.364 400.076 847.364Z" fill="#7CACD1"/>
<path d="M24.8376 295.489C-49.9841 136.518 64.0828 -11.3293 197.272 0.685339C351.918 14.7024 296.998 146.975 365.593 222.734C434.189 298.493 689.339 296.157 600.175 463.694C545.921 565.596 336.576 665.607 193.826 613.321C51.0753 561.035 73.1993 398.281 24.8376 295.489Z" fill="url(#paint0_linear)"/>
<path d="M310.025 854.038C310.025 854.038 307.913 873.061 307.468 875.843C307.579 875.731 288.234 875.843 288.234 875.843L289.013 852.035L310.025 854.038Z" fill="#7CACD1"/>
<path d="M167.273 291.352L163.827 285.678L141.925 292.687C139.257 293.577 136.478 293.355 133.92 292.131L120.802 285.678C118.801 284.677 117.8 282.23 118.801 280.117L121.358 274.22C121.803 273.219 122.914 272.663 123.914 272.997L137.923 276.668L154.599 270.883L143.26 268.547C141.925 268.213 141.035 266.878 141.37 265.543C141.591 264.542 142.481 263.763 143.481 263.763L159.825 262.094C160.602 261.983 161.27 262.094 162.048 262.317L172.276 265.988C174.388 266.766 176.168 268.101 177.39 269.881L184.617 280.005L167.273 291.352Z" fill="#FFD7CE"/>
<path d="M148.706 273.998C148.262 273.998 147.817 273.776 147.706 273.33C147.484 272.774 147.706 272.107 148.262 271.884C149.707 271.216 162.937 265.877 167.607 267.768C168.163 267.991 168.496 268.658 168.273 269.214C168.052 269.771 167.384 270.105 166.828 269.882C163.937 268.769 154.376 271.773 149.151 273.998C148.929 273.998 148.818 273.998 148.706 273.998Z" fill="#FFA8A8"/>
<path d="M137.368 288.126L123.249 281.785C122.693 281.562 122.47 280.895 122.693 280.339C122.914 279.782 123.582 279.56 124.138 279.782L137.479 285.79L152.043 280.784C152.599 280.561 153.266 280.895 153.488 281.452C153.711 282.007 153.377 282.675 152.822 282.897L137.368 288.126Z" fill="#FFA8A8"/>
<path d="M138.033 283.121L125.025 278.56C124.47 278.337 124.136 277.67 124.359 277.114C124.581 276.558 125.248 276.224 125.804 276.447L138.033 280.673L152.598 275.667C153.154 275.445 153.82 275.779 154.043 276.335C154.265 276.892 153.932 277.559 153.376 277.781L138.033 283.121Z" fill="#FFA8A8"/>
<path d="M264.219 429.521L279.895 854.039H320.363L327.367 505.725L387.513 866.387L424.98 862.16L387.958 426.963L264.219 429.521Z" fill="#575756"/>
<path d="M279.672 864.94H320.252L327.367 505.724L314.137 428.52L264.219 429.521L279.672 864.94Z" fill="#4B4B4B"/>
<path d="M305.799 423.069L327.256 421.178L332.703 484.589C320.808 485.59 310.357 476.801 309.356 464.897L305.799 423.069Z" fill="#575756"/>
<path d="M262.773 427.852L389.403 426.072L389.848 435.528L263.552 437.308L262.773 427.852Z" fill="#232323"/>
<path d="M340.542 424.543L335.764 424.706L336.308 440.605L341.085 440.441L340.542 424.543Z" fill="#4B4B4B"/>
<path d="M303.631 424.318L298.854 424.481L299.397 440.38L304.175 440.216L303.631 424.318Z" fill="#575756"/>
<path d="M375.226 423.318L370.449 423.481L370.992 439.381L375.77 439.217L375.226 423.318Z" fill="#4B4B4B"/>
<path d="M272.167 424.32L267.389 424.484L267.932 440.383L272.71 440.219L272.167 424.32Z" fill="#575756"/>
<path d="M472.008 267.88C460.89 282.232 445.881 305.593 437.766 334.628C437.766 335.073 423.646 303.368 411.528 284.011C399.521 264.654 397.408 249.747 342.487 252.195L323.699 251.75C303.909 252.862 274.447 255.754 263.329 270.106C252.213 284.568 229.755 325.506 226.085 345.307C226.308 345.976 217.636 318.052 205.962 298.473C200.071 288.683 187.174 276.891 187.174 276.891L161.381 292.021C161.381 292.021 168.608 301.143 176.056 314.047C186.285 331.736 193.066 352.539 196.179 362.774C199.292 373.008 206.963 398.928 223.418 398.928C239.871 398.928 255.658 377.124 258.772 354.43C258.883 354.541 258.66 356.766 258.994 360.215C258.994 360.215 258.994 407.94 261.44 430.412L391.405 429.188C391.405 429.188 389.182 349.647 391.182 326.173C391.293 325.172 391.516 324.394 391.627 323.726C391.85 323.726 409.638 353.429 414.863 364.553C420.088 375.678 427.092 392.032 443.657 392.811C460.335 393.589 470.006 363.664 475.787 344.863C480.568 329.288 490.129 297.249 498.801 277.336L472.008 267.88Z" fill="#1C669B"/>
<path d="M223.419 399.151C228.533 399.151 233.535 397.037 238.094 393.477C235.092 389.027 230.089 386.135 224.308 386.135C218.749 386.135 213.746 388.916 210.744 393.143C214.191 396.703 218.415 399.151 223.419 399.151Z" fill="#7CACD1"/>
<path d="M431.541 389.139C434.876 391.475 438.879 393.032 443.659 393.255C449.106 393.477 453.775 390.474 457.778 385.69C454.776 382.686 450.552 380.796 445.994 380.796C439.768 380.684 434.431 384.133 431.541 389.139Z" fill="#7CACD1"/>
<path d="M288.457 870.947C288.457 871.059 233.869 889.971 233.869 889.971V894.865H313.582V885.743C313.582 885.076 313.471 884.408 313.249 883.741L308.246 870.947H288.457Z" fill="black"/>
<path d="M313.582 889.971H233.869V895.867H313.582V889.971Z" fill="#575756"/>
<path d="M329.369 276.557C341.71 276.557 351.827 266.545 351.827 254.086V251.972C348.936 251.972 345.823 252.083 342.599 252.195L323.81 251.75C318.696 251.972 312.915 252.417 307.022 253.084V253.974C306.912 266.545 317.028 276.557 329.369 276.557Z" fill="#7CACD1"/>
<path d="M344.6 234.395V253.306C344.6 261.76 337.818 268.547 329.369 268.547C320.919 268.547 314.137 261.76 314.137 253.306V234.395H344.6Z" fill="#FFD7CE"/>
<path d="M344.6 241.069V234.395H314.137V253.307C331.036 254.308 340.264 246.409 344.6 241.069Z" fill="#F8CBC5"/>
<path d="M306.689 217.374C298.351 217.374 292.348 216.485 292.348 210.254C292.348 204.025 300.129 203.914 304.688 203.914L306.689 217.374Z" fill="#FFD7CE"/>
<path d="M352.494 217.374C360.833 217.374 366.836 216.485 366.836 210.254C366.836 204.025 359.053 203.914 354.495 203.914L352.494 217.374Z" fill="#FFD7CE"/>
<path d="M358.496 211.032C365.39 201.021 367.168 183.333 359.831 171.541C352.493 159.637 339.597 155.298 328.034 155.187C316.361 154.965 295.46 165.422 294.237 186.447C293.014 207.473 300.13 212.145 300.13 212.145L358.496 211.032Z" fill="#FF7F53"/>
<path d="M363.833 181.886C363.611 180.662 363.278 179.439 362.943 178.214L349.936 174.766L354.717 185.668C360.053 185.112 362.499 183.443 363.833 181.886Z" fill="#F9724E"/>
<path d="M298.572 194.679C298.572 207.138 300.351 219.932 305.132 227.941C310.69 237.287 318.806 245.408 329.368 245.408C339.93 245.408 348.046 237.287 353.604 227.941C358.385 219.932 360.164 207.138 360.164 194.679C360.164 182.219 349.936 164.42 329.924 164.42C309.912 164.42 298.572 177.213 298.572 194.679Z" fill="#FFD7CE"/>
<path d="M328.812 201.688L325.477 215.594C325.254 216.706 325.81 217.707 326.7 217.707H330.258C331.036 217.707 331.592 216.929 331.592 216.038L331.369 202.133C331.258 200.242 329.257 199.797 328.812 201.688Z" fill="#FFA8A8"/>
<path d="M301.464 178.771C301.464 178.771 292.013 183.332 311.691 181.997C331.37 180.662 327.701 161.639 327.701 161.639L301.464 178.771Z" fill="#F8CBC5"/>
<path d="M318.586 208.251C319.507 208.251 320.253 207.505 320.253 206.582C320.253 205.661 319.507 204.914 318.586 204.914C317.664 204.914 316.918 205.661 316.918 206.582C316.918 207.505 317.664 208.251 318.586 208.251Z" fill="#1C1C1B"/>
<path d="M340.375 208.363C341.296 208.363 342.042 207.616 342.042 206.694C342.042 205.773 341.296 205.025 340.375 205.025C339.453 205.025 338.707 205.773 338.707 206.694C338.707 207.616 339.453 208.363 340.375 208.363Z" fill="#1C1C1B"/>
<path d="M312.47 200.13C312.36 198.907 312.693 197.905 313.249 197.126C313.805 196.347 314.694 195.791 315.584 195.458C316.584 195.124 317.695 195.235 318.696 195.68C319.697 196.125 320.476 197.015 320.586 198.239L320.476 198.461C320.141 198.35 319.808 198.128 319.475 198.016L318.919 197.905L318.363 197.794C317.695 197.682 316.917 197.794 316.25 198.016C315.584 198.239 314.916 198.573 314.25 198.907C313.582 199.24 313.026 199.685 312.47 200.242V200.13Z" fill="#FF7F53"/>
<path d="M345.934 204.023C345.379 203.467 344.823 203.022 344.267 202.688C343.711 202.244 343.044 201.91 342.377 201.687C341.71 201.465 341.043 201.353 340.264 201.353H339.709L339.153 201.465C338.819 201.465 338.486 201.687 338.152 201.799L338.041 201.576C338.264 200.464 339.042 199.574 340.042 199.129C341.043 198.683 342.266 198.683 343.155 199.017C344.156 199.351 344.934 200.018 345.489 200.797C346.045 201.576 346.379 202.578 346.157 203.801L345.934 204.023Z" fill="#FF7F53"/>
<path d="M322.03 225.94C321.809 225.94 321.475 225.828 321.364 225.494C321.253 225.161 321.364 224.715 321.697 224.605C327.923 222.157 335.928 222.825 336.262 222.936C336.595 222.936 336.928 223.27 336.928 223.714C336.928 224.048 336.595 224.382 336.15 224.382C336.039 224.382 328.146 223.604 322.253 225.94C322.142 225.94 322.142 225.94 322.03 225.94Z" fill="#FFA8A8"/>
<path d="M297.795 214.481C296.573 214.481 295.016 214.037 294.238 212.257C293.014 209.809 294.683 208.03 295.683 207.473C296.016 207.251 296.461 207.362 296.573 207.696C296.794 208.03 296.684 208.474 296.35 208.586C296.128 208.697 294.46 209.809 295.46 211.701C296.461 213.703 298.462 213.146 298.574 213.036C298.907 212.924 299.352 213.146 299.463 213.48C299.575 213.814 299.352 214.259 299.019 214.371C298.574 214.481 298.24 214.481 297.795 214.481Z" fill="#FFA8A8"/>
<path d="M360.498 214.481C360.053 214.481 359.719 214.371 359.386 214.371C359.053 214.259 358.83 213.925 358.941 213.48C359.053 213.146 359.386 212.924 359.831 213.036C360.053 213.146 362.054 213.592 362.943 211.701C363.833 209.809 362.165 208.697 362.054 208.586C361.721 208.364 361.609 207.918 361.832 207.696C362.054 207.362 362.388 207.251 362.721 207.473C363.722 208.14 365.389 209.921 364.167 212.257C363.277 214.037 361.721 214.481 360.498 214.481Z" fill="#FFA8A8"/>
<path d="M296.127 182.775C296.127 182.775 320.363 183.666 329.035 164.864C329.035 165.309 320.252 160.192 313.137 163.641C306.022 167.09 300.463 174.765 296.127 182.775Z" fill="#FF7F53"/>
<path d="M308.135 150.625C308.135 150.625 316.251 146.286 326.701 148.956C337.152 151.626 341.154 161.972 341.154 161.972C341.154 161.972 333.928 166.533 325.589 165.865C317.251 165.087 310.914 158.19 308.135 150.625Z" fill="#FF7F53"/>
<path d="M366.835 161.529C366.835 161.529 360.498 170.317 348.047 172.987C335.705 175.657 325.922 166.869 325.922 166.869C325.922 166.869 331.148 158.192 340.376 154.631C349.603 151.072 359.943 155.076 366.835 161.529Z" fill="#FF7F53"/>
<path d="M290.902 174.321C290.902 174.321 293.682 165.533 302.91 160.082C312.137 154.631 322.365 159.081 322.365 159.081C322.365 159.081 320.475 167.424 314.027 172.876C307.579 178.215 298.129 177.77 290.902 174.321Z" fill="#FF7F53"/>
<path d="M322.363 164.309C322.363 164.309 322.363 162.418 326.699 159.86C330.924 157.301 338.818 156.078 349.157 160.304L322.363 164.309Z" fill="#F9724E"/>
<path d="M369.171 179.327C369.171 179.327 357.497 185.891 342.377 182.442C327.257 178.993 320.92 164.198 320.92 164.198C320.92 164.198 331.148 157.3 343.266 157.967C355.495 158.858 364.835 168.648 369.171 179.327Z" fill="#FF7F53"/>
<path d="M424.535 870.947C424.535 871.059 453.885 889.971 453.885 889.971V894.865H400.076V885.743C400.076 885.076 400.187 884.408 400.409 883.741L405.746 873.173L424.535 870.947Z" fill="black"/>
<path d="M400.051 895.803H453.86V889.907H400.051V895.803Z" fill="#575756"/>
<path d="M354.717 447.432L355.05 449.101C357.496 461.56 387.069 466.121 387.069 466.121L354.717 447.432Z" fill="#4B4B4B"/>
<path d="M313.471 856.709C312.804 856.709 312.359 856.152 312.359 855.596L318.141 510.731C318.141 510.064 318.697 509.618 319.253 509.618C319.92 509.618 320.365 510.175 320.365 510.731L314.584 855.596C314.584 856.263 314.028 856.709 313.471 856.709Z" fill="#575756"/>
<path d="M320.364 855.15H279.34L279.451 857.376H320.364V855.15Z" fill="#575756"/>
<path d="M386.401 859.267L424.313 854.149L424.09 851.925L385.957 857.153L386.401 859.267Z" fill="#4B4B4B"/>
<path d="M247.875 382.908C253.323 374.899 257.326 364.887 258.77 354.541C258.77 354.541 261.995 319.276 267.887 293.133C268.11 293.578 242.539 332.292 247.875 382.908Z" fill="#1B618C"/>
<path d="M313.025 115.917V101.9C320.473 101.232 328.256 99.2302 328.256 90.9979C328.256 86.2143 325.477 84.3231 321.585 84.3231C316.805 84.3231 314.359 86.7705 313.47 92.3328L302.24 90.5529C303.464 80.8744 310.356 74.7559 322.252 74.7559C331.591 74.7559 340.485 78.7608 340.485 91.1091C340.485 100.788 334.592 106.461 324.587 108.909V115.917H313.025ZM318.695 131.936C314.136 131.936 311.913 129.934 311.913 125.818C311.913 121.813 314.136 119.588 318.695 119.588C323.253 119.588 325.476 121.813 325.476 125.818C325.476 129.712 323.253 131.936 318.695 131.936Z" fill="#FF5C57"/>
<path d="M258.215 174.877V164.865C263.552 164.42 269.111 162.973 269.111 157.078C269.111 153.629 267.11 152.294 264.33 152.294C260.884 152.294 259.216 154.074 258.55 157.967L250.434 156.744C251.323 149.736 256.214 145.396 264.776 145.396C271.446 145.396 277.894 148.289 277.894 157.189C277.894 164.086 273.669 168.202 266.443 169.983V174.989H258.215V174.877ZM262.218 186.335C258.883 186.335 257.326 184.889 257.326 181.885C257.326 178.993 258.883 177.435 262.218 177.435C265.442 177.435 267.11 178.993 267.11 181.885C267.11 184.778 265.553 186.335 262.218 186.335Z" fill="#FF5C57"/>
<path d="M382.51 164.309V151.961C389.069 151.405 395.851 149.625 395.851 142.394C395.851 138.167 393.405 136.498 389.96 136.498C385.845 136.498 383.622 138.612 382.843 143.506L372.949 141.949C374.061 133.383 380.064 128.043 390.515 128.043C398.742 128.043 406.524 131.492 406.524 142.394C406.524 150.848 401.299 155.966 392.516 157.968V164.087H382.51V164.309ZM387.402 178.327C383.399 178.327 381.398 176.547 381.398 172.987C381.398 169.538 383.399 167.536 387.402 167.536C391.405 167.536 393.405 169.538 393.405 172.987C393.405 176.435 391.405 178.327 387.402 178.327Z" fill="#FF5C57"/>
<defs>
<linearGradient id="paint0_linear" x1="444" y1="602" x2="-118" y2="-219" gradientUnits="userSpaceOnUse">
<stop stop-color="#EFEDDB"/>
<stop offset="1" stop-color="#EFEDDB" stop-opacity="0"/>
</linearGradient>
</defs>
</svg>
