<svg width="295" height="278" viewBox="0 0 295 278" fill="none" xmlns="http://www.w3.org/2000/svg">
<path d="M157.671 32.6227C159.618 32.1754 161.212 30.7905 161.733 28.8619C163.276 23.1501 165.383 10.8456 157.256 4.59681C146.454 -3.70928 133.146 0.443764 128.371 7.55321C123.465 14.9273 124.175 23.0404 132.103 35.4062C133.168 37.0681 134.994 37.7954 136.92 37.3621C142.091 36.1987 152.476 33.8161 157.671 32.6227Z" fill="#FF7F53"/>
<path d="M131.481 34.6534C131.65 34.935 131.843 35.2017 132.057 35.4504C132.067 35.4625 132.078 35.4747 132.088 35.4869C133.442 37.0562 135.549 37.7006 137.57 37.2414C140.552 36.5641 144.836 35.57 148.904 34.6318C149.044 34.5996 149.186 34.5541 149.318 34.4999C151.33 33.6774 151.425 31.0576 149.402 30.2631C146.25 29.0256 141.78 27.6549 136.121 26.8649C131.872 26.2717 129.049 30.5474 131.235 34.2391C131.316 34.3767 131.398 34.5148 131.481 34.6534Z" fill="#F46E53"/>
<path d="M12.9077 188.95C-12.9246 137.353 2.88792 76.6767 44.2196 50.069C85.5513 23.4614 133.458 61.2611 182.618 39.5105C231.778 17.7598 322.66 66.6108 285.947 146.997C249.234 227.383 193.421 277.571 145.435 277.994C85.9427 278.557 38.74 240.476 12.9077 188.95Z" fill="#E1D5C4"/>
<path d="M201.422 75.7C200.198 72.5228 197.085 69.708 193.68 69.708H100.981C97.563 69.708 94.4362 72.544 93.2122 75.7351C84.4586 98.5576 43.8726 161.361 146.775 170.46C147.118 170.491 147.509 170.491 147.852 170.46C250.878 161.356 210.204 98.4931 201.422 75.7Z" fill="#FF7F53"/>
<path d="M252.756 204.155C252.713 204.155 252.678 204.118 252.676 204.076C251.403 176.785 198.414 182.961 180.662 176.773C166.327 171.776 167.581 154.915 168.601 144.666C168.929 141.369 166.39 138.691 163.076 138.691H133.04C129.727 138.691 127.188 141.369 127.516 144.666C128.537 154.9 129.786 171.72 115.455 176.773C97.6853 182.967 44.6117 176.773 43.4375 204.155L44.0139 231.107C44.046 232.606 44.6354 234.042 45.6864 235.112C71.7141 261.597 105.873 278.339 145.514 277.994C180.544 277.713 219.792 250.814 252.725 205.083C252.796 204.983 252.836 204.863 252.836 204.74V204.235C252.836 204.19 252.8 204.155 252.756 204.155Z" fill="#FFD7CE"/>
<path d="M113.061 104.002C113.697 107.671 110.865 111.083 107.151 110.82C98.7985 110.227 93.3008 108.131 93.3008 101.665C93.3008 95.371 100.092 93.8869 106.181 93.5373C109.094 93.37 111.591 95.529 112.09 98.4041L113.061 104.002Z" fill="#FFD7CE"/>
<path d="M155.344 147.953C159.576 144.81 157.082 138.691 151.81 138.691H133.039C129.725 138.691 127.189 141.371 127.522 144.668C127.744 146.868 127.977 149.374 128.062 152.005C128.196 156.136 131.919 159.604 135.836 158.286C143.525 155.698 150.056 151.881 155.344 147.953Z" fill="#F8CBC5"/>
<path d="M182.35 104.002C181.713 107.671 184.545 111.083 188.26 110.82C196.612 110.227 202.11 108.131 202.11 101.665C202.11 95.371 195.318 93.8869 189.23 93.5373C186.317 93.37 183.82 95.529 183.321 98.4041L182.35 104.002Z" fill="#FFD7CE"/>
<path d="M188.492 99.6378C190.276 99.5845 191.966 98.757 192.948 97.2675C201.688 84.0051 203.045 63.0143 192.481 48.7317C181.287 33.5977 161.952 28.248 144.574 28.248C127.196 28.248 96.1189 42.115 94.7882 69.145C93.7477 90.3341 100.077 98.5707 102.887 101.156C103.678 101.883 104.748 102.141 105.821 102.109L188.492 99.6378Z" fill="#FF7F53"/>
<path d="M102.537 81.252C102.537 97.5827 105.042 114.476 112.087 124.965C120.228 137.213 132.049 147.842 147.548 147.842C163.047 147.842 174.789 137.213 183.009 124.965C190.054 114.476 192.559 97.5827 192.559 81.252C192.559 64.9214 177.529 41.5518 148.331 41.5518C119.132 41.5518 102.537 58.3047 102.537 81.252Z" fill="#FFD7CE"/>
<path d="M123.046 117.433C126.721 117.433 129.7 114.754 129.7 111.45C129.7 108.146 126.721 105.467 123.046 105.467C119.372 105.467 116.393 108.146 116.393 111.45C116.393 114.754 119.372 117.433 123.046 117.433Z" fill="#FFA8A8"/>
<path d="M149.288 48.5099C149.277 48.564 149.268 48.6097 149.256 48.6638C149.045 49.6534 146.26 60.4929 124.954 65.2983C122.075 65.9476 120.576 64.195 121.43 61.37C122.537 57.7039 124.014 52.7662 125.008 49.4372C125.676 47.1999 127.578 45.559 129.888 45.2205L144.21 43.122C147.315 42.6671 149.926 45.438 149.288 48.5099Z" fill="#F8CBC5"/>
<path d="M172.285 117.433C175.959 117.433 178.938 114.754 178.938 111.45C178.938 108.146 175.959 105.467 172.285 105.467C168.61 105.467 165.631 108.146 165.631 111.45C165.631 114.754 168.61 117.433 172.285 117.433Z" fill="#FFA8A8"/>
<path d="M146.609 95.893L141.756 109.267C141.365 110.323 142.304 111.379 143.556 111.379H148.723C149.819 111.379 150.601 110.605 150.601 109.76L150.288 96.3857C150.288 94.5556 147.235 94.1332 146.609 95.893Z" fill="#FFA8A8"/>
<path d="M129.7 99.2023C131.084 99.2023 132.205 98.1938 132.205 96.9498C132.205 95.7057 131.084 94.6973 129.7 94.6973C128.317 94.6973 127.195 95.7057 127.195 96.9498C127.195 98.1938 128.317 99.2023 129.7 99.2023Z" fill="#1C1C1B"/>
<path d="M165.632 99.2726C167.015 99.2726 168.137 98.2641 168.137 97.0201C168.137 95.7761 167.015 94.7676 165.632 94.7676C164.248 94.7676 163.127 95.7761 163.127 97.0201C163.127 98.2641 164.248 99.2726 165.632 99.2726Z" fill="#1C1C1B"/>
<path d="M122.921 92.9075C122.901 92.8805 122.888 92.8487 122.884 92.8154C122.667 91.2208 123.212 89.97 123.987 88.9949C124.848 88.0094 126.022 87.2351 127.509 86.8128C128.918 86.4608 130.64 86.5312 132.05 87.0943C133.488 87.6391 134.488 88.8425 134.835 90.3223C134.857 90.4173 134.831 90.5167 134.769 90.5916C134.686 90.6905 134.552 90.7314 134.432 90.6869C134.028 90.5379 133.615 90.3223 133.145 90.2619L132.867 90.1869C132.532 90.0963 132.188 90.0351 131.842 90.0039L131.58 89.9804C130.562 89.91 129.545 89.9804 128.527 90.2619C127.509 90.5435 126.57 90.8954 125.631 91.3882C124.83 91.8466 123.961 92.3659 123.213 92.9461C123.122 93.0169 122.99 93.0002 122.921 92.9075Z" fill="#FF7F53"/>
<path d="M172.497 90.5412C172.374 90.6246 172.209 90.6082 172.1 90.5065C171.432 89.8842 170.645 89.3694 169.858 88.8546C168.997 88.2915 168.057 87.8692 167.04 87.5876C166.1 87.2356 165.004 87.1653 163.987 87.1653L163.204 87.2356L162.421 87.3764C161.955 87.4363 161.545 87.5981 161.144 87.7318C161.022 87.7725 160.889 87.7185 160.827 87.6058C160.795 87.5486 160.784 87.4818 160.799 87.418C161.141 85.9205 162.297 84.8303 163.752 84.2792C165.239 83.7161 166.961 83.7161 168.37 84.2088C169.78 84.6312 170.954 85.4759 171.737 86.5317C172.5 87.5618 172.966 88.7928 172.625 90.3555C172.608 90.4315 172.562 90.4977 172.497 90.5412Z" fill="#FF7F53"/>
<path d="M140.425 120.882C140.034 120.882 139.564 120.601 139.486 120.249C139.329 119.756 139.642 119.263 140.19 119.122C146.453 117.503 154.437 118.348 154.828 118.348C155.376 118.419 155.768 118.841 155.69 119.334C155.611 119.826 155.142 120.178 154.594 120.108C154.515 120.108 146.609 119.263 140.816 120.812C140.582 120.882 140.503 120.882 140.425 120.882Z" fill="#FFA8A8"/>
<path d="M101.364 107.296C99.6417 107.296 97.3716 106.663 96.1191 104.34C94.397 101.172 96.7454 98.8496 98.2327 98.0049C98.7024 97.7233 99.3286 97.8641 99.5634 98.2865C99.8765 98.7088 99.72 99.2719 99.2503 99.4831C98.9372 99.6239 96.5888 101.102 97.8413 103.495C98.8376 105.287 100.617 105.46 101.629 105.408C102.132 105.382 102.666 105.177 103.122 105.389C103.363 105.501 103.552 105.701 103.634 105.959C103.791 106.452 103.477 106.944 102.929 107.085C102.538 107.226 101.99 107.296 101.364 107.296Z" fill="#FFA8A8"/>
<path d="M192.951 107.296C192.325 107.296 191.777 107.226 191.385 107.085C190.837 106.944 190.524 106.452 190.681 105.959C190.837 105.466 191.385 105.185 191.933 105.326C192.247 105.396 195.065 106.029 196.474 103.495C197.804 101.032 195.221 99.5535 195.065 99.4831C194.595 99.2015 194.438 98.7088 194.751 98.2865C195.065 97.8641 195.613 97.7233 196.082 98.0049C197.57 98.7792 199.918 101.172 198.196 104.34C196.943 106.663 194.673 107.296 192.951 107.296Z" fill="#FFA8A8"/>
<path d="M98.7822 76.5449C98.0433 80.8564 102.226 83.9782 106.089 81.9261C112.503 78.5188 121.333 72.8195 128.116 64.5923C131.893 60.0113 115.65 42.5445 111.618 46.9021C104.595 54.4907 100.724 65.2177 98.7822 76.5449Z" fill="#FF7F53"/>
<path d="M194.534 73.3967C194.875 76.5071 192.258 78.9414 189.14 78.6796C181.496 78.0378 167.084 75.7773 153.341 67.8777C140.156 60.2989 135.953 49.8025 134.619 43.5495C133.983 40.5657 136.3 38.0851 139.351 38.1069C146.363 38.1569 159.163 39.0255 170.954 43.9449C185.914 50.1861 193.274 61.9042 194.534 73.3967Z" fill="#FF7F53"/>
<path d="M252.678 204.154C252.111 190.778 239.174 185.413 224.074 182.74C221.275 182.245 218.611 183.929 217.283 186.443C210.683 198.942 196.46 207.603 180.034 207.603H114.436C98.086 207.603 84.0009 199.062 77.3111 186.645C75.9602 184.138 73.2703 182.481 70.4742 183.023C55.9866 185.827 43.8438 191.272 43.2793 204.154L43.8557 231.105C43.8878 232.605 44.4772 234.041 45.5282 235.111C71.5559 261.596 105.715 278.338 145.356 277.993C180.264 277.713 219.36 251 252.222 205.559C252.517 205.151 252.678 204.657 252.678 204.154Z" fill="#535353"/>
</svg>
