<svg width="506" height="483" viewBox="0 0 506 483" fill="none" xmlns="http://www.w3.org/2000/svg">
<path d="M321.776 482.506H157.859C149.935 482.506 143.621 476.068 143.621 468.268V164.574C143.621 156.651 150.059 150.337 157.859 150.337H321.776C329.7 150.337 336.014 156.775 336.014 164.574V468.144C336.138 476.068 329.7 482.506 321.776 482.506Z" fill="#575756"/>
<path d="M319.052 180.67H160.582V452.298H319.052V180.67Z" fill="#9CC6E1"/>
<path d="M316.699 183.764H162.934V448.954H316.699V183.764Z" fill="#7CACD1"/>
<path d="M267.18 171.013H212.458C209.859 171.013 207.754 168.908 207.754 166.308C207.754 163.708 209.859 161.604 212.458 161.604H267.18C269.78 161.604 271.885 163.708 271.885 166.308C271.885 168.908 269.78 171.013 267.18 171.013Z" fill="#70706E"/>
<path d="M292.807 173.736C296.91 173.736 300.236 170.41 300.236 166.307C300.236 162.205 296.91 158.879 292.807 158.879C288.705 158.879 285.379 162.205 285.379 166.307C285.379 170.41 288.705 173.736 292.807 173.736Z" fill="#7CACD1"/>
<path d="M292.807 170.517C295.132 170.517 297.016 168.633 297.016 166.308C297.016 163.983 295.132 162.099 292.807 162.099C290.482 162.099 288.598 163.983 288.598 166.308C288.598 168.633 290.482 170.517 292.807 170.517Z" fill="#9CC6E1"/>
<path d="M188.193 171.755H171.108C168.136 171.755 165.66 169.279 165.66 166.308C165.66 163.336 168.136 160.86 171.108 160.86H188.193C191.164 160.86 193.64 163.336 193.64 166.308C193.64 169.279 191.164 171.755 188.193 171.755Z" fill="#7CACD1"/>
<path d="M185.342 170.022H173.952C171.972 170.022 170.238 168.413 170.238 166.308C170.238 164.327 171.848 162.594 173.952 162.594H185.342C187.323 162.594 189.057 164.203 189.057 166.308C189.057 168.289 187.323 170.022 185.342 170.022Z" fill="#9CC6E1"/>
<path d="M341.584 212.487H336.137V255.943H341.584V212.487Z" fill="#289AA2"/>
<path d="M239.817 474.211C244.261 474.211 247.864 470.608 247.864 466.164C247.864 461.719 244.261 458.116 239.817 458.116C235.372 458.116 231.77 461.719 231.77 466.164C231.77 470.608 235.372 474.211 239.817 474.211Z" fill="#86D4D9"/>
<path d="M316.699 459.354H302.957V473.097H316.699V459.354Z" fill="#86D4D9"/>
<path d="M175.314 474.211L162.934 466.164L175.314 458.116V474.211Z" fill="#86D4D9"/>
<path d="M316.699 293.826V232.914L189.18 183.764H162.934V234.524L316.699 293.826Z" fill="#9CC6E1"/>
<path d="M162.934 281.818V406.119L274.234 448.955H316.699V341.121L162.934 281.818Z" fill="#9CC6E1"/>
<path d="M296.025 165.565C297.051 165.565 297.882 164.733 297.882 163.708C297.882 162.682 297.051 161.851 296.025 161.851C294.999 161.851 294.168 162.682 294.168 163.708C294.168 164.733 294.999 165.565 296.025 165.565Z" fill="#F8F8F8"/>
<path d="M390.613 303.854H374.643V359.691H390.613V303.854Z" fill="#289AA2"/>
<path d="M422.555 285.531H406.584V359.814H422.555V285.531Z" fill="#289AA2"/>
<path d="M454.496 318.588H438.525V359.691H454.496V318.588Z" fill="#289AA2"/>
<path d="M471.582 359.69H358.053V369.471H471.582V359.69Z" fill="#55237C"/>
<path d="M436.051 402.776C431.346 405.252 427.509 409.09 425.032 413.794C424.166 415.404 421.937 415.404 421.194 413.794C418.718 409.09 414.88 405.252 410.176 402.776C408.566 401.909 408.566 399.68 410.176 398.938C414.88 396.462 418.718 392.624 421.194 387.919C422.061 386.31 424.29 386.31 425.032 387.919C427.509 392.624 431.346 396.462 436.051 398.938C437.661 399.68 437.661 402.033 436.051 402.776Z" fill="#86D4D9"/>
<path d="M118.492 219.049C115.15 220.783 112.302 223.506 110.569 226.973C109.95 228.087 108.34 228.087 107.845 226.973C106.112 223.63 103.388 220.783 99.9216 219.049C98.8074 218.43 98.8074 216.821 99.9216 216.326C103.264 214.592 106.112 211.869 107.845 208.402C108.464 207.288 110.074 207.288 110.569 208.402C112.302 211.745 115.026 214.592 118.492 216.326C119.607 216.821 119.607 218.43 118.492 219.049Z" fill="#86D4D9"/>
<path d="M388.51 267.581C385.167 269.314 382.32 272.038 380.586 275.504C379.967 276.618 378.358 276.618 377.863 275.504C376.129 272.161 373.406 269.314 369.939 267.581C368.825 266.962 368.825 265.352 369.939 264.857C373.282 263.124 376.129 260.4 377.863 256.933C378.482 255.819 380.091 255.819 380.586 256.933C382.32 260.276 385.043 263.124 388.51 264.857C389.624 265.352 389.624 266.962 388.51 267.581Z" fill="#86D4D9"/>
<path d="M504.144 288.256C496.716 292.094 490.525 298.16 486.687 305.712C485.449 308.188 481.859 308.188 480.497 305.712C476.659 298.284 470.593 292.094 463.041 288.256C460.565 287.018 460.565 283.427 463.041 282.066C470.469 278.228 476.659 272.161 480.497 264.609C481.735 262.133 485.326 262.133 486.687 264.609C490.525 272.037 496.592 278.228 504.144 282.066C506.62 283.427 506.62 287.018 504.144 288.256Z" fill="#86D4D9"/>
<path d="M414.508 165.193C432.491 165.193 447.069 150.615 447.069 132.632C447.069 114.649 432.491 100.071 414.508 100.071C396.525 100.071 381.947 114.649 381.947 132.632C381.947 150.615 396.525 165.193 414.508 165.193Z" fill="#86D4D9"/>
<path d="M414.508 180.546C414.26 180.546 414.012 180.546 413.765 180.546C412.031 180.546 410.67 179.06 410.793 177.451C410.793 175.717 412.155 174.479 413.888 174.479C415.869 174.479 417.726 174.356 419.584 174.232C421.317 173.984 422.802 175.222 423.05 176.955C423.298 178.689 422.06 180.174 420.326 180.422C418.469 180.422 416.488 180.546 414.508 180.546ZM398.66 177.574C398.289 177.574 397.918 177.451 397.546 177.327C395.442 176.584 393.461 175.594 391.604 174.603C390.118 173.737 389.623 171.879 390.366 170.394C391.232 168.908 393.089 168.413 394.575 169.156C396.308 170.022 398.041 170.889 399.775 171.508C401.384 172.127 402.127 173.86 401.508 175.47C401.137 176.832 399.899 177.574 398.66 177.574ZM434.688 175.717C433.573 175.717 432.459 175.098 431.964 173.984C431.221 172.498 431.84 170.641 433.326 169.899C435.059 169.032 436.669 168.041 438.278 166.927C439.64 165.937 441.621 166.308 442.487 167.67C443.478 169.032 443.106 171.013 441.745 171.879C439.888 173.118 438.03 174.232 436.05 175.222C435.678 175.594 435.183 175.717 434.688 175.717ZM381.08 165.442C380.214 165.442 379.347 165.07 378.728 164.451C377.242 162.842 375.88 161.108 374.642 159.251C373.652 157.889 374.023 155.909 375.509 155.042C376.871 154.052 378.852 154.423 379.718 155.909C380.833 157.518 381.947 159.004 383.185 160.489C384.299 161.727 384.175 163.708 382.937 164.823C382.442 165.194 381.823 165.442 381.08 165.442ZM451.03 161.851C450.411 161.851 449.792 161.604 449.297 161.232C447.935 160.242 447.563 158.385 448.554 156.899C449.668 155.29 450.659 153.68 451.525 151.947C452.268 150.461 454.125 149.842 455.611 150.709C457.096 151.452 457.715 153.309 456.849 154.794C455.858 156.775 454.62 158.632 453.382 160.366C452.887 161.356 451.897 161.851 451.03 161.851ZM371.052 146.499C369.69 146.499 368.452 145.509 368.081 144.147C367.585 142.042 367.214 139.814 366.966 137.585C366.843 135.852 367.957 134.367 369.69 134.243C371.423 134.119 372.909 135.233 373.033 136.966C373.28 138.824 373.528 140.804 374.023 142.661C374.395 144.271 373.404 146.004 371.795 146.376C371.547 146.499 371.3 146.499 371.052 146.499ZM458.953 141.919C458.83 141.919 458.706 141.919 458.582 141.919C456.849 141.671 455.735 140.185 455.982 138.452C456.23 136.595 456.354 134.614 456.354 132.757V132.633C456.354 130.9 457.715 129.538 459.449 129.538C461.182 129.538 462.544 130.9 462.544 132.633V132.757C462.544 134.986 462.42 137.214 462.049 139.319C461.801 140.804 460.439 141.919 458.953 141.919ZM371.052 125.081C370.804 125.081 370.557 125.081 370.309 124.957C368.7 124.586 367.709 122.853 368.081 121.243C368.576 119.139 369.319 117.034 370.062 114.929C370.681 113.32 372.414 112.577 374.023 113.196C375.633 113.815 376.376 115.548 375.757 117.158C375.014 118.891 374.518 120.748 374.023 122.605C373.652 124.091 372.414 125.081 371.052 125.081ZM456.725 120.5C455.487 120.5 454.249 119.758 453.877 118.52C453.258 116.662 452.392 114.929 451.525 113.196C450.782 111.71 451.278 109.853 452.763 109.11C454.249 108.367 456.106 108.863 456.849 110.348C457.839 112.329 458.83 114.31 459.573 116.415C460.192 118.024 459.325 119.758 457.715 120.377C457.344 120.377 457.096 120.5 456.725 120.5ZM380.956 106.015C380.214 106.015 379.471 105.768 378.975 105.272C377.737 104.158 377.614 102.177 378.728 100.939C380.214 99.3297 381.823 97.7203 383.432 96.3584C384.67 95.2442 386.651 95.368 387.766 96.7298C388.88 97.9679 388.756 99.9488 387.394 101.063C385.909 102.301 384.547 103.663 383.309 105.149C382.69 105.644 381.823 106.015 380.956 106.015ZM444.84 102.672C444.097 102.672 443.354 102.425 442.735 101.93C441.373 100.692 439.764 99.4535 438.278 98.3393C436.916 97.3488 436.545 95.4918 437.535 94.1299C438.526 92.7681 440.383 92.3966 441.745 93.3871C443.602 94.6251 445.335 95.987 446.944 97.4727C448.182 98.5869 448.306 100.568 447.192 101.806C446.449 102.301 445.583 102.672 444.84 102.672ZM398.66 93.8823C397.422 93.8823 396.308 93.1395 395.813 91.9014C395.194 90.292 396.061 88.5587 397.546 87.9397C399.651 87.1968 401.756 86.454 403.86 86.0826C405.47 85.7112 407.203 86.7016 407.574 88.4349C407.946 90.1682 406.955 91.7776 405.222 92.149C403.365 92.5205 401.508 93.1395 399.775 93.7585C399.279 93.7585 398.908 93.8823 398.66 93.8823ZM425.898 92.3966C425.65 92.3966 425.402 92.3966 425.155 92.2728C423.298 91.7776 421.441 91.4062 419.46 91.1586C417.726 90.911 416.612 89.4253 416.736 87.6921C416.984 85.9588 418.469 84.8445 420.203 84.9683C422.431 85.216 424.536 85.5874 426.64 86.2064C428.25 86.5778 429.24 88.3111 428.869 89.9205C428.621 91.53 427.259 92.3966 425.898 92.3966Z" fill="#289AA2"/>
<path d="M410.918 148.604C410.175 148.604 409.432 148.356 408.937 147.861L396.062 136.842C394.823 135.728 394.576 133.747 395.69 132.509C396.804 131.271 398.785 131.023 400.023 132.138L410.423 141.052L428.746 117.9C429.736 116.538 431.717 116.291 433.079 117.405C434.441 118.395 434.689 120.376 433.574 121.738L413.27 147.489C412.775 148.108 412.032 148.604 411.166 148.604C411.042 148.604 410.918 148.604 410.918 148.604Z" fill="#F8F8F8"/>
</svg>
