<svg width="165" height="55" viewBox="0 0 165 55" fill="none" xmlns="http://www.w3.org/2000/svg">
<g clip-path="url(#clip0)">
<path d="M53.1799 23.6463H49.5664V13.2157C49.5664 11.1811 48.8114 10.1136 46.8958 10.1136C45.2603 10.1136 43.5652 11.1159 42.7776 11.8358V23.6436H39.1641V7.45435H42.3692L42.5269 9.14389C43.9713 7.98404 45.9199 7.10938 48.1518 7.10938C51.6732 7.10938 53.1775 8.95645 53.1775 12.6208V23.6463H53.1799Z" fill="#55237C"/>
<path d="M56.5977 15.5652C56.5977 9.70887 60.1186 7.10938 64.3591 7.10938C69.0741 7.10938 71.0199 10.0838 71.0199 14.2832C71.0199 14.9405 70.9897 15.6902 70.9273 16.4426H60.3995C60.4949 19.8571 62.1272 21.0767 64.4847 21.0767C66.5584 21.0767 67.439 20.107 67.8148 18.4473L70.8943 19.1997C70.2649 22.2691 67.7822 24.0212 64.2637 24.0212C58.4211 24.0239 56.5977 20.0146 56.5977 15.5652ZM67.2836 13.9382C67.2836 11.1811 66.3077 9.95878 64.1386 9.95878C62.3155 9.95878 60.6176 11.0535 60.4623 13.9382H67.2836Z" fill="#55237C"/>
<path d="M88.5819 23.6455H85.5648L85.3141 22.0158H85.2517C83.9627 23.2381 82.3602 24.0204 80.1282 24.0204C76.3892 24.0204 73.8438 21.6708 73.8438 15.8171C73.8438 9.39572 77.1739 7.10861 80.6949 7.10861C82.5481 7.10861 83.9627 7.57852 85.0633 8.51838V0H88.5847V23.6455H88.5819ZM84.968 11.3053C84.2758 10.7756 82.9868 10.0531 81.447 10.0531C78.6183 10.0531 77.58 12.4027 77.58 15.7845C77.58 19.294 78.6811 21.1085 81.2889 21.1085C82.6737 21.1085 84.085 20.3561 84.9655 19.4488V11.3053H84.968Z" fill="#55237C"/>
<path d="M96.653 0H93.0391V23.6483H96.653V0Z" fill="#55237C"/>
<path d="M101.018 7.45312H104.632V17.8838C104.632 19.9183 105.262 20.9532 107.177 20.9532C108.78 20.9532 110.475 19.9835 111.26 19.2637V7.45312H114.876V23.6451H111.731L111.481 21.8605C110.066 23.1453 108.15 23.9901 105.916 23.9901C102.523 23.9901 101.016 22.1403 101.016 18.5113V7.45312H101.018Z" fill="#55237C"/>
<path d="M122.032 20.7012H130.799V23.6457H117.949V21.0788L126.403 10.2733H118.078V7.45373H130.428V10.0532L122.032 20.7012ZM121.781 0.407596L124.327 3.69434L126.965 0.375L129.45 0.595022L126.024 5.73159H122.536L119.11 0.595022L121.781 0.407596Z" fill="#55237C"/>
<path d="M135.794 5.73215L133.281 5.41704L136.047 0.283203H140.132L135.794 5.73215ZM137.459 23.649H133.845V7.45429H137.459V23.649Z" fill="#55237C"/>
<path d="M145.465 23.6463H141.852V7.45435H144.964L145.089 9.11402C146.567 7.95413 148.264 7.10938 150.398 7.10938C152.472 7.10938 153.791 7.70426 154.483 9.20636C155.898 7.98404 157.721 7.10938 159.92 7.10938C163.25 7.10938 164.635 8.95645 164.635 12.5882V23.6436H161.021V13.1233C161.021 11.211 160.55 10.1163 158.759 10.1163C157.47 10.1163 155.868 10.9611 155.083 11.6836C155.113 11.9336 155.113 12.2459 155.113 12.5284V23.649H151.499V13.1233C151.499 11.211 151.06 10.1163 149.267 10.1163C147.918 10.1163 146.253 11.0236 145.465 11.7461V23.6463Z" fill="#55237C"/>
<path d="M51.0131 40.4139L47.8709 41.2289C47.4918 39.6316 46.8978 38.5044 44.7886 38.5044C42.8098 38.5044 41.9925 39.3491 41.9925 40.4139C41.9925 41.9186 43.374 42.3562 45.5134 42.7335C48.3095 43.2334 51.2936 43.8934 51.2936 47.5876C51.2936 50.9398 48.5904 52.7243 44.6031 52.7243C40.7034 52.7243 38.4741 51.1598 37.9727 48.1529L41.0524 47.1504C41.4608 48.6852 42.1233 50.0297 44.7286 50.0297C46.5191 50.0297 47.7783 49.4672 47.7783 48.0874C47.7783 46.4603 46.4591 46.1781 44.3854 45.7706C41.747 45.2383 38.6049 44.673 38.6049 40.8214C38.6049 37.4396 41.4637 35.8125 44.8594 35.8125C48.6259 35.8125 50.3833 37.5971 51.0131 40.4139Z" fill="#55237C"/>
<path d="M64.1456 51.5969C63.3278 52.1292 61.5676 52.7242 59.8395 52.7242C56.6345 52.7242 55.0022 51.2846 55.0022 47.8404V38.8167H52.5195V36.1547H55.0022V31.4256L58.6161 30.9258V36.1574H63.0143V38.8194H58.6161V47.3406C58.6161 48.9376 59.0246 49.7823 60.7824 49.7823C61.7555 49.7823 62.8864 49.4049 63.5488 49.03L64.1456 51.5969Z" fill="#55237C"/>
<path d="M78.6867 48.9344C78.6867 49.8092 78.8448 50.1866 79.6598 50.1866C79.9431 50.1866 80.2264 50.1244 80.6325 49.9967L80.758 52.126C80.131 52.4388 79.0927 52.6588 78.2126 52.6588C76.5175 52.6588 75.7625 52.0012 75.4792 50.7462C74.3781 51.9362 72.5877 52.7182 70.3256 52.7182C66.2404 52.7182 65.5156 49.9642 65.5156 48.364C65.5156 44.1703 69.0994 42.7901 73.4678 42.7901C74.2228 42.7901 74.6945 42.8202 75.1331 42.8527V41.6303C75.1331 39.6556 74.6945 38.5284 72.3044 38.5284C70.3256 38.5284 69.666 39.3432 69.3199 41.0329L66.145 40.4676C66.6493 37.431 68.5979 35.8012 72.5877 35.8012C76.7356 35.8012 78.6842 37.3984 78.6842 41.4376V48.9344H78.6867ZM75.1685 45.3301C74.855 45.3 74.4763 45.2703 73.6614 45.2703C71.8383 45.2703 69.1975 45.4903 69.1975 47.8698C69.1975 48.9999 69.7014 50.0292 71.6174 50.0292C73.0944 50.0292 74.4462 49.2797 75.1685 48.527V45.3301ZM72.2468 34.4321L69.7344 34.117L72.5004 28.9805H76.5855L72.2468 34.4321Z" fill="#55237C"/>
<path d="M92.696 51.5969C91.8786 52.1292 90.1179 52.7242 88.3903 52.7242C85.1853 52.7242 83.553 51.2846 83.553 47.8404V38.8167H81.0703V36.1547H83.553V31.4256L87.1665 30.9258V36.1574H91.5651V38.8194H87.1665V47.3406C87.1665 48.9376 87.5753 49.7823 89.3332 49.7823C90.3059 49.7823 91.4371 49.4049 92.0992 49.03L92.696 51.5969Z" fill="#55237C"/>
<path d="M94.7372 36.1562H98.3507V46.5867C98.3507 48.6213 98.9801 49.6563 100.896 49.6563C102.499 49.6563 104.194 48.6868 104.978 47.967V36.1589H108.595V52.3509H105.45L105.199 50.5664C103.785 51.8511 101.869 52.6958 99.6345 52.6958C96.2415 52.6958 94.7344 50.8462 94.7344 47.217V36.1562H94.7372Z" fill="#55237C"/>
<path d="M28.7466 54.9995H1.79372C1.2623 54.9995 0.755398 54.7659 0.417466 54.3556C0.0768092 53.9509 -0.0649045 53.4133 0.0277545 52.8918L4.51356 28.1895L8.04548 28.8278L3.94123 51.4249H26.5527L23.0371 34.2142L26.5555 33.5026L30.5071 52.8589C30.6161 53.386 30.4798 53.9292 30.1392 54.3475C29.7958 54.7578 29.2862 54.9995 28.7466 54.9995Z" fill="#289AA2"/>
<path d="M17.9819 41.2557C17.9819 42.7467 16.7691 43.9583 15.2702 43.9583C13.7713 43.9583 12.5586 42.7495 12.5586 41.2557C12.5586 39.7642 13.7713 38.5527 15.2702 38.5527C16.7691 38.5527 17.9819 39.7642 17.9819 41.2557Z" fill="#289AA2"/>
<path d="M17.0619 35.3413H13.4755V30.0716C13.4755 26.7496 15.574 23.7291 18.817 22.379C22.2726 20.9448 24.5073 17.6092 24.5073 13.8769C24.5073 11.2584 23.3818 8.75396 21.4196 7.00737C19.4302 5.23633 16.8575 4.43501 14.1786 4.73113C10.0553 5.20377 6.66505 8.51224 6.11729 12.603C5.88838 14.3197 6.1282 16.0446 6.81496 17.5956L3.53647 19.038C2.5799 16.8893 2.24469 14.499 2.56082 12.1304C3.32389 6.43966 8.03862 1.8328 13.7698 1.18088C17.4489 0.765288 21.0817 1.91972 23.807 4.33995C26.5295 6.76292 28.0938 10.2398 28.0938 13.8797C28.0938 19.0597 24.9952 23.6937 20.196 25.6848C18.2638 26.4861 17.0619 28.1702 17.0619 30.0744V35.3413Z" fill="#289AA2"/>
</g>
<defs>
<clipPath id="clip0">
<rect width="165" height="55" fill="white"/>
</clipPath>
</defs>
</svg>
