<svg width="10" height="5" viewBox="4 25 230 145" version="1.1" xmlns="http://www.w3.org/2000/svg">
    <path fill="black" d="M228.063,13.847c-0.502,-0.77 -1.127,-1.169 -1.825,-1.169l-85.458,0.014c-1.253,0 -2.254,1.293 -2.254,2.892l0,23.961c0,1.557 1.001,2.835 2.254,2.835l37.148,0l-80.104,80.106c-0.501,0.529 -0.822,1.252 -0.822,2.015c0,0.767 0.321,1.479 0.822,2.02l16.99,16.968c0.985,0.998 3.004,0.998 4.019,0l79.966,-79.981l0,78.378c0,1.256 1.294,2.254 2.897,2.254l24,0c1.56,0 2.839,-0.998 2.839,-2.254l0,-126.834c0,-0.41 -0.137,-0.837 -0.472,-1.205" style="fill-rule:nonzero;"/><path d="M119.461,12.692l-112.084,0c-0.639,0 -1.28,0.386 -1.766,1.121c-0.335,0.423 -0.515,0.829 -0.515,1.26l-0,126.828c-0,1.247 1.294,2.269 2.851,2.269l24.003,0c1.599,0 2.852,-1.022 2.852,-2.269l-0,-78.383l47.487,47.467c0.883,0.885 2.507,0.678 3.635,-0.45l16.946,-16.946c1.101,-1.099 1.296,-2.711 0.409,-3.599l-47.56,-47.581l63.742,0c1.252,0 2.28,-1.289 2.28,-2.853l-0,-24.002c-0,-1.574 -1.028,-2.862 -2.28,-2.862"/>
</svg>