<svg width="102" height="56" viewBox="0 0 102 56" fill="none" xmlns="http://www.w3.org/2000/svg">
<line x1="4.37114e-08" y1="27.5" x2="74" y2="27.5" stroke="#F0ECE8"/>
<circle cx="74" cy="28" r="28" fill="#55237C"/>
<path d="M64.5703 33H56.7734V31.4531L60.4531 27.5312C60.9583 26.9792 61.3307 26.4974 61.5703 26.0859C61.8151 25.6745 61.9375 25.2839 61.9375 24.9141C61.9375 24.4089 61.8099 24.013 61.5547 23.7266C61.2995 23.4349 60.9349 23.2891 60.4609 23.2891C59.9505 23.2891 59.5469 23.4661 59.25 23.8203C58.9583 24.1693 58.8125 24.6302 58.8125 25.2031H56.5469C56.5469 24.5104 56.7109 23.8776 57.0391 23.3047C57.3724 22.7318 57.8411 22.2839 58.4453 21.9609C59.0495 21.6328 59.7344 21.4688 60.5 21.4688C61.6719 21.4688 62.5807 21.75 63.2266 22.3125C63.8776 22.875 64.2031 23.6693 64.2031 24.6953C64.2031 25.2578 64.0573 25.8307 63.7656 26.4141C63.474 26.9974 62.974 27.6771 62.2656 28.4531L59.6797 31.1797H64.5703V33ZM73.6172 28.2969C73.6172 29.8698 73.2917 31.0729 72.6406 31.9062C71.9896 32.7396 71.0365 33.1562 69.7812 33.1562C68.5417 33.1562 67.5938 32.7474 66.9375 31.9297C66.2812 31.112 65.9453 29.9401 65.9297 28.4141V26.3203C65.9297 24.7318 66.2578 23.526 66.9141 22.7031C67.5755 21.8802 68.526 21.4688 69.7656 21.4688C71.0052 21.4688 71.9531 21.8776 72.6094 22.6953C73.2656 23.5078 73.6016 24.6771 73.6172 26.2031V28.2969ZM71.3594 26C71.3594 25.0573 71.2292 24.3724 70.9688 23.9453C70.7135 23.513 70.3125 23.2969 69.7656 23.2969C69.2344 23.2969 68.8411 23.5026 68.5859 23.9141C68.3359 24.3203 68.2031 24.9583 68.1875 25.8281V28.5938C68.1875 29.5208 68.3125 30.2109 68.5625 30.6641C68.8177 31.112 69.224 31.3359 69.7812 31.3359C70.3333 31.3359 70.7318 31.1198 70.9766 30.6875C71.2214 30.2552 71.349 29.5938 71.3594 28.7031V26ZM80.6328 33H78.375V24.2969L75.6797 25.1328V23.2969L80.3906 21.6094H80.6328V33ZM89.6172 28.4531C89.0286 29.0312 88.3411 29.3203 87.5547 29.3203C86.5495 29.3203 85.7448 28.9766 85.1406 28.2891C84.5365 27.5964 84.2344 26.6641 84.2344 25.4922C84.2344 24.7474 84.3958 24.0651 84.7188 23.4453C85.0469 22.8203 85.5026 22.3359 86.0859 21.9922C86.6693 21.6432 87.3255 21.4688 88.0547 21.4688C88.8047 21.4688 89.4714 21.6562 90.0547 22.0312C90.638 22.4062 91.0911 22.9453 91.4141 23.6484C91.737 24.3516 91.901 25.1562 91.9062 26.0625V26.8984C91.9062 28.7943 91.4349 30.2839 90.4922 31.3672C89.5495 32.4505 88.2135 33.0286 86.4844 33.1016L85.9297 33.1094V31.2266L86.4297 31.2188C88.3932 31.1302 89.4557 30.2083 89.6172 28.4531ZM88.1094 27.5938C88.474 27.5938 88.7865 27.5 89.0469 27.3125C89.3125 27.125 89.513 26.8984 89.6484 26.6328V25.7031C89.6484 24.9375 89.5026 24.3438 89.2109 23.9219C88.9193 23.5 88.5286 23.2891 88.0391 23.2891C87.5859 23.2891 87.2135 23.4974 86.9219 23.9141C86.6302 24.3255 86.4844 24.8438 86.4844 25.4688C86.4844 26.0885 86.625 26.599 86.9062 27C87.1927 27.3958 87.5938 27.5938 88.1094 27.5938Z" fill="white"/>
</svg>
