<svg width="56" height="56" viewBox="0 0 56 56" fill="none" xmlns="http://www.w3.org/2000/svg">
<circle cx="28" cy="28" r="28" fill="#55237C"/>
<path d="M18.5703 33H10.7734V31.4531L14.4531 27.5312C14.9583 26.9792 15.3307 26.4974 15.5703 26.0859C15.8151 25.6745 15.9375 25.2839 15.9375 24.9141C15.9375 24.4089 15.8099 24.013 15.5547 23.7266C15.2995 23.4349 14.9349 23.2891 14.4609 23.2891C13.9505 23.2891 13.5469 23.4661 13.25 23.8203C12.9583 24.1693 12.8125 24.6302 12.8125 25.2031H10.5469C10.5469 24.5104 10.7109 23.8776 11.0391 23.3047C11.3724 22.7318 11.8411 22.2839 12.4453 21.9609C13.0495 21.6328 13.7344 21.4688 14.5 21.4688C15.6719 21.4688 16.5807 21.75 17.2266 22.3125C17.8776 22.875 18.2031 23.6693 18.2031 24.6953C18.2031 25.2578 18.0573 25.8307 17.7656 26.4141C17.474 26.9974 16.974 27.6771 16.2656 28.4531L13.6797 31.1797H18.5703V33ZM27.6172 28.2969C27.6172 29.8698 27.2917 31.0729 26.6406 31.9062C25.9896 32.7396 25.0365 33.1562 23.7812 33.1562C22.5417 33.1562 21.5938 32.7474 20.9375 31.9297C20.2812 31.112 19.9453 29.9401 19.9297 28.4141V26.3203C19.9297 24.7318 20.2578 23.526 20.9141 22.7031C21.5755 21.8802 22.526 21.4688 23.7656 21.4688C25.0052 21.4688 25.9531 21.8776 26.6094 22.6953C27.2656 23.5078 27.6016 24.6771 27.6172 26.2031V28.2969ZM25.3594 26C25.3594 25.0573 25.2292 24.3724 24.9688 23.9453C24.7135 23.513 24.3125 23.2969 23.7656 23.2969C23.2344 23.2969 22.8411 23.5026 22.5859 23.9141C22.3359 24.3203 22.2031 24.9583 22.1875 25.8281V28.5938C22.1875 29.5208 22.3125 30.2109 22.5625 30.6641C22.8177 31.112 23.224 31.3359 23.7812 31.3359C24.3333 31.3359 24.7318 31.1198 24.9766 30.6875C25.2214 30.2552 25.349 29.5938 25.3594 28.7031V26ZM34.6328 33H32.375V24.2969L29.6797 25.1328V23.2969L34.3906 21.6094H34.6328V33ZM43.6172 28.4531C43.0286 29.0312 42.3411 29.3203 41.5547 29.3203C40.5495 29.3203 39.7448 28.9766 39.1406 28.2891C38.5365 27.5964 38.2344 26.6641 38.2344 25.4922C38.2344 24.7474 38.3958 24.0651 38.7188 23.4453C39.0469 22.8203 39.5026 22.3359 40.0859 21.9922C40.6693 21.6432 41.3255 21.4688 42.0547 21.4688C42.8047 21.4688 43.4714 21.6562 44.0547 22.0312C44.638 22.4062 45.0911 22.9453 45.4141 23.6484C45.737 24.3516 45.901 25.1562 45.9062 26.0625V26.8984C45.9062 28.7943 45.4349 30.2839 44.4922 31.3672C43.5495 32.4505 42.2135 33.0286 40.4844 33.1016L39.9297 33.1094V31.2266L40.4297 31.2188C42.3932 31.1302 43.4557 30.2083 43.6172 28.4531ZM42.1094 27.5938C42.474 27.5938 42.7865 27.5 43.0469 27.3125C43.3125 27.125 43.513 26.8984 43.6484 26.6328V25.7031C43.6484 24.9375 43.5026 24.3438 43.2109 23.9219C42.9193 23.5 42.5286 23.2891 42.0391 23.2891C41.5859 23.2891 41.2135 23.4974 40.9219 23.9141C40.6302 24.3255 40.4844 24.8438 40.4844 25.4688C40.4844 26.0885 40.625 26.599 40.9062 27C41.1927 27.3958 41.5938 27.5938 42.1094 27.5938Z" fill="white"/>
</svg>
