<svg width="102" height="56" viewBox="0 0 102 56" fill="none" xmlns="http://www.w3.org/2000/svg">
<line x1="4.37114e-08" y1="27.5" x2="74" y2="27.5" stroke="#F0ECE8"/>
<circle cx="74" cy="28" r="28" fill="#55237C"/>
<path d="M64.5703 33H56.7734V31.4531L60.4531 27.5312C60.9583 26.9792 61.3307 26.4974 61.5703 26.0859C61.8151 25.6745 61.9375 25.2839 61.9375 24.9141C61.9375 24.4089 61.8099 24.013 61.5547 23.7266C61.2995 23.4349 60.9349 23.2891 60.4609 23.2891C59.9505 23.2891 59.5469 23.4661 59.25 23.8203C58.9583 24.1693 58.8125 24.6302 58.8125 25.2031H56.5469C56.5469 24.5104 56.7109 23.8776 57.0391 23.3047C57.3724 22.7318 57.8411 22.2839 58.4453 21.9609C59.0495 21.6328 59.7344 21.4688 60.5 21.4688C61.6719 21.4688 62.5807 21.75 63.2266 22.3125C63.8776 22.875 64.2031 23.6693 64.2031 24.6953C64.2031 25.2578 64.0573 25.8307 63.7656 26.4141C63.474 26.9974 62.974 27.6771 62.2656 28.4531L59.6797 31.1797H64.5703V33ZM73.6172 28.2969C73.6172 29.8698 73.2917 31.0729 72.6406 31.9062C71.9896 32.7396 71.0365 33.1562 69.7812 33.1562C68.5417 33.1562 67.5938 32.7474 66.9375 31.9297C66.2812 31.112 65.9453 29.9401 65.9297 28.4141V26.3203C65.9297 24.7318 66.2578 23.526 66.9141 22.7031C67.5755 21.8802 68.526 21.4688 69.7656 21.4688C71.0052 21.4688 71.9531 21.8776 72.6094 22.6953C73.2656 23.5078 73.6016 24.6771 73.6172 26.2031V28.2969ZM71.3594 26C71.3594 25.0573 71.2292 24.3724 70.9688 23.9453C70.7135 23.513 70.3125 23.2969 69.7656 23.2969C69.2344 23.2969 68.8411 23.5026 68.5859 23.9141C68.3359 24.3203 68.2031 24.9583 68.1875 25.8281V28.5938C68.1875 29.5208 68.3125 30.2109 68.5625 30.6641C68.8177 31.112 69.224 31.3359 69.7812 31.3359C70.3333 31.3359 70.7318 31.1198 70.9766 30.6875C71.2214 30.2552 71.349 29.5938 71.3594 28.7031V26ZM82.9453 33H75.1484V31.4531L78.8281 27.5312C79.3333 26.9792 79.7057 26.4974 79.9453 26.0859C80.1901 25.6745 80.3125 25.2839 80.3125 24.9141C80.3125 24.4089 80.1849 24.013 79.9297 23.7266C79.6745 23.4349 79.3099 23.2891 78.8359 23.2891C78.3255 23.2891 77.9219 23.4661 77.625 23.8203C77.3333 24.1693 77.1875 24.6302 77.1875 25.2031H74.9219C74.9219 24.5104 75.0859 23.8776 75.4141 23.3047C75.7474 22.7318 76.2161 22.2839 76.8203 21.9609C77.4245 21.6328 78.1094 21.4688 78.875 21.4688C80.0469 21.4688 80.9557 21.75 81.6016 22.3125C82.2526 22.875 82.5781 23.6693 82.5781 24.6953C82.5781 25.2578 82.4323 25.8307 82.1406 26.4141C81.849 26.9974 81.349 27.6771 80.6406 28.4531L78.0547 31.1797H82.9453V33ZM91.9922 28.2969C91.9922 29.8698 91.6667 31.0729 91.0156 31.9062C90.3646 32.7396 89.4115 33.1562 88.1562 33.1562C86.9167 33.1562 85.9688 32.7474 85.3125 31.9297C84.6562 31.112 84.3203 29.9401 84.3047 28.4141V26.3203C84.3047 24.7318 84.6328 23.526 85.2891 22.7031C85.9505 21.8802 86.901 21.4688 88.1406 21.4688C89.3802 21.4688 90.3281 21.8776 90.9844 22.6953C91.6406 23.5078 91.9766 24.6771 91.9922 26.2031V28.2969ZM89.7344 26C89.7344 25.0573 89.6042 24.3724 89.3438 23.9453C89.0885 23.513 88.6875 23.2969 88.1406 23.2969C87.6094 23.2969 87.2161 23.5026 86.9609 23.9141C86.7109 24.3203 86.5781 24.9583 86.5625 25.8281V28.5938C86.5625 29.5208 86.6875 30.2109 86.9375 30.6641C87.1927 31.112 87.599 31.3359 88.1562 31.3359C88.7083 31.3359 89.1068 31.1198 89.3516 30.6875C89.5964 30.2552 89.724 29.5938 89.7344 28.7031V26Z" fill="white"/>
</svg>
