<svg width="20" height="20" viewBox="0 0 20 20" fill="none" xmlns="http://www.w3.org/2000/svg">
<path d="M14.1665 5.83301H10.8332V7.49967H14.1665C15.5415 7.49967 16.6665 8.62467 16.6665 9.99967C16.6665 11.3747 15.5415 12.4997 14.1665 12.4997H10.8332V14.1663H14.1665C16.4665 14.1663 18.3332 12.2997 18.3332 9.99967C18.3332 7.69967 16.4665 5.83301 14.1665 5.83301ZM9.1665 12.4997H5.83317C4.45817 12.4997 3.33317 11.3747 3.33317 9.99967C3.33317 8.62467 4.45817 7.49967 5.83317 7.49967H9.1665V5.83301H5.83317C3.53317 5.83301 1.6665 7.69967 1.6665 9.99967C1.6665 12.2997 3.53317 14.1663 5.83317 14.1663H9.1665V12.4997ZM6.6665 9.16634H13.3332V10.833H6.6665V9.16634Z" fill="#4D98A0"/>
</svg>
