<svg width="24" height="23" viewBox="0 0 24 23" fill="none" xmlns="http://www.w3.org/2000/svg">
<path d="M6.62 10.2182C8.06 12.9104 10.38 15.1078 13.21 16.4872L15.41 14.3944C15.68 14.1375 16.08 14.0519 16.43 14.1661C17.55 14.518 18.76 14.7083 20 14.7083C20.55 14.7083 21 15.1364 21 15.6596V18.9796C21 19.5028 20.55 19.9309 20 19.9309C10.61 19.9309 3 12.6916 3 3.75891C3 3.2357 3.45 2.80762 4 2.80762H7.5C8.05 2.80762 8.5 3.2357 8.5 3.75891C8.5 4.94803 8.7 6.08958 9.07 7.15503C9.18 7.48798 9.1 7.85899 8.82 8.12535L6.62 10.2182Z" fill="#4D98A0"/>
</svg>
