<svg width="328" height="344" viewBox="0 0 328 344" fill="none" xmlns="http://www.w3.org/2000/svg">
<g clip-path="url(#clip0)">
<path d="M13.9716 233.442C-14.7851 169.719 2.81645 94.743 48.7609 61.8034C94.7054 28.8638 148.022 75.6177 202.774 48.7403C257.527 21.8628 358.555 82.2057 317.748 181.58C276.941 280.954 214.809 342.966 161.365 343.491C95.2394 344.145 42.7208 297.15 13.9716 233.442Z" fill="white"/>
<path d="M222.045 86.1338H104.935C105.597 103.584 35.3341 198.399 163.494 210.688C291.647 198.392 221.384 103.584 222.045 86.1338Z" fill="#CCA372"/>
<path d="M280.754 252.221C279.43 218.365 220.435 226.058 200.622 218.365C180.809 210.674 187.691 180.551 187.691 171.318H140.919C140.919 180.551 147.802 210.674 127.989 218.365C108.176 226.058 49.1812 218.365 47.8574 252.221L48.5193 288.421C77.7122 322.33 116.391 343.941 161.364 343.491C200.426 343.107 244.129 309.868 280.754 253.214V252.221Z" fill="#FFD7CE"/>
<path d="M280.753 252.221C280.038 233.983 262.587 227.801 243.535 224.781C237.577 243.162 220.306 256.458 199.921 256.458H126.958C106.671 256.458 89.4685 243.29 83.4358 225.043C65.0294 228.162 48.5412 234.502 47.8491 252.221L48.5111 288.421C77.704 322.33 116.382 343.942 161.357 343.491C200.419 343.108 244.121 309.867 280.746 253.213L280.753 252.221Z" fill="#289AA1"/>
<path d="M185.504 171.318H140.921C140.921 176.577 143.148 188.618 141.402 199.428C168.166 194.861 180.547 179.777 185.504 171.318Z" fill="#F8CBC5"/>
<path d="M178.434 39.4179C178.434 39.4179 186.498 15.9207 174.469 5.67451C162.472 -4.54916 147.616 0.506329 142.328 9.30274C136.461 19.0681 137.814 29.8553 148.384 47.0049C148.827 46.9973 178.434 39.4179 178.434 39.4179Z" fill="#CCA372"/>
<path d="M201.125 137.141C214.725 137.141 224.421 135.683 224.421 125.542C224.421 115.4 211.708 115.341 204.457 115.341L201.125 137.141Z" fill="#FFD7CE"/>
<path d="M143.644 38.4934C144.305 39.853 145.043 41.2502 145.854 42.7L157.115 44.8485C165.991 42.6024 178.433 39.4173 178.433 39.4173C178.433 39.4173 179.712 35.6765 180.494 30.5233C164.374 30.2529 150.782 35.2257 143.644 38.4934Z" fill="#C1986C"/>
<path d="M126.764 137.141C113.165 137.141 103.469 135.683 103.469 125.542C103.469 115.4 116.181 115.341 123.432 115.341L126.764 137.141Z" fill="#FFD7CE"/>
<path d="M112.345 132.55C110.397 132.55 107.884 131.784 106.501 128.937C104.605 125.038 107.215 122.117 108.863 121.118C109.381 120.801 110.066 120.967 110.381 121.485C110.698 122.004 110.533 122.68 110.013 122.995C109.698 123.19 107.027 124.971 108.486 127.968C110.028 131.131 113.369 130.236 113.511 130.199C114.098 130.034 114.707 130.379 114.872 130.965C115.038 131.551 114.692 132.16 114.106 132.325C113.639 132.46 113.03 132.55 112.345 132.55Z" fill="#FFA8A8"/>
<path d="M212.409 123.018C223.707 106.92 226.204 78.8782 213.725 60.1885C201.254 41.5066 179.763 34.9111 160.387 34.9111C141.018 34.9111 106.454 52.0006 104.965 85.4736C103.475 118.947 115.398 126.24 115.398 126.24L212.409 123.018Z" fill="#CCA372"/>
<path d="M214.246 132.55C213.568 132.55 212.952 132.459 212.485 132.324C211.899 132.159 211.552 131.551 211.717 130.965C211.884 130.379 212.5 130.033 213.08 130.198C213.433 130.296 216.608 131.047 218.104 127.967C219.609 124.88 216.705 123.07 216.577 122.994C216.058 122.679 215.893 122.003 216.208 121.477C216.525 120.959 217.209 120.794 217.728 121.109C219.375 122.108 221.993 125.031 220.09 128.929C218.698 131.784 216.186 132.55 214.246 132.55Z" fill="#FFA8A8"/>
<path d="M113.646 100.361C113.646 120.553 116.46 141.391 124.26 154.371C133.362 169.515 146.503 182.639 163.682 182.639C180.863 182.639 194.012 169.515 203.105 154.371C210.906 141.384 213.719 120.553 213.719 100.361C213.719 80.1691 197.103 51.2783 164.571 51.2783C132.038 51.2783 113.646 72.0487 113.646 100.361Z" fill="#FFD7CE"/>
<path d="M136.28 114.747C136.023 112.749 136.626 111.216 137.528 109.947C138.461 108.701 139.799 107.746 141.41 107.28C143.004 106.8 144.907 106.913 146.502 107.663C148.111 108.399 149.322 109.902 149.601 111.811L149.368 112.185C148.811 111.976 148.315 111.653 147.735 111.533L146.9 111.292L146.043 111.179C144.899 111.081 143.742 111.164 142.635 111.509C141.522 111.825 140.462 112.336 139.453 112.937C138.453 113.545 137.476 114.244 136.61 115.041L136.28 114.747Z" fill="#CCA372"/>
<path d="M191.227 112.013C190.401 111.179 189.46 110.428 188.497 109.767C187.519 109.113 186.489 108.55 185.398 108.175C184.315 107.769 183.157 107.634 182.013 107.664L181.149 107.732L180.306 107.927C179.727 108.017 179.207 108.31 178.644 108.49L178.433 108.099C178.809 106.207 180.088 104.764 181.743 104.118C183.374 103.45 185.277 103.435 186.843 103.998C188.422 104.546 189.716 105.568 190.573 106.868C191.408 108.182 191.927 109.745 191.566 111.728L191.227 112.013Z" fill="#CCA372"/>
<path d="M155.784 149.317C155.301 149.317 154.866 149.002 154.723 148.521C154.55 147.935 154.888 147.327 155.475 147.154C162.402 145.14 171.354 146.2 171.73 146.237C172.332 146.313 172.769 146.862 172.693 147.462C172.617 148.07 172.069 148.498 171.467 148.424C171.377 148.409 162.583 147.387 156.099 149.265C155.986 149.303 155.888 149.317 155.784 149.317Z" fill="#FFA8A8"/>
<path d="M136.445 145.05C140.54 145.05 143.861 141.734 143.861 137.644C143.861 133.553 140.54 130.236 136.445 130.236C132.348 130.236 129.027 133.553 129.027 137.644C129.027 141.734 132.348 145.05 136.445 145.05Z" fill="#FFA8A8"/>
<path d="M191.287 145.05C195.383 145.05 198.703 141.734 198.703 137.644C198.703 133.553 195.383 130.236 191.287 130.236C187.19 130.236 183.87 133.553 183.87 137.644C183.87 141.734 187.19 145.05 191.287 145.05Z" fill="#FFA8A8"/>
<path d="M162.725 118.494L157.333 135.057C156.911 136.343 157.927 137.642 159.341 137.642H165.073C166.254 137.642 167.201 136.725 167.179 135.606L166.84 119.043C166.795 116.774 163.433 116.324 162.725 118.494Z" fill="#FFA8A8"/>
<path d="M167.73 65.0784C167.73 65.0784 156.846 86.044 124.2 92.1887C124.328 92.061 138.884 52.9316 138.884 52.9316L167.73 65.0784Z" fill="#F8CBC5"/>
<path d="M216.139 97.4925C216.139 97.4925 192.355 97.9958 170.187 83.7983C148.021 69.6009 148.637 47.1704 148.637 47.1704C148.637 47.1704 170.391 45.2925 189.715 54.1865C209.04 63.0806 217.065 81.342 216.139 97.4925Z" fill="#CCA372"/>
<path d="M108.215 106.003C108.215 106.003 152.912 88.1476 153.445 47.3281C153.671 48.0943 133.798 45.9834 123.793 57.9048C113.797 69.8412 109.547 88.0349 108.215 106.003Z" fill="#CCA372"/>
<path d="M143.891 122.536C145.432 122.536 146.681 121.288 146.681 119.749C146.681 118.21 145.432 116.962 143.891 116.962C142.349 116.962 141.1 118.21 141.1 119.749C141.1 121.288 142.349 122.536 143.891 122.536Z" fill="#222221"/>
<path d="M183.842 122.664C185.384 122.664 186.633 121.416 186.633 119.877C186.633 118.338 185.384 117.09 183.842 117.09C182.301 117.09 181.052 118.338 181.052 119.877C181.052 121.416 182.301 122.664 183.842 122.664Z" fill="#222221"/>
</g>
<defs>
<clipPath id="clip0">
<rect width="328" height="344" fill="white"/>
</clipPath>
</defs>
</svg>
