<svg width="32" height="32" viewBox="0 0 32 32" fill="none" xmlns="http://www.w3.org/2000/svg">
<path fill-rule="evenodd" clip-rule="evenodd" d="M16.0002 0L15.9894 0.0112896L0 16.0002L16 32L32 15.9998L16.0002 0Z" fill="#231F20"/>
<path fill-rule="evenodd" clip-rule="evenodd" d="M16.0008 7.36826L25.2938 16.6611L16.0006 25.9541L6.70752 16.6611L16.0008 7.36826Z" fill="white"/>
<path d="M0.820904 16.0153L15.9778 0.85837L31.1352 16.0155L15.9776 31.1723L0.820904 16.0153ZM15.9778 0.45739L0.419922 16.0153L15.9776 31.5732L31.5358 16.0153L15.9778 0.45739Z" fill="white"/>
<path fill-rule="evenodd" clip-rule="evenodd" d="M16.2178 10.7212C15.9974 10.6508 15.3917 10.9231 15.3038 10.686C15.137 10.7298 14.9087 10.9229 14.7685 11.0547L14.6981 13.0395C14.6978 13.5141 14.8035 14.2958 14.9875 14.6735C14.6893 15.0598 13.9072 17.791 13.6877 18.327C13.4242 18.9242 13.433 19.3457 13.275 19.5128C12.9761 19.0739 12.7744 19.082 12.6426 19.1965C12.6426 20.2416 13.1605 20.6372 13.5911 20.637C13.9772 19.8725 14.6981 16.6145 15.0665 16.2804C15.225 16.1311 15.8039 15.1564 15.8039 16.2104C15.778 16.2011 17.0863 19.7935 17.2446 20.0834C17.4203 20.1017 17.3586 20.4961 17.6311 20.8652C18.0086 20.6896 18.1931 20.6106 18.2281 20.3468C18.0703 19.4076 17.8772 18.74 17.5081 19.4778C17.0866 18.3092 16.4456 16.7197 16.1293 15.4459C16.0764 15.0598 16.0591 14.6821 16.0852 14.3574C16.3313 13.5315 16.393 11.2128 16.2178 10.7212Z" fill="#231F20"/>
<path fill-rule="evenodd" clip-rule="evenodd" d="M16.0501 9.90391C16.296 8.91142 15.7605 9.24511 15.5144 9.45621C15.4794 9.49978 15.4266 9.54403 15.383 9.57C15.339 9.75445 15.4008 9.87772 15.2514 9.90391C15.1102 10.5977 15.567 10.6679 15.9273 10.6065C16.0675 10.4487 16.0413 10.0096 16.0501 9.90391Z" fill="#231F20"/>
<path d="M11.1313 15.8344C11.2327 15.4758 11.1133 15.2246 11.2568 14.8543C11.5497 14.7945 11.8667 14.7884 12.1832 14.848C12.2548 15.7567 12.3085 16.5756 12.3141 17.2448C11.9202 16.7905 11.5138 16.2945 11.1313 15.8344ZM11.8364 17.3703C11.6569 17.4419 11.3165 17.424 11.2268 17.364C11.2268 17.4721 10.8986 17.4003 10.8024 17.4121C10.8444 17.3227 10.7665 17.3583 10.7787 17.2147C10.7967 17.1131 10.7787 16.6767 10.8268 16.42C10.7491 16.0737 10.862 16.145 10.8864 16.0852C10.922 16.1152 10.9284 16.127 10.9819 16.157C11.018 16.42 10.988 16.5697 11.0476 17.2631C11.1194 17.2685 11.2024 17.2443 11.239 17.2448L11.2151 17.0237C11.2092 16.886 11.2214 16.6826 11.1972 16.5097C11.6095 16.7065 11.6034 17.0059 11.801 17.0477C11.8249 17.0775 11.8662 17.1371 11.884 17.257C11.8308 17.3942 11.8725 17.3044 11.8364 17.3703ZM11.4896 19.4083C11.2329 19.0496 10.9699 18.6258 10.7134 18.2488C10.5393 18.0514 10.4976 17.8126 10.366 17.7349C10.4262 17.657 10.5274 17.7049 10.7904 17.6629C11.0832 17.6157 11.3941 17.6155 11.693 17.6688C11.6456 18.3325 11.5856 18.9297 11.4896 19.4083ZM10.3007 17.4062C10.2646 17.4001 10.2048 17.3642 10.1512 17.3701C10.1449 17.2211 10.121 17.0477 10.1151 16.9041C10.1156 16.7725 10.0673 16.5751 10.0436 16.4198C10.0494 16.2405 10.0318 16.0674 10.0616 15.9118C10.0853 15.7687 10.0372 15.5953 10.0795 15.398C10.181 15.1349 10.0557 14.9918 10.3603 15.4339C10.4558 15.3921 10.5633 15.428 10.6292 15.8644C10.5098 16.2347 10.6114 16.3606 10.5222 16.534C10.4861 16.8501 10.498 17.1077 10.4499 17.3405C10.3962 17.406 10.3362 17.4121 10.3007 17.4062ZM10.9281 14.866C10.9518 15.0995 10.946 15.3503 10.922 15.6251C10.6949 15.398 10.4624 15.153 10.2531 14.8902C10.5161 14.8841 10.4021 14.7825 10.9281 14.866ZM14.3644 14.5314C12.8289 14.5911 11.2927 14.645 9.7627 14.699C9.94151 15.3499 9.83426 16.5456 9.87603 17.5435C10.5755 18.5831 11.2747 19.6233 11.9741 20.6693C12.0154 20.7645 12.0633 20.8666 12.1112 20.968C12.2787 21.0576 12.446 21.1474 12.6194 21.2373C12.5176 21.0219 12.4223 20.8063 12.3266 20.5972C12.2491 20.5142 12.171 20.436 12.0992 20.3586C11.9741 20.173 11.8484 19.9881 11.7228 19.8089C11.8066 19.0855 11.8967 18.3687 11.9861 17.6512C12.0936 17.6392 12.2071 17.6211 12.3205 17.6035C12.6076 17.9499 12.9781 18.4759 13.0976 18.4463C13.1452 18.3745 13.1933 18.2966 13.2412 18.219C13.0079 18.0338 12.6973 17.8304 12.6494 17.5678C13.0556 17.5678 13.4681 17.5615 13.8864 17.5615C13.8808 17.466 13.8742 17.3764 13.8686 17.2865C13.4443 17.2687 12.9 17.2445 12.6316 17.2509C12.4282 16.4261 12.4645 15.6608 12.3685 14.8123C12.7212 14.7525 13.0976 14.7227 13.48 14.7644C13.5161 15.5655 13.552 16.3722 13.5936 17.1791C13.6773 17.1251 13.7667 17.0772 13.8625 17.0355C13.7428 16.3661 13.725 15.5714 13.7248 14.7581C13.9225 14.7583 14.1194 14.7583 14.3226 14.7644C14.3348 14.6866 14.3468 14.6093 14.3644 14.5314Z" fill="#231F20"/>
<path d="M21.7223 17.8486C21.6681 17.8124 21.6141 17.7707 21.5724 17.6987C21.5785 17.5914 21.5721 17.4666 21.5785 17.3884C21.8652 17.3582 21.8774 17.3884 22.0386 17.3882C21.949 17.5323 21.8534 17.6935 21.7223 17.8486ZM21.226 15.9238C21.1781 15.8461 21.3276 15.8166 21.2797 15.6012C21.459 15.2844 21.65 15.0514 21.8295 14.8423C21.9309 14.9913 21.9546 15.9956 22.0266 17.0717C21.8593 17.1078 21.6559 17.1012 21.471 17.113C21.2016 16.3063 21.5904 15.8461 21.226 15.9238ZM21.0768 18.5661C21.1422 18.4941 21.0998 19.0856 20.7415 19.3489C20.6277 19.1513 20.8494 19.4146 20.6641 19.1032C20.5387 19.1095 20.6401 18.8948 20.5859 18.8467C20.4191 18.6137 20.455 18.3624 20.455 18.2012C20.3949 17.8549 20.3717 17.5977 20.3473 17.3823C20.5146 17.3347 20.7715 17.3523 20.8318 17.3345C21.2199 17.2986 21.3096 17.5553 21.2556 17.6151C21.333 17.7289 21.2258 17.9563 21.3333 18.0398C21.4168 18.3326 21.1538 18.4047 21.0768 18.5661ZM19.4683 21.3386C19.4448 21.3269 19.3728 21.303 19.3728 21.2967C19.3374 20.4364 19.0861 19.6117 19.1342 18.6672C19.301 18.3922 19.4871 18.1893 19.6539 18.0281C19.5939 17.8608 19.923 17.9084 19.923 17.9084C19.9111 17.7172 20.138 17.7233 20.138 17.7589C20.1321 18.0874 20.1737 18.4645 20.1737 18.4645C20.2755 18.8704 20.3536 19.2468 20.4071 19.5934C20.1441 20.1432 19.8449 20.6157 19.4683 21.3386ZM20.8912 14.5256C20.939 14.9679 20.9749 15.3682 20.9745 15.6969C20.6704 16.2286 20.3651 16.6176 20.0784 17.0656C19.7198 16.8924 19.7797 15.4695 19.7612 14.5734C20.1262 14.4894 20.5031 14.4782 20.8912 14.5256ZM21.0585 16.7725C21.1183 16.8746 21.1483 17.0057 21.1601 17.0956C20.8196 17.1313 20.8015 17.1012 20.6044 17.1134C20.706 16.6472 20.9088 16.4079 21.0404 16.1988C21.0702 16.3781 21.1 16.5456 21.0585 16.7725ZM21.6502 14.5375C21.5121 14.7647 21.3574 15.0096 21.1836 15.2546C21.1481 15.1234 21.1124 14.9979 21.1481 14.8245C21.1063 14.7285 21.0946 14.5971 21.0946 14.5136C21.4351 14.5014 21.4531 14.5317 21.6502 14.5375ZM18.6977 17.143C18.626 16.2826 18.5602 15.4278 18.4945 14.5732C18.847 14.4958 19.2116 14.4958 19.5821 14.5617C19.5345 15.44 19.5823 16.2948 19.6955 17.1252C19.3613 17.1315 19.0265 17.1374 18.6977 17.143ZM17.3769 17.0954C17.341 16.2826 17.3051 15.4637 17.2751 14.6391C17.5684 14.5014 17.8969 14.5197 18.2972 14.5793C18.4288 15.703 18.4286 16.9337 18.4821 17.1674C18.1058 17.143 17.383 17.2326 17.3769 17.0954ZM22.2955 17.0541L21.9966 14.3221C20.2459 14.3519 18.4885 14.3705 16.7314 14.3881C16.7495 14.4477 16.7671 14.508 16.7856 14.5676L17.0539 14.6213L17.1618 17.1615L16.9288 17.2326L17.0003 17.4602L19.7074 17.4065L18.8052 18.655C18.8587 19.8449 18.9488 20.9564 19.2717 21.9844L20.0303 20.753L20.3053 20.7351C20.7713 19.6893 21.4285 18.6555 22.3075 17.6451L22.2955 17.0541Z" fill="#231F20"/>
<path d="M5.55883 16.2323C5.48546 16.3244 5.40982 16.4188 5.29852 16.5294C4.52277 17.3034 3.84252 17.1939 3.52644 16.8767C3.13495 16.4843 3.018 15.6525 3.65942 14.6636L4.21662 15.014C3.80685 15.6017 3.82288 16.0199 4.04458 16.242C4.22633 16.4242 4.57357 16.3752 4.88806 16.0614C4.98289 15.967 5.0513 15.8844 5.10345 15.8232L5.55883 16.2323Z" fill="white"/>
<path d="M4.80164 13.6001C4.85357 13.6567 5.33017 14.1534 5.62728 14.4514L6.05896 14.8845C6.11585 14.8276 6.39491 14.5494 6.57462 14.3512L7.01578 14.7887C6.95911 14.8454 6.1145 15.6404 5.9253 15.8291C5.80745 15.6968 5.30262 15.1904 5.24596 15.1335L4.93236 14.819C4.89466 14.7811 4.29794 14.1923 4.24805 14.1521L4.80164 13.6001Z" fill="white"/>
<path d="M7.69013 12.3384C7.38805 12.0309 7.06926 11.995 6.84214 12.2215C6.57234 12.4904 6.67574 12.897 6.9636 13.1853C7.27968 13.5023 7.60818 13.4957 7.80211 13.3023C8.05746 13.0476 8.03917 12.6931 7.69013 12.3384ZM6.42175 13.7965C5.96659 13.34 5.80946 12.5202 6.50732 11.8241C7.07016 11.2626 7.73416 11.2234 8.25321 11.7438C8.60925 12.1009 8.93413 12.9044 8.14167 13.6949C7.50771 14.3223 6.79946 14.1749 6.42175 13.7965Z" fill="white"/>
<path d="M9.74219 9.08732C9.78215 9.307 10.226 11.1949 10.3175 11.6462L10.2938 11.6699C9.6704 11.5369 8.02204 11.0906 7.81885 11.043L8.05162 10.2591C8.2074 10.316 9.25814 10.693 9.48955 10.7784C9.40015 10.5467 9.0283 9.43592 8.98586 9.32732L9.74219 9.08732Z" fill="white"/>
<path d="M12.5437 9.27591C12.4586 9.3608 11.581 10.1887 11.458 10.3115C11.3401 10.179 10.8353 9.67259 10.7811 9.61841L10.465 9.30142C10.4271 9.26349 9.85387 8.69816 9.7832 8.63201C9.91573 8.49971 10.675 7.67181 10.7556 7.57743L11.1541 7.95831C11.0667 8.04546 10.7071 8.42769 10.6644 8.47013L10.9757 8.78237C11.0231 8.73541 11.2835 8.45207 11.3781 8.33896L11.7628 8.71035C11.6986 8.77402 11.3747 9.07814 11.3225 9.13006L11.6034 9.4116C11.6648 9.35042 12.0269 8.99889 12.1285 8.87855L12.5437 9.27591Z" fill="white"/>
<path d="M12.9861 8.83496C12.9202 8.76407 12.5285 8.35723 12.2596 8.08743L12.0094 7.83683C11.8042 7.63092 11.3183 7.16245 11.2642 7.10826L11.815 6.55851C11.8507 6.5987 12.3106 7.07891 12.5158 7.28482L12.577 7.34623L12.5818 7.34171C12.5423 7.02721 12.4348 6.03969 12.4233 5.91913L13.1602 5.87307C13.1649 6.0573 13.1663 6.62669 13.1731 6.88881C13.3525 6.89852 14.0445 6.91591 14.243 6.92087L14.1902 7.70046C14.1005 7.69075 13.1107 7.56432 12.7328 7.49298L12.7283 7.49749L12.7705 7.54016C12.9523 7.72236 13.4878 8.24525 13.5372 8.28521L12.9861 8.83496Z" fill="white"/>
<path d="M18.3462 8.06691C18.4126 8.01025 18.7508 7.67769 19.0086 7.42053L19.6283 6.80237C19.5152 6.68903 19.1685 6.36483 19.0928 6.29393L19.5067 5.881C19.6033 5.99682 20.153 6.56689 20.179 6.59285L20.3842 6.79876C20.4292 6.84369 20.9527 7.34987 21.078 7.45643L20.664 7.86914C20.6213 7.82195 20.1968 7.37244 20.1589 7.33451L19.5015 7.9906C19.2579 8.23331 18.9339 8.56135 18.8912 8.61328L18.3462 8.06691Z" fill="white"/>
<path d="M22.5019 7.73053L22.3974 8.1035L21.7483 7.85922L21.8197 7.60432L22.5019 7.73053ZM20.9904 9.2897C20.754 9.52586 20.3375 9.95505 20.2856 10.0117L19.7383 9.46287C19.8469 9.36398 20.4027 8.81423 20.4646 8.75304L20.7197 8.49792C20.7601 8.45819 21.3607 7.84454 21.4176 7.7881L21.9648 8.33695C21.9201 8.37691 21.5298 8.75192 21.246 9.03503L20.9904 9.2897Z" fill="white"/>
<path d="M21.1432 10.1473C21.3646 10.3839 21.6787 10.5709 21.7898 10.46C21.8372 10.4126 21.8254 10.3442 21.743 10.0439C21.6798 9.81026 21.6259 9.51969 21.8245 9.32146C22.0896 9.05708 22.7294 9.12188 23.3783 9.66847L23.0473 10.1263C22.7522 9.8308 22.5538 9.73124 22.4567 9.82787C22.4 9.88453 22.44 9.99561 22.5179 10.2248C22.5811 10.4115 22.6777 10.721 22.4648 10.9332C22.2045 11.1927 21.6022 11.2511 20.8022 10.6147L21.1432 10.1473Z" fill="white"/>
<path d="M22.1846 11.9158C22.3668 11.7625 23.6345 10.6115 23.9727 10.3214L24.0104 10.3308C24.0993 10.912 24.2818 12.2447 24.303 12.3888C24.433 12.2589 25.0598 11.6198 25.1638 11.5207L25.6332 12.0149C25.4348 12.1849 25.0609 12.515 24.6942 12.838C24.3326 13.1613 23.9801 13.4797 23.8194 13.626L23.7839 13.614C23.6853 13.1462 23.5103 11.6177 23.5031 11.5538C23.4062 11.6507 22.7251 12.3346 22.6494 12.4149L22.1846 11.9158Z" fill="white"/>
<path d="M25.7155 14.028C25.4791 14.2639 25.0626 14.6931 25.0106 14.75L24.4634 14.2009C24.5722 14.102 25.1278 13.5525 25.1897 13.4909L25.445 13.2364C25.485 13.196 26.0862 12.5828 26.1429 12.5262L26.6899 13.0748C26.6452 13.1152 26.2549 13.4902 25.9711 13.7733L25.7155 14.028Z" fill="white"/>
<path d="M17.4087 4.25821C17.2816 4.44199 16.2604 6.0908 16.006 6.47461H15.9726C15.626 5.93953 14.776 4.4587 14.666 4.28147L15.3849 3.89156C15.4546 4.04192 15.931 5.05135 16.0344 5.27531C16.1349 5.04841 16.6575 4.00016 16.7045 3.89314L17.4087 4.25821Z" fill="white"/>
<path d="M9.48985 8.14355L9.43115 7.83402L9.87547 7.74936L9.92785 7.33868L10.2326 7.4028L10.1042 7.99319L9.48985 8.14355Z" fill="white"/>
<path d="M2.32726 15.2861L2.26855 14.9768L2.71287 14.8922L2.76525 14.4815L3.07004 14.5454L2.94158 15.1358L2.32726 15.2861Z" fill="white"/>
<path d="M7.43089 18.2272L7.67021 18.1809L7.73568 18.5282L8.05605 18.5668L8.00593 18.8023L7.54671 18.7056L7.43089 18.2272ZM6.53571 20.3418C6.4664 20.2878 6.39663 20.2298 6.31377 20.1472C5.73896 19.5721 5.78502 19.0858 6.01282 18.858C6.28465 18.5862 6.9001 18.5146 7.61422 19.0125L7.36722 19.4139C6.94842 19.1147 6.65717 19.1129 6.50478 19.2653C6.37744 19.3927 6.41989 19.6162 6.65333 19.8498C6.72468 19.9212 6.78451 19.9731 6.83079 20.0119L6.53571 20.3418Z" fill="white"/>
<path d="M8.07374 21.8877C8.00239 21.8164 7.38694 21.1659 7.28467 21.0636C7.37543 20.9805 7.72628 20.6297 7.76511 20.5911L7.9832 20.373C8.01007 20.3459 8.40178 19.9465 8.4501 19.8982C8.56005 20.0084 9.17144 20.5737 9.25068 20.6412L8.9766 20.9307C8.91112 20.865 8.62552 20.5988 8.59459 20.5678L8.39591 20.7665C8.43068 20.8013 8.6411 20.9964 8.72577 21.0654L8.45574 21.3436C8.40946 21.2971 8.18166 21.0578 8.14305 21.0194L7.96559 21.1966C8.01007 21.2413 8.27242 21.5113 8.36318 21.5865L8.07374 21.8877Z" fill="white"/>
<path d="M9.05371 22.3113C9.23885 22.5041 9.46845 22.6721 9.54747 22.5931C9.58428 22.5563 9.57276 22.4983 9.49148 22.2901C9.42985 22.128 9.36234 21.9022 9.51677 21.748C9.71929 21.5453 10.2015 21.6304 10.6917 22.0702L10.4409 22.4136C10.2015 22.1745 10.0647 22.0684 9.99518 22.1377C9.95251 22.1804 9.99337 22.2671 10.0629 22.4254C10.1205 22.5563 10.221 22.7958 10.0568 22.9595C9.85633 23.1605 9.39892 23.1584 8.80469 22.6491L9.05371 22.3113Z" fill="white"/>
<path d="M10.3115 24.1259C10.3619 24.0796 10.6434 23.8055 10.8306 23.6184L11.0042 23.4448C11.1471 23.3021 11.4711 22.9661 11.5097 22.9277L11.9418 23.3599C11.9129 23.3849 11.6081 23.6744 11.4654 23.8173L11.4171 23.8654L11.421 23.8692C11.614 23.85 12.3105 23.7864 12.3972 23.7807L12.432 24.3363C12.2967 24.3323 11.9265 24.3284 11.7393 24.3266C11.7373 24.456 11.7449 24.9267 11.747 25.0674L11.1354 25.0116C11.1394 24.9495 11.232 24.2474 11.2665 24.0236L11.2627 24.0196L11.2338 24.0487C11.1065 24.176 10.7725 24.5215 10.7439 24.558L10.3115 24.1259Z" fill="white"/>
<path d="M14.6332 25.121L14.5522 25.4104L14.0505 25.2212L14.1047 25.0244L14.6332 25.121ZM13.3269 26.2419C13.3734 26.0993 13.4177 25.9274 13.4524 25.8272C13.3328 25.8658 13.1592 25.9198 13.0241 25.9661L13.3269 26.2419ZM12.1597 25.696C12.2947 25.6651 13.5353 25.366 13.9638 25.2928L14.0004 25.3294C13.9173 25.8407 13.6838 26.9924 13.6626 27.1602L13.1129 27.0003C13.1397 26.8689 13.1996 26.6316 13.2054 26.5989L12.6652 26.109C12.6401 26.1146 12.4453 26.1821 12.3294 26.2207L12.1597 25.696Z" fill="white"/>
<path d="M15.9662 28.8933C16.0281 28.9549 16.4466 29.366 16.4758 29.3872L16.0608 29.8018C16.0299 29.7555 15.6402 29.3696 15.6054 29.3351L15.3392 29.0687C15.2891 29.0188 14.9301 28.6675 14.8936 28.6386C15.1405 28.3916 15.3835 28.1446 15.5727 27.9981C15.8639 27.7723 16.1032 27.7299 16.2538 27.8804C16.3906 28.0173 16.4157 28.2008 16.3617 28.4282C16.4697 28.432 16.9598 28.4128 17.0582 28.4185L16.9637 29.0109C16.8598 28.9919 16.0802 28.8488 15.9605 28.8255C16.0068 28.6907 16.0281 28.5072 15.9064 28.3857C15.8294 28.3087 15.7156 28.2952 15.5399 28.4668L15.9662 28.8933Z" fill="white"/>
<path d="M18.5708 27.3262C18.4995 27.3973 17.8492 28.013 17.747 28.1152C17.6639 28.0245 17.3128 27.6734 17.2742 27.6346L17.0563 27.4167C17.0292 27.3896 16.6299 26.9981 16.5815 26.9498C16.6917 26.8399 17.2568 26.2282 17.3243 26.149L17.6138 26.4231C17.5483 26.4888 17.2819 26.7744 17.251 26.8051L17.4499 27.004C17.4844 26.9692 17.6795 26.7588 17.7488 26.6739L18.0269 26.9442C17.9804 26.9904 17.7411 27.218 17.7025 27.2564L17.8797 27.4343C17.9244 27.3896 18.1945 27.1273 18.2696 27.0367L18.5708 27.3262Z" fill="white"/>
<path d="M19.0571 25.7556C19.1478 25.6571 19.2038 25.4506 19.0532 25.3C18.9606 25.2076 18.8451 25.1921 18.6559 25.3542L19.0571 25.7556ZM19.1711 26.6914C19.0995 26.6198 18.7098 26.2223 18.5922 26.1049L18.4127 25.9254C18.3743 25.8865 18.0307 25.551 18.0059 25.526C18.3802 25.1516 18.5922 24.9548 18.7735 24.843C18.9898 24.7078 19.2406 24.6502 19.4257 24.8351C19.6535 25.0629 19.6572 25.5183 19.3002 25.9985L19.3429 26.0412C19.3754 26.0739 19.5472 26.2455 19.5838 26.2782L19.1711 26.6914Z" fill="white"/>
<path d="M20.398 23.9432C20.6604 24.2055 20.7841 24.306 20.9248 24.3119C21.0002 24.3139 21.06 24.285 21.114 24.2308C21.1756 24.169 21.1989 24.0958 21.1853 24.0166C21.1659 23.901 21.1063 23.8371 20.7338 23.4648L20.6721 23.4029C20.5583 23.2894 20.4367 23.1832 20.3748 23.1252L20.7995 22.701C20.836 22.7376 20.9616 22.859 21.0907 22.9884L21.1682 23.0654C21.4827 23.3799 21.6522 23.5921 21.6716 23.8739C21.6867 24.1017 21.5709 24.3446 21.3763 24.5395C21.2336 24.6821 20.9884 24.8849 20.6721 24.8309C20.4678 24.7962 20.3132 24.7074 19.9158 24.3098L19.8273 24.2211C19.7519 24.1457 19.6167 24.0069 19.5801 23.9705L20.0124 23.5382C20.049 23.5865 20.1377 23.6831 20.2881 23.8335L20.398 23.9432Z" fill="white"/>
<path d="M22.7959 22.6686C22.9022 22.5623 22.962 22.3715 22.8692 22.2787C22.7613 22.1706 22.6166 22.2229 22.4911 22.3636L22.7959 22.6686ZM22.3154 22.1879C22.3829 22.1204 22.4583 21.9565 22.3251 21.8233C22.2172 21.7154 22.0802 21.8256 22.0221 21.8947L22.3154 22.1879ZM21.8198 22.4638C21.7715 22.4157 21.4742 22.1265 21.436 22.0956C21.702 21.8292 21.8506 21.6806 22.0262 21.5438C22.4351 21.2237 22.6207 21.3083 22.713 21.4009C22.7726 21.4607 22.8444 21.6364 22.7168 21.8831L22.7263 21.8929C22.8731 21.7655 23.1162 21.696 23.2745 21.8545C23.4635 22.0432 23.4075 22.4738 22.8056 23.0757L22.6107 23.2705C22.5279 23.1721 22.0339 22.6783 22.0009 22.6451L21.8198 22.4638Z" fill="white"/>
<path d="M23.4912 20.0412C23.5278 20.0818 23.8576 20.427 24.0642 20.6334L24.3518 20.9208C24.3941 20.8786 24.6006 20.6722 24.7339 20.5237L25.0558 20.842C25.0039 20.8939 24.3767 21.4864 24.2263 21.6367C24.1432 21.5462 23.7922 21.1949 23.7536 21.1563L23.5355 20.9384C23.5084 20.9113 23.0936 20.5043 23.0591 20.4733L23.4912 20.0412Z" fill="white"/>
<path d="M25.5014 19.3697C25.6656 19.5336 25.9647 19.8213 26.0049 19.8578L25.5768 20.2861C25.5071 20.2128 25.1253 19.8269 25.0828 19.7845L24.9052 19.607C24.8763 19.5781 24.452 19.1611 24.4116 19.1207L24.8397 18.6926C24.8686 18.7254 25.1271 18.9954 25.324 19.1923L25.5014 19.3697Z" fill="white"/>
<path d="M26.6977 19.1992C26.6516 19.1489 26.3775 18.8673 26.1904 18.6802L26.0168 18.5066C25.8741 18.3639 25.5381 18.0397 25.4995 18.0011L25.9319 17.5687C25.9569 17.5978 26.2464 17.9026 26.3891 18.0455L26.4374 18.0938L26.441 18.0898C26.422 17.8967 26.3583 17.2002 26.3525 17.1135L26.9081 17.0785C26.9043 17.2138 26.9002 17.5845 26.8986 17.7714C27.0278 17.7735 27.4985 17.7656 27.6391 17.764L27.5834 18.3754C27.5217 18.3715 26.8194 18.279 26.5956 18.2442L26.5916 18.248L26.6205 18.2769C26.748 18.4043 27.0932 18.738 27.13 18.7669L26.6977 19.1992Z" fill="white"/>
<path d="M28.6596 16.3386C28.5167 16.2923 28.3451 16.2481 28.2448 16.2133C28.2835 16.333 28.3376 16.5064 28.3837 16.6416L28.6596 16.3386ZM28.1137 17.5059C28.0827 17.3708 27.7838 16.1302 27.7104 15.7017L27.747 15.6654C28.2586 15.7482 29.4101 15.9817 29.578 16.0029L29.418 16.5527C29.2866 16.5258 29.0495 16.4657 29.0165 16.4601L28.5266 17.0004C28.5325 17.0254 28.6 17.2203 28.6384 17.3361L28.1137 17.5059Z" fill="white"/>
</svg>
