<svg width="384" height="64" viewBox="0 0 384 64" fill="none" xmlns="http://www.w3.org/2000/svg">
<path fill-rule="evenodd" clip-rule="evenodd" d="M70.5213 25.9504L64.8227 17.2651L44.9153 19.2129L46.5597 35.0063L31.5459 37.1783C27.6622 37.7453 27.0621 34.4682 27.0621 34.4682L24.3483 21.4785L44.9153 19.2129L42.8928 0L21.5948 1.1249C17.4838 1.36491 14.2862 4.18572 14.2862 4.18572L4.75023 12.5598C-2.69323 19.9896 0.836158 29.4504 0.836158 29.4504L7.06218 50.8142C7.06218 50.8142 8.63652 57.3117 13.9399 60.7193C19.2075 64.1032 24.31 64.4487 28.7554 63.6219C33.1995 62.795 39.6027 61.3167 41.489 60.929C43.3766 60.5426 59.3911 57.1653 59.3911 57.1653C59.3911 57.1653 71.6911 54.7309 71.5973 40.7007L70.5213 25.9504Z" fill="black"/>
<path fill-rule="evenodd" clip-rule="evenodd" d="M87.9266 17.2692L90.6586 8.07617H93.4245L89.2267 20.2992H86.635L82.4531 8.07617H85.2106L87.9266 17.2692Z" fill="black"/>
<path fill-rule="evenodd" clip-rule="evenodd" d="M99.7329 13.583L102.242 8.0752H104.958L101 15.867V20.2992H98.4743V15.867L94.5166 8.0752H97.2402L99.7329 13.583Z" fill="black"/>
<path fill-rule="evenodd" clip-rule="evenodd" d="M111.233 5.99369L112.441 4.79297H114.487V4.88563L111.986 7.24503H110.471L107.97 4.86843V4.79297H110.016L111.233 5.99369ZM113.195 17.0924C113.195 16.6167 113.029 16.2518 112.699 15.9968C112.367 15.7427 111.771 15.4733 110.91 15.1906C110.049 14.9088 109.367 14.6299 108.864 14.3557C107.495 13.6059 106.812 12.5952 106.812 11.3248C106.812 10.6647 106.994 10.0754 107.362 9.55763C107.729 9.03989 108.256 8.63583 108.943 8.34449C109.63 8.05315 110.402 7.90795 111.257 7.90795C112.118 7.90795 112.886 8.06557 113.56 8.38174C114.233 8.69888 114.756 9.14497 115.128 9.72097C115.501 10.2979 115.688 10.9523 115.688 11.6859H113.204C113.204 11.1261 113.029 10.6905 112.682 10.3801C112.334 10.0696 111.845 9.91392 111.216 9.91392C110.609 9.91392 110.137 10.0448 109.8 10.3046C109.463 10.5654 109.295 10.9083 109.295 11.3334C109.295 11.7308 109.493 12.0632 109.887 12.3326C110.282 12.601 110.862 12.8531 111.63 13.0881C113.043 13.5189 114.073 14.0539 114.718 14.691C115.365 15.3291 115.688 16.1238 115.688 17.0762C115.688 18.1336 115.293 18.9637 114.504 19.5646C113.714 20.1663 112.651 20.4672 111.316 20.4672C110.389 20.4672 109.544 20.2953 108.781 19.9505C108.02 19.6066 107.439 19.1347 107.039 18.5367C106.639 17.9378 106.438 17.2434 106.438 16.4543H108.931C108.931 17.8031 109.725 18.4775 111.316 18.4775C111.906 18.4775 112.367 18.3562 112.699 18.1126C113.029 17.869 113.195 17.529 113.195 17.0924Z" fill="black"/>
<path fill-rule="evenodd" clip-rule="evenodd" d="M122.674 5.99369L123.883 4.79297H125.928V4.88563L123.428 7.24503H121.912L119.412 4.86843V4.79297H121.457L122.674 5.99369ZM124.636 17.0924C124.636 16.6167 124.471 16.2518 124.14 15.9968C123.808 15.7427 123.212 15.4733 122.351 15.1906C121.49 14.9088 120.809 14.6299 120.306 14.3557C118.937 13.6059 118.253 12.5952 118.253 11.3248C118.253 10.6647 118.436 10.0754 118.803 9.55763C119.171 9.03989 119.697 8.63583 120.385 8.34449C121.072 8.05315 121.843 7.90795 122.699 7.90795C123.56 7.90795 124.327 8.06557 125.001 8.38174C125.675 8.69888 126.197 9.14497 126.57 9.72097C126.943 10.2979 127.129 10.9523 127.129 11.6859H124.645C124.645 11.1261 124.471 10.6905 124.123 10.3801C123.775 10.0696 123.286 9.91392 122.657 9.91392C122.05 9.91392 121.578 10.0448 121.241 10.3046C120.905 10.5654 120.736 10.9083 120.736 11.3334C120.736 11.7308 120.934 12.0632 121.329 12.3326C121.724 12.601 122.304 12.8531 123.072 13.0881C124.485 13.5189 125.514 14.0539 126.16 14.691C126.806 15.3291 127.129 16.1238 127.129 17.0762C127.129 18.1336 126.734 18.9637 125.945 19.5646C125.156 20.1663 124.093 20.4672 122.757 20.4672C121.83 20.4672 120.985 20.2953 120.223 19.9505C119.462 19.6066 118.88 19.1347 118.48 18.5367C118.081 17.9378 117.88 17.2434 117.88 16.4543H120.373C120.373 17.8031 121.167 18.4775 122.757 18.4775C123.348 18.4775 123.808 18.3562 124.14 18.1126C124.471 17.869 124.636 17.529 124.636 17.0924Z" fill="black"/>
<path fill-rule="evenodd" clip-rule="evenodd" d="M131.698 4.77539H134.307L132.013 7.37838H130.067L131.698 4.77539ZM129.983 20.2978H132.468V8.07473H129.983V20.2978Z" fill="black"/>
<path fill-rule="evenodd" clip-rule="evenodd" d="M148.414 13.9108C148.414 12.6289 148.187 11.6555 147.734 10.9888C147.282 10.323 146.636 9.99059 145.797 9.99059C144.964 9.99059 144.32 10.3192 143.868 10.9764C143.415 11.6345 143.186 12.5984 143.18 13.8688V14.4649C143.18 15.7133 143.407 16.681 143.86 17.3697C144.312 18.0584 144.964 18.4023 145.813 18.4023C146.647 18.4023 147.288 18.0708 147.734 17.4079C148.182 16.744 148.408 15.7773 148.414 14.5069V13.9108ZM150.931 14.4649C150.931 15.6684 150.721 16.723 150.301 17.6305C149.882 18.537 149.281 19.2362 148.5 19.7281C147.719 20.221 146.824 20.4675 145.813 20.4675C144.815 20.4675 143.923 20.2239 143.139 19.7367C142.355 19.2496 141.748 18.5551 141.318 17.6515C140.887 16.7469 140.669 15.7076 140.663 14.5317V13.928C140.663 12.7244 140.877 11.6651 141.306 10.75C141.733 9.83489 142.337 9.1328 143.118 8.64277C143.899 8.15274 144.792 7.9082 145.797 7.9082C146.802 7.9082 147.695 8.15274 148.476 8.64277C149.257 9.1328 149.862 9.83489 150.289 10.75C150.717 11.6651 150.931 12.7216 150.931 13.9194V14.4649Z" fill="black"/>
<path fill-rule="evenodd" clip-rule="evenodd" d="M156.238 10.1165V18.277H157.438C158.411 18.277 159.153 17.9551 159.666 17.3113C160.18 16.6675 160.442 15.7476 160.453 14.5497V13.903C160.453 12.6603 160.199 11.7184 159.691 11.0775C159.183 10.4365 158.441 10.1165 157.464 10.1165H156.238ZM153.754 20.3002V8.07617H157.464C158.524 8.07617 159.471 8.3188 160.308 8.8031C161.144 9.28644 161.796 9.97516 162.266 10.8683C162.735 11.7605 162.97 12.7749 162.97 13.9116V14.4743C162.97 15.61 162.739 16.6206 162.279 17.5042C161.817 18.3888 161.167 19.0737 160.329 19.5608C159.489 20.048 158.542 20.2944 157.488 20.3002H153.754Z" fill="black"/>
<path fill-rule="evenodd" clip-rule="evenodd" d="M168.276 14.9767V18.276H170.404C170.989 18.276 171.446 18.1347 171.774 17.8519C172.103 17.5692 172.267 17.1794 172.267 16.6808C172.267 15.5613 171.696 14.9939 170.553 14.9767H168.276ZM168.276 13.1971H170.114C171.367 13.1742 171.994 12.6679 171.994 11.6773C171.994 11.1233 171.835 10.724 171.518 10.4804C171.2 10.2378 170.699 10.1156 170.015 10.1156H168.276V13.1971ZM165.792 20.2992V8.0752H170.015C171.477 8.0752 172.587 8.35985 173.344 8.92726C174.1 9.49561 174.478 10.3286 174.478 11.4252C174.478 12.0241 174.326 12.5514 174.023 13.008C173.719 13.4646 173.297 13.7989 172.756 14.011C173.374 14.1676 173.861 14.4838 174.217 14.9595C174.573 15.4352 174.751 16.0179 174.751 16.7066C174.751 17.8815 174.381 18.7708 173.641 19.3755C172.902 19.9802 171.848 20.2877 170.479 20.2992H165.792Z" fill="black"/>
<path fill-rule="evenodd" clip-rule="evenodd" d="M185.016 13.9108C185.016 12.6289 184.79 11.6555 184.337 10.9888C183.885 10.323 183.238 9.99059 182.4 9.99059C181.566 9.99059 180.923 10.3192 180.471 10.9764C180.017 11.6345 179.789 12.5984 179.783 13.8688V14.4649C179.783 15.7133 180.01 16.681 180.462 17.3697C180.914 18.0584 181.566 18.4023 182.416 18.4023C183.25 18.4023 183.89 18.0708 184.337 17.4079C184.784 16.744 185.01 15.7773 185.016 14.5069V13.9108ZM187.533 14.4649C187.533 15.6684 187.323 16.723 186.904 17.6305C186.485 18.537 185.884 19.2362 185.103 19.7281C184.322 20.221 183.427 20.4675 182.416 20.4675C181.417 20.4675 180.525 20.2239 179.741 19.7367C178.958 19.2496 178.351 18.5551 177.92 17.6515C177.49 16.7469 177.271 15.7076 177.266 14.5317V13.928C177.266 12.7244 177.479 11.6651 177.908 10.75C178.336 9.83489 178.94 9.1328 179.721 8.64277C180.502 8.15274 181.395 7.9082 182.4 7.9082C183.404 7.9082 184.297 8.15274 185.078 8.64277C185.859 9.1328 186.464 9.83489 186.892 10.75C187.319 11.6651 187.533 12.7216 187.533 13.9194V14.4649Z" fill="black"/>
<path fill-rule="evenodd" clip-rule="evenodd" d="M192.84 13.7846H194.844C195.467 13.7846 195.95 13.6241 196.292 13.3022C196.634 12.9803 196.806 12.5361 196.806 11.9716C196.806 11.3946 196.645 10.9409 196.322 10.6113C195.999 10.2808 195.503 10.1156 194.835 10.1156H192.84V13.7846ZM194.819 15.8249H192.84V20.2992H190.355V8.0752H194.835C196.259 8.0752 197.358 8.39711 198.13 9.04093C198.904 9.68475 199.29 10.5941 199.29 11.77C199.29 12.6039 199.112 13.2993 198.756 13.8562C198.4 14.4131 197.86 14.8563 197.137 15.1868L199.745 20.1817V20.2992H197.079L194.819 15.8249Z" fill="black"/>
<path fill-rule="evenodd" clip-rule="evenodd" d="M212 20.2992H209.515L204.68 12.2572V20.2992H202.196V8.07617H204.68L209.524 16.1354V8.07617H212V20.2992Z" fill="black"/>
<path fill-rule="evenodd" clip-rule="evenodd" d="M220.468 4.80176H223.077L220.783 7.40474H218.837L220.468 4.80176ZM218.456 15.741H221.47L219.955 11.1655L218.456 15.741ZM222.14 17.7813H217.785L216.957 20.2993H214.316L218.804 8.07626H221.106L225.618 20.2993H222.977L222.14 17.7813Z" fill="black"/>
<path fill-rule="evenodd" clip-rule="evenodd" d="M237.291 5.99369L238.5 4.79297H240.545V4.88563L238.045 7.24503H236.529L234.029 4.86843V4.79297H236.074L237.291 5.99369ZM239.254 17.0924C239.254 16.6167 239.088 16.2518 238.757 15.9968C238.426 15.7427 237.829 15.4733 236.968 15.1906C236.107 14.9088 235.426 14.6299 234.923 14.3557C233.554 13.6059 232.87 12.5952 232.87 11.3248C232.87 10.6647 233.053 10.0754 233.42 9.55763C233.787 9.03989 234.314 8.63583 235.002 8.34449C235.689 8.05315 236.46 7.90795 237.316 7.90795C238.177 7.90795 238.945 8.06557 239.618 8.38174C240.292 8.69888 240.815 9.14497 241.187 9.72097C241.56 10.2979 241.746 10.9523 241.746 11.6859H239.262C239.262 11.1261 239.088 10.6905 238.74 10.3801C238.393 10.0696 237.904 9.91392 237.274 9.91392C236.668 9.91392 236.196 10.0448 235.858 10.3046C235.522 10.5654 235.353 10.9083 235.353 11.3334C235.353 11.7308 235.55 12.0632 235.946 12.3326C236.34 12.601 236.921 12.8531 237.689 13.0881C239.102 13.5189 240.132 14.0539 240.777 14.691C241.423 15.3291 241.746 16.1238 241.746 17.0762C241.746 18.1336 241.352 18.9637 240.562 19.5646C239.773 20.1663 238.71 20.4672 237.374 20.4672C236.447 20.4672 235.602 20.2953 234.84 19.9505C234.079 19.6066 233.498 19.1347 233.098 18.5367C232.697 17.9378 232.497 17.2434 232.497 16.4543H234.99C234.99 17.8031 235.784 18.4775 237.374 18.4775C237.965 18.4775 238.426 18.3562 238.757 18.1126C239.088 17.869 239.254 17.529 239.254 17.0924Z" fill="black"/>
<path fill-rule="evenodd" clip-rule="evenodd" d="M248.22 15.397L246.929 16.8079V20.2992H244.444V8.07617H246.929V13.6174L248.021 12.0977L251.094 8.07617H254.149L249.868 13.5076L254.273 20.2992H251.317L248.22 15.397Z" fill="black"/>
<path fill-rule="evenodd" clip-rule="evenodd" d="M263.355 13.9108C263.355 12.6289 263.129 11.6555 262.676 10.9888C262.224 10.323 261.577 9.99059 260.739 9.99059C259.905 9.99059 259.262 10.3192 258.809 10.9764C258.356 11.6345 258.127 12.5984 258.122 13.8688V14.4649C258.122 15.7133 258.349 16.681 258.801 17.3697C259.253 18.0584 259.905 18.4023 260.755 18.4023C261.589 18.4023 262.229 18.0708 262.676 17.4079C263.123 16.744 263.349 15.7773 263.355 14.5069V13.9108ZM265.872 14.4649C265.872 15.6684 265.662 16.723 265.243 17.6305C264.824 18.537 264.223 19.2362 263.442 19.7281C262.661 20.221 261.766 20.4675 260.755 20.4675C259.756 20.4675 258.864 20.2239 258.08 19.7367C257.296 19.2496 256.69 18.5551 256.259 17.6515C255.829 16.7469 255.61 15.7076 255.604 14.5317V13.928C255.604 12.7244 255.818 11.6651 256.247 10.75C256.674 9.83489 257.279 9.1328 258.06 8.64277C258.841 8.15274 259.734 7.9082 260.739 7.9082C261.743 7.9082 262.635 8.15274 263.417 8.64277C264.198 9.1328 264.802 9.83489 265.23 10.75C265.657 11.6651 265.872 12.7216 265.872 13.9194V14.4649Z" fill="black"/>
<path fill-rule="evenodd" clip-rule="evenodd" d="M271.179 18.276H276.453V20.2992H268.694V8.0752H271.179V18.276Z" fill="black"/>
<path fill-rule="evenodd" clip-rule="evenodd" d="M282.174 15.7409H285.187L283.672 11.1654L282.174 15.7409ZM285.858 17.7812H281.503L280.675 20.2992H278.033L282.521 8.07617H284.824L289.336 20.2992H286.695L285.858 17.7812Z" fill="black"/>
<path fill-rule="evenodd" clip-rule="evenodd" d="M306.257 18.7548C305.81 19.2973 305.178 19.7186 304.361 20.0176C303.544 20.3166 302.639 20.4665 301.645 20.4665C300.602 20.4665 299.686 20.2354 298.9 19.7749C298.113 19.3117 297.506 18.643 297.079 17.7642C296.651 16.8854 296.431 15.8528 296.421 14.6664V13.8354C296.421 12.6146 296.622 11.5581 297.029 10.6659C297.435 9.7728 298.02 9.08982 298.785 8.61698C299.549 8.14414 300.444 7.9082 301.471 7.9082C302.9 7.9082 304.019 8.25304 304.824 8.94462C305.631 9.6362 306.108 10.6421 306.257 11.9631H303.84C303.729 11.263 303.485 10.7509 303.107 10.4262C302.728 10.1014 302.208 9.93901 301.546 9.93901C300.702 9.93901 300.058 10.2609 299.616 10.9047C299.175 11.5486 298.951 12.5057 298.946 13.7761V14.5566C298.946 15.8385 299.186 16.8071 299.666 17.4614C300.147 18.1167 300.851 18.4443 301.778 18.4443C302.71 18.4443 303.375 18.2428 303.773 17.8397V15.7324H301.513V13.8774H306.257V18.7548Z" fill="black"/>
<path fill-rule="evenodd" clip-rule="evenodd" d="M311.77 13.7846H313.774C314.398 13.7846 314.881 13.6241 315.223 13.3022C315.565 12.9803 315.737 12.5361 315.737 11.9716C315.737 11.3946 315.575 10.9409 315.251 10.6113C314.93 10.2808 314.434 10.1156 313.766 10.1156H311.77V13.7846ZM313.75 15.8249H311.77V20.2992H309.286V8.0752H313.766C315.19 8.0752 316.289 8.39711 317.061 9.04093C317.835 9.68475 318.221 10.5941 318.221 11.77C318.221 12.6039 318.043 13.2993 317.686 13.8562C317.331 14.4131 316.791 14.8563 316.068 15.1868L318.676 20.1817V20.2992H316.01L313.75 15.8249Z" fill="black"/>
<path fill-rule="evenodd" clip-rule="evenodd" d="M324.248 15.7409H327.262L325.747 11.1654L324.248 15.7409ZM327.932 17.7812H323.577L322.749 20.2992H320.107L324.595 8.07617H326.898L331.41 20.2992H328.769L327.932 17.7812Z" fill="black"/>
<path fill-rule="evenodd" clip-rule="evenodd" d="M340.807 15.3044H336.038V20.2992H333.554V8.07617H341.403V10.1156H336.038V13.2726H340.807V15.3044Z" fill="black"/>
<path fill-rule="evenodd" clip-rule="evenodd" d="M344.018 20.2992H346.502V8.07617H344.018V20.2992Z" fill="black"/>
<path fill-rule="evenodd" clip-rule="evenodd" d="M359.286 16.2282C359.191 17.5435 358.713 18.579 357.85 19.3336C356.985 20.0892 355.847 20.4675 354.434 20.4675C352.888 20.4675 351.673 19.9402 350.786 18.8856C349.901 17.8301 349.457 16.382 349.457 14.5403V13.7933C349.457 12.6184 349.661 11.5829 350.07 10.6869C350.478 9.7919 351.062 9.10414 351.822 8.62653C352.58 8.14796 353.462 7.9082 354.467 7.9082C355.857 7.9082 356.979 8.28647 357.828 9.04205C358.678 9.79764 359.17 10.8579 359.303 12.2239H356.818C356.757 11.4339 356.541 10.8618 356.167 10.5064C355.796 10.1511 355.228 9.9734 354.467 9.9734C353.639 9.9734 353.019 10.2743 352.607 10.8761C352.197 11.4779 351.986 12.4111 351.974 13.6758V14.5995C351.974 15.9206 352.171 16.8854 352.567 17.4958C352.961 18.1062 353.583 18.4109 354.434 18.4109C355.201 18.4109 355.773 18.2342 356.151 17.8779C356.529 17.5225 356.747 16.9723 356.801 16.2282H359.286Z" fill="black"/>
<path fill-rule="evenodd" clip-rule="evenodd" d="M365.709 15.397L364.418 16.8079V20.2992H361.934V8.07617H364.418V13.6174L365.511 12.0977L368.583 8.07617H371.638L367.357 13.5076L371.762 20.2992H368.806L365.709 15.397Z" fill="black"/>
<path fill-rule="evenodd" clip-rule="evenodd" d="M378.85 4.80176H381.459L379.165 7.40474H377.219L378.85 4.80176ZM376.838 15.741H379.851L378.337 11.1655L376.838 15.741ZM380.522 17.7813H376.167L375.339 20.2993H372.698L377.185 8.07626H379.488L384 20.2993H381.359L380.522 17.7813Z" fill="black"/>
<path fill-rule="evenodd" clip-rule="evenodd" d="M86.5936 34.8444H89.6073L88.0924 30.2689L86.5936 34.8444ZM90.278 36.8848H85.9228L85.0947 39.4027H82.4531L86.9412 27.1797H89.2436L93.7562 39.4027H91.1146L90.278 36.8848Z" fill="black"/>
<path fill-rule="evenodd" clip-rule="evenodd" d="M107.39 36.1972C107.39 35.7215 107.225 35.3566 106.894 35.1025C106.562 34.8474 105.966 34.579 105.105 34.2963C104.244 34.0135 103.563 33.7346 103.06 33.4605C101.691 32.7106 101.007 31.7 101.007 30.4295C101.007 29.7695 101.19 29.1801 101.557 28.6614C101.924 28.1446 102.451 27.7396 103.139 27.4492C103.826 27.1579 104.597 27.0127 105.453 27.0127C106.314 27.0127 107.081 27.1713 107.755 27.4865C108.429 27.8036 108.951 28.2497 109.324 28.8257C109.697 29.4027 109.883 30.057 109.883 30.7906H107.399C107.399 30.2308 107.225 29.7962 106.877 29.4848C106.529 29.1744 106.04 29.0187 105.411 29.0187C104.804 29.0187 104.332 29.1486 103.995 29.4103C103.659 29.6692 103.49 30.0121 103.49 30.4381C103.49 30.8355 103.688 31.1679 104.083 31.4373C104.477 31.7057 105.058 31.9579 105.826 32.1929C107.239 32.6237 108.268 33.1576 108.914 33.7957C109.56 34.4338 109.883 35.2286 109.883 36.18C109.883 37.2384 109.488 38.0685 108.699 38.6693C107.909 39.272 106.847 39.572 105.511 39.572C104.584 39.572 103.739 39.401 102.977 39.0552C102.216 38.7123 101.634 38.2404 101.234 37.6415C100.834 37.0425 100.634 36.3481 100.634 35.5591H103.127C103.127 36.9079 103.921 37.5822 105.511 37.5822C106.102 37.5822 106.562 37.46 106.894 37.2174C107.225 36.9728 107.39 36.6337 107.39 36.1972Z" fill="black"/>
<path fill-rule="evenodd" clip-rule="evenodd" d="M121.656 29.2191H117.963V39.4027H115.479V29.2191H111.836V27.1787H121.656V29.2191Z" fill="black"/>
<path fill-rule="evenodd" clip-rule="evenodd" d="M126.573 32.888H128.577C129.201 32.888 129.684 32.7275 130.026 32.4047C130.368 32.0837 130.539 31.6395 130.539 31.075C130.539 30.498 130.378 30.0443 130.055 29.7148C129.732 29.3842 129.236 29.219 128.568 29.219H126.573V32.888ZM127.965 25.0972L129.173 23.8965H131.219V23.9891L128.717 26.3476H127.202L124.702 23.9719V23.8965H126.747L127.965 25.0972ZM128.552 34.9284H126.573V39.4026H124.089V27.1786H128.568C129.993 27.1786 131.091 27.5005 131.864 28.1444C132.637 28.7882 133.024 29.6976 133.024 30.8734C133.024 31.7074 132.845 32.4028 132.489 32.9587C132.133 33.5165 131.593 33.9598 130.871 34.2903L133.479 39.2851V39.4026H130.812L128.552 34.9284Z" fill="black"/>
<path fill-rule="evenodd" clip-rule="evenodd" d="M143.182 34.105H138.413V37.3795H144.01V39.4027H135.929V27.1787H143.993V29.2191H138.413V32.1325H143.182V34.105Z" fill="black"/>
<path fill-rule="evenodd" clip-rule="evenodd" d="M148.969 29.2191V37.3795H150.169C151.141 37.3795 151.883 37.0576 152.397 36.4138C152.91 35.77 153.172 34.8501 153.183 33.6523V33.0056C153.183 31.7628 152.929 30.8219 152.421 30.181C151.914 29.54 151.171 29.2191 150.194 29.2191H148.969ZM146.484 39.4027V27.1787H150.194C151.254 27.1787 152.202 27.4213 153.038 27.9047C153.875 28.3899 154.527 29.0787 154.996 29.9699C155.465 30.864 155.701 31.8775 155.701 33.0142V33.5768C155.701 34.7126 155.47 35.7232 155.009 36.6068C154.548 37.4913 153.898 38.1772 153.059 38.6643C152.22 39.1505 151.273 39.397 150.219 39.4027H146.484Z" fill="black"/>
<path fill-rule="evenodd" clip-rule="evenodd" d="M168.326 39.4027H165.841L161.006 31.3597V39.4027H158.522V27.1787H161.006L165.85 35.2389V27.1787H168.326V39.4027Z" fill="black"/>
<path fill-rule="evenodd" clip-rule="evenodd" d="M173.385 23.8789H175.993L173.699 26.4819H171.754L173.385 23.8789ZM171.67 39.4022H174.154V27.1783H171.67V39.4022Z" fill="black"/>
<path fill-rule="evenodd" clip-rule="evenodd" d="M185.197 33.0562H187.416C188.073 33.0562 188.574 32.8996 188.919 32.5863C189.264 32.2729 189.436 31.8249 189.436 31.2432C189.436 30.6443 189.262 30.16 188.915 29.7903C188.567 29.4206 188.086 29.2306 187.474 29.2191H185.197V33.0562ZM185.197 35.0966V39.4037H182.713V27.1797H187.416C188.321 27.1797 189.118 27.3469 189.805 27.6831C190.493 28.0193 191.021 28.4969 191.39 29.114C191.761 29.733 191.945 30.437 191.945 31.226C191.945 32.4239 191.541 33.3686 190.732 34.0602C189.924 34.7508 188.804 35.0966 187.375 35.0966H185.197Z" fill="black"/>
<path fill-rule="evenodd" clip-rule="evenodd" d="M197.153 32.8881H199.157C199.781 32.8881 200.264 32.7276 200.606 32.4047C200.948 32.0838 201.119 31.6396 201.119 31.0751C201.119 30.4981 200.958 30.0444 200.634 29.7148C200.313 29.3843 199.816 29.2191 199.149 29.2191H197.153V32.8881ZM199.133 34.9284H197.153V39.4027H194.669V27.1787H199.149C200.573 27.1787 201.671 27.5006 202.444 28.1444C203.217 28.7883 203.604 29.6976 203.604 30.8735C203.604 31.7074 203.426 32.4028 203.069 32.9588C202.713 33.5166 202.174 33.9598 201.451 34.2904L204.059 39.2852V39.4027H201.393L199.133 34.9284Z" fill="black"/>
<path fill-rule="evenodd" clip-rule="evenodd" d="M210.093 24.8795C210.093 25.126 210.173 25.3371 210.333 25.5138C210.493 25.6895 210.711 25.7774 210.987 25.7774C211.263 25.7774 211.482 25.6895 211.642 25.5138C211.801 25.3371 211.881 25.126 211.881 24.8795C211.881 24.6216 211.8 24.4057 211.638 24.2281C211.474 24.0532 211.257 23.9644 210.987 23.9644C210.717 23.9644 210.5 24.0532 210.337 24.2281C210.174 24.4057 210.093 24.6216 210.093 24.8795ZM209.141 24.8795C209.141 24.3981 209.321 23.9912 209.679 23.6578C210.037 23.3254 210.474 23.1582 210.987 23.1582C211.495 23.1582 211.929 23.3215 212.291 23.6501C212.653 23.9768 212.834 24.3866 212.834 24.8795C212.834 25.3552 212.657 25.7555 212.304 26.0802C211.951 26.405 211.512 26.5674 210.987 26.5674C210.452 26.5674 210.01 26.4021 209.663 26.0716C209.315 25.7411 209.141 25.3438 209.141 24.8795ZM215.632 27.1797V35.2313C215.632 36.5686 215.219 37.627 214.394 38.4045C213.568 39.183 212.442 39.5718 211.012 39.5718C209.604 39.5718 208.487 39.1935 207.659 38.438C206.831 37.6824 206.409 36.6441 206.392 35.3239V27.1797H208.876V35.2475C208.876 36.048 209.064 36.6326 209.443 36.9994C209.821 37.3652 210.345 37.5486 211.012 37.5486C212.409 37.5486 213.118 36.8036 213.14 35.3153V27.1797H215.632Z" fill="black"/>
<path fill-rule="evenodd" clip-rule="evenodd" d="M221.933 27.1787L225.03 36.0441L228.11 27.1787H231.373V39.4027H228.88V36.0613L229.129 30.2937L225.875 39.4027H224.169L220.923 30.3023L221.171 36.0613V39.4027H218.688V27.1787H221.933Z" fill="black"/>
<path fill-rule="evenodd" clip-rule="evenodd" d="M238.483 32.6865L240.992 27.1787H243.708L239.75 34.9705V39.4027H237.224V34.9705L233.267 27.1787H235.99L238.483 32.6865Z" fill="black"/>
<path fill-rule="evenodd" clip-rule="evenodd" d="M251.946 36.1972C251.946 35.7215 251.78 35.3566 251.45 35.1025C251.118 34.8474 250.522 34.579 249.661 34.2963C248.799 34.0135 248.118 33.7346 247.615 33.4605C246.246 32.7106 245.563 31.7 245.563 30.4295C245.563 29.7695 245.745 29.1801 246.113 28.6614C246.479 28.1446 247.007 27.7396 247.694 27.4492C248.381 27.1579 249.153 27.0127 250.008 27.0127C250.869 27.0127 251.637 27.1713 252.311 27.4865C252.984 27.8036 253.507 28.2497 253.879 28.8257C254.252 29.4027 254.439 30.057 254.439 30.7906H251.955C251.955 30.2308 251.78 29.7962 251.433 29.4848C251.085 29.1744 250.596 29.0187 249.967 29.0187C249.36 29.0187 248.888 29.1486 248.551 29.4103C248.214 29.6692 248.046 30.0121 248.046 30.4381C248.046 30.8355 248.243 31.1679 248.638 31.4373C249.032 31.7057 249.613 31.9579 250.381 32.1929C251.794 32.6237 252.824 33.1576 253.469 33.7957C254.116 34.4338 254.439 35.2286 254.439 36.18C254.439 37.2384 254.044 38.0685 253.255 38.6693C252.465 39.272 251.402 39.572 250.067 39.572C249.14 39.572 248.295 39.401 247.532 39.0552C246.771 38.7123 246.19 38.2404 245.79 37.6415C245.389 37.0425 245.189 36.3481 245.189 35.5591H247.682C247.682 36.9079 248.476 37.5822 250.067 37.5822C250.657 37.5822 251.118 37.46 251.45 37.2174C251.78 36.9728 251.946 36.6337 251.946 36.1972Z" fill="black"/>
<path fill-rule="evenodd" clip-rule="evenodd" d="M259.621 37.3795H264.896V39.4027H257.137V27.1787H259.621V37.3795Z" fill="black"/>
<path fill-rule="evenodd" clip-rule="evenodd" d="M274.193 33.0143C274.193 31.7324 273.967 30.7591 273.514 30.0923C273.061 29.4265 272.415 29.0941 271.577 29.0941C270.743 29.0941 270.1 29.4227 269.647 30.0809C269.194 30.738 268.965 31.7019 268.96 32.9723V33.5684C268.96 34.8169 269.187 35.7845 269.639 36.4732C270.091 37.1619 270.743 37.5058 271.593 37.5058C272.426 37.5058 273.067 37.1734 273.514 36.5114C273.961 35.8475 274.187 34.8809 274.193 33.6104V33.0143ZM276.71 33.5684C276.71 34.772 276.5 35.8265 276.081 36.734C275.662 37.6405 275.06 38.3397 274.28 38.8326C273.499 39.3246 272.604 39.571 271.593 39.571C270.594 39.571 269.702 39.3274 268.918 38.8412C268.134 38.354 267.528 37.6586 267.097 36.754C266.667 35.8514 266.448 34.8111 266.442 33.6352V33.0315C266.442 31.828 266.656 30.7686 267.085 29.8526C267.512 28.9384 268.116 28.2363 268.897 27.7463C269.678 27.2572 270.572 27.0117 271.577 27.0117C272.581 27.0117 273.473 27.2572 274.255 27.7463C275.036 28.2363 275.64 28.9384 276.068 29.8526C276.495 30.7686 276.71 31.8251 276.71 33.0229V33.5684Z" fill="black"/>
<path fill-rule="evenodd" clip-rule="evenodd" d="M283.805 36.3718L286.537 27.1787H289.303L285.105 39.4027H282.513L278.331 27.1787H281.089L283.805 36.3718Z" fill="black"/>
<path fill-rule="evenodd" clip-rule="evenodd" d="M295.966 23.9053H298.575L296.281 26.5083H294.335L295.966 23.9053ZM293.954 34.8445H296.968L295.453 30.269L293.954 34.8445ZM297.638 36.8849H293.283L292.455 39.4038H289.814L294.302 27.1798H296.604L301.117 39.4038H298.475L297.638 36.8849Z" fill="black"/>
<path fill-rule="evenodd" clip-rule="evenodd" d="M87.6966 44.5406L88.9053 43.3398H90.9505V43.4325L88.4502 45.7919H86.9344L84.4342 43.4153V43.3398H86.4794L87.6966 44.5406ZM89.6589 55.6393C89.6589 55.1636 89.4931 54.7987 89.1624 54.5446C88.8308 54.2896 88.2345 54.0212 87.3734 53.7384C86.5124 53.4557 85.8313 53.1767 85.3282 52.9026C83.9594 52.1527 83.2754 51.1421 83.2754 49.8717C83.2754 49.2116 83.4582 48.6222 83.8256 48.1035C84.1921 47.5868 84.7196 47.1827 85.4073 46.8914C86.0941 46.6 86.8656 46.4548 87.7211 46.4548C88.5821 46.4548 89.3499 46.6134 90.0235 46.9286C90.6971 47.2458 91.2199 47.6918 91.5921 48.2678C91.9651 48.8448 92.1516 49.4991 92.1516 50.2327H89.6674C89.6674 49.673 89.4931 49.2384 89.1455 48.9269C88.7979 48.6175 88.3089 48.4608 87.6796 48.4608C87.0729 48.4608 86.6009 48.5907 86.2637 48.8524C85.9273 49.1113 85.7587 49.4552 85.7587 49.8803C85.7587 50.2776 85.9556 50.6101 86.3513 50.8794C86.7451 51.1478 87.3264 51.4 88.0941 51.635C89.5073 52.0658 90.5369 52.6007 91.1823 53.2379C91.8285 53.876 92.1516 54.6707 92.1516 55.6231C92.1516 56.6805 91.7569 57.5106 90.9675 58.1114C90.178 58.7142 89.1153 59.0141 87.7795 59.0141C86.8525 59.0141 86.0074 58.8431 85.2453 58.4973C84.4841 58.1544 83.9028 57.6825 83.5034 57.0836C83.1021 56.4847 82.9023 55.7902 82.9023 55.0012H85.3951C85.3951 56.35 86.1892 57.0244 87.7795 57.0244C88.3702 57.0244 88.8308 56.9021 89.1624 56.6604C89.4931 56.4159 89.6589 56.0758 89.6589 55.6393Z" fill="black"/>
<path fill-rule="evenodd" clip-rule="evenodd" d="M98.6254 53.9429L97.3339 55.3538V58.8461H94.8496V46.6221H97.3339V52.1633L98.4267 50.6436L101.499 46.6221H104.554L100.273 52.0535L104.678 58.8461H101.722L98.6254 53.9429Z" fill="black"/>
<path fill-rule="evenodd" clip-rule="evenodd" d="M113.761 52.4567C113.761 51.1748 113.535 50.2014 113.082 49.5347C112.63 48.8689 111.983 48.5365 111.145 48.5365C110.311 48.5365 109.668 48.8651 109.216 49.5232C108.763 50.1804 108.534 51.1443 108.528 52.4147V53.0108C108.528 54.2592 108.755 55.2269 109.207 55.9156C109.659 56.6043 110.311 56.9482 111.161 56.9482C111.995 56.9482 112.635 56.6158 113.082 55.9538C113.529 55.2899 113.756 54.3232 113.761 53.0528V52.4567ZM116.278 53.0108C116.278 54.2143 116.068 55.2689 115.649 56.1764C115.23 57.0829 114.629 57.7821 113.848 58.275C113.067 58.7669 112.172 59.0134 111.161 59.0134C110.162 59.0134 109.27 58.7698 108.487 58.2836C107.703 57.7964 107.096 57.101 106.665 56.1964C106.235 55.2937 106.016 54.2535 106.011 53.0776V52.4739C106.011 51.2703 106.225 50.211 106.653 49.2949C107.08 48.3808 107.685 47.6787 108.466 47.1887C109.247 46.6996 110.14 46.4541 111.145 46.4541C112.149 46.4541 113.041 46.6996 113.823 47.1887C114.604 47.6787 115.208 48.3808 115.636 49.2949C116.064 50.211 116.278 51.2675 116.278 52.4653V53.0108Z" fill="black"/>
<path fill-rule="evenodd" clip-rule="evenodd" d="M121.584 56.8229H126.859V58.8461H119.1V46.6221H121.584V56.8229Z" fill="black"/>
<path fill-rule="evenodd" clip-rule="evenodd" d="M132.579 54.2878H135.593L134.078 49.7122L132.579 54.2878ZM136.263 56.3281H131.908L131.08 58.8461H128.438L132.927 46.623H135.229L139.741 58.8461H137.1L136.263 56.3281Z" fill="black"/>
<path fill-rule="evenodd" clip-rule="evenodd" d="M156.664 57.3016C156.217 57.8442 155.585 58.2664 154.768 58.5644C153.951 58.8644 153.046 59.0144 152.052 59.0144C151.009 59.0144 150.093 58.7832 149.308 58.3218C148.52 57.8595 147.913 57.1899 147.487 56.3111C147.058 55.4323 146.838 54.3997 146.828 53.2133V52.3822C146.828 51.1615 147.03 50.1059 147.437 49.2119C147.842 48.3206 148.427 47.6376 149.192 47.1639C149.956 46.692 150.852 46.4551 151.879 46.4551C153.308 46.4551 154.426 46.8009 155.231 47.4915C156.038 48.1831 156.516 49.1889 156.664 50.51H154.247C154.136 49.8098 153.892 49.2978 153.514 48.973C153.135 48.6483 152.615 48.4859 151.953 48.4859C151.109 48.4859 150.465 48.8078 150.024 49.4516C149.582 50.0954 149.359 51.0526 149.353 52.323V53.1034C149.353 54.3853 149.593 55.3539 150.074 56.0083C150.554 56.6636 151.258 56.9912 152.185 56.9912C153.117 56.9912 153.783 56.7896 154.18 56.3865V54.2793H151.92V52.4243H156.664V57.3016Z" fill="black"/>
<path fill-rule="evenodd" clip-rule="evenodd" d="M162.178 52.3314H164.181C164.805 52.3314 165.288 52.171 165.63 51.8481C165.972 51.5271 166.144 51.083 166.144 50.5184C166.144 49.9415 165.983 49.4877 165.659 49.1582C165.337 48.8277 164.841 48.6624 164.173 48.6624H162.178V52.3314ZM164.157 54.3718H162.178V58.8461H159.693V46.6221H164.173C165.597 46.6221 166.696 46.944 167.468 47.5878C168.242 48.2316 168.628 49.141 168.628 50.3169C168.628 51.1508 168.45 51.8462 168.093 52.4021C167.738 52.96 167.198 53.4032 166.475 53.7337L169.083 58.7286V58.8461H166.417L164.157 54.3718Z" fill="black"/>
<path fill-rule="evenodd" clip-rule="evenodd" d="M174.654 54.2878H177.668L176.153 49.7122L174.654 54.2878ZM178.339 56.3281H173.983L173.155 58.8461H170.514L175.002 46.623H177.304L181.817 58.8461H179.175L178.339 56.3281Z" fill="black"/>
<path fill-rule="evenodd" clip-rule="evenodd" d="M191.214 53.8512H186.445V58.8461H183.961V46.623H191.81V48.6624H186.445V51.8195H191.214V53.8512Z" fill="black"/>
<path fill-rule="evenodd" clip-rule="evenodd" d="M194.426 58.8461H196.91V46.6221H194.426V58.8461Z" fill="black"/>
<path fill-rule="evenodd" clip-rule="evenodd" d="M209.691 54.7741C209.597 56.0894 209.118 57.1249 208.255 57.8805C207.39 58.6361 206.252 59.0134 204.839 59.0134C203.293 59.0134 202.078 58.4871 201.192 57.4315C200.306 56.377 199.862 54.9279 199.862 53.0862V52.3392C199.862 51.1643 200.067 50.1288 200.476 49.2328C200.884 48.3378 201.468 47.65 202.227 47.1724C202.985 46.6929 203.867 46.4541 204.872 46.4541C206.263 46.4541 207.384 46.8324 208.234 47.588C209.083 48.3435 209.575 49.4038 209.708 50.7698H207.224C207.162 49.9798 206.947 49.4086 206.573 49.0533C206.202 48.6979 205.633 48.5193 204.872 48.5193C204.044 48.5193 203.424 48.8211 203.013 49.422C202.602 50.0238 202.391 50.957 202.38 52.2217V53.1454C202.38 54.4665 202.576 55.4313 202.972 56.0417C203.366 56.6521 203.989 56.9568 204.839 56.9568C205.606 56.9568 206.178 56.7801 206.557 56.4247C206.934 56.0684 207.152 55.5182 207.207 54.7741H209.691Z" fill="black"/>
<path fill-rule="evenodd" clip-rule="evenodd" d="M216.116 53.9429L214.824 55.3538V58.8461H212.34V46.6221H214.824V52.1633L215.917 50.6436L218.989 46.6221H222.044L217.763 52.0535L222.169 58.8461H219.212L216.116 53.9429Z" fill="black"/>
<path fill-rule="evenodd" clip-rule="evenodd" d="M229.255 43.3477H231.864L229.57 45.9506H227.625L229.255 43.3477ZM227.243 54.2869H230.257L228.742 49.7114L227.243 54.2869ZM230.927 56.3272H226.572L225.744 58.8462H223.104L227.591 46.6222H229.893L234.406 58.8462H231.764L230.927 56.3272Z" fill="black"/>
</svg>
