<?xml version="1.0" encoding="utf-8"?>
<!-- Generator: Adobe Illustrator 16.0.4, SVG Export Plug-In . SVG Version: 6.00 Build 0)  -->
<!DOCTYPE svg PUBLIC "-//W3C//DTD SVG 1.1//EN" "http://www.w3.org/Graphics/SVG/1.1/DTD/svg11.dtd">
<svg version="1.1" id="Layer_1" xmlns="http://www.w3.org/2000/svg" xmlns:xlink="http://www.w3.org/1999/xlink" x="0px" y="0px"
	 width="126.616px" height="122.813px" viewBox="0 0 126.616 122.813" enable-background="new 0 0 126.616 122.813"
	 xml:space="preserve">
<g>
	<path fill="#7D868C" d="M45.794,122.757l-1.47-2.617c-0.176-0.344-0.317-0.633-0.422-0.928c0.028,0.415,0.049,1.568,0.049,2.258
		v1.287h-0.879v-4.748h1.21l1.434,2.553c0.169,0.296,0.331,0.641,0.458,0.95c-0.029-0.479-0.049-1.646-0.049-2.308v-1.195h0.879
		v4.748H45.794z"/>
	<path fill="#7D868C" d="M53.003,119.648c-0.077-0.232-0.14-0.443-0.19-0.654h-0.007c-0.056,0.211-0.112,0.422-0.183,0.654
		l-0.485,1.414h1.351L53.003,119.648z M54.044,122.757l-0.323-0.972H51.92l-0.331,0.972h-0.921l1.639-4.748h1.076l1.674,4.748
		H54.044z"/>
	<path fill="#7D868C" d="M60.191,118.748c-0.21,0-0.407,0.008-0.555,0.021v3.2c0.126,0.021,0.317,0.036,0.499,0.036
		c0.893,0,1.541-0.506,1.541-1.632C61.676,119.352,61.275,118.748,60.191,118.748 M60.044,122.786c-0.492,0-0.921-0.021-1.322-0.036
		v-4.733c0.372-0.015,0.949-0.035,1.533-0.035c1.47,0,2.406,0.653,2.406,2.321C62.661,121.927,61.591,122.786,60.044,122.786"/>
	<path fill="#7D868C" d="M68.21,119.648c-0.077-0.232-0.14-0.443-0.188-0.654h-0.008c-0.056,0.211-0.112,0.422-0.183,0.654
		l-0.486,1.414h1.351L68.21,119.648z M69.251,122.757l-0.323-0.972h-1.801l-0.331,0.972h-0.921l1.64-4.748h1.075l1.674,4.748H69.251
		z"/>
	<path fill="#7D868C" d="M75.786,122.813c-1.66,0-2.195-1.097-2.195-2.278c0-1.506,0.787-2.567,2.377-2.567
		c0.339,0,0.704,0.049,1.015,0.14l-0.127,0.845c-0.289-0.112-0.612-0.169-0.929-0.169c-0.893,0-1.329,0.668-1.329,1.597
		c0,1.026,0.429,1.604,1.386,1.604c0.288,0,0.653-0.077,0.899-0.197l0.142,0.81C76.672,122.728,76.229,122.813,75.786,122.813"/>
</g>
<polygon fill="#7D868C" points="80.962,118.008 80.962,122.756 83.543,122.756 83.543,121.969 81.877,121.969 81.877,120.689 
	83.459,120.689 83.459,119.944 81.877,119.944 81.877,118.777 83.543,118.777 83.543,118.008 "/>
<g>
	
		<path fill="none" stroke="#7D868C" stroke-width="2.157" stroke-linecap="square" stroke-linejoin="bevel" stroke-miterlimit="10" d="
		M59.657,78.686V1.042c0,0,20.287,5.456,20.287,18.396c0,14.378-33.272,19.95-33.272,31.449c0,5.438,10.415,11.024,16.76,15.219
		C69.311,69.993,69.124,74.491,59.657,78.686z"/>
	<path fill="#7D868C" d="M3.239,104.37c-0.156,0-0.745,0-0.988,0.017v3.31c0.278,0.017,0.832,0.051,1.248,0.051
		c1.472,0,2.217-0.728,2.217-1.75C5.716,104.888,4.78,104.37,3.239,104.37 M3.516,99.571c-0.486,0-0.901,0.018-1.265,0.035v3.065
		c0.278,0.019,0.554,0.019,0.919,0.019c1.541,0,2.233-0.624,2.233-1.664C5.403,100.161,4.884,99.571,3.516,99.571 M3.412,109.566
		c-0.78,0-1.94-0.035-3.412-0.035V97.857c0.987-0.052,2.459-0.086,3.88-0.086c2.511,0,3.914,1.021,3.914,2.892
		c0,1.16-0.641,2.165-1.767,2.615v0.035c1.247,0.26,2.096,1.315,2.096,2.615C8.123,107.729,6.841,109.566,3.412,109.566"/>
</g>
<polygon fill="#7D868C" points="16.019,109.531 16.019,97.838 18.27,97.838 18.27,107.556 22.063,107.556 22.063,109.531 "/>
<path fill="#7D868C" d="M29.347,97.838h2.251v11.692h-2.251V97.838z M29.416,97.128l-0.364-1.212l3.603-1.299l0.503,1.594
	L29.416,97.128z"/>
<g>
	<path fill="#7D868C" d="M43.213,97.147l-2.876-1.42l0.537-1.18l2.39,0.972l2.322-0.954l0.485,1.092L43.213,97.147z M39.298,109.531
		v-1.732l4.209-6.858c0.26-0.399,0.485-0.745,0.762-1.109c-0.415,0.019-0.97,0.035-2.13,0.035h-2.703v-2.027h7.552v1.819
		l-4.451,7.016c-0.173,0.276-0.329,0.536-0.537,0.813c0.294-0.035,1.091-0.035,2.529-0.035h2.529v2.079H39.298z"/>
</g>
<polygon fill="#7D868C" points="60.958,109.531 57.199,103.918 57.199,109.531 54.948,109.531 54.948,97.838 57.199,97.838 
	57.199,103.14 60.975,97.838 63.747,97.838 59.451,103.486 63.92,109.531 "/>
<g>
	<path fill="#7D868C" d="M73.74,109.721c-1.039,0-1.922-0.104-2.701-0.312l0.242-2.165c0.745,0.312,1.611,0.503,2.546,0.503
		c1.057,0,1.957-0.433,1.957-1.524c0-2.234-4.918-1.212-4.918-5.058c0-2.078,1.593-3.516,4.416-3.516
		c0.642,0,1.455,0.086,2.113,0.225l-0.208,1.976c-0.64-0.208-1.317-0.33-2.009-0.33c-1.316,0-1.922,0.572-1.922,1.404
		c0,2.078,5.005,1.315,5.005,5.021C78.262,108.111,76.443,109.721,73.74,109.721"/>
	<path fill="#7D868C" d="M90.931,99.676c-1.768,0-3.118,1.401-3.118,3.914c0,2.494,1.006,4.087,3.1,4.087
		c1.767,0,3.119-1.386,3.119-3.914C94.031,101.286,93.026,99.676,90.931,99.676 M90.723,109.721c-3.568,0-5.317-2.27-5.317-5.854
		c0-3.88,2.58-6.218,5.717-6.218c3.567,0,5.316,2.27,5.316,5.854C96.438,107.383,93.857,109.721,90.723,109.721"/>
	<path fill="#7D868C" d="M107.48,104.37c-0.157,0-0.745,0-0.987,0.017v3.31c0.277,0.017,0.83,0.051,1.247,0.051
		c1.472,0,2.217-0.728,2.217-1.75C109.957,104.888,109.021,104.37,107.48,104.37 M107.758,99.571c-0.485,0-0.901,0.018-1.265,0.035
		v3.065c0.277,0.019,0.554,0.019,0.917,0.019c1.542,0,2.234-0.624,2.234-1.664C109.645,100.161,109.125,99.571,107.758,99.571
		 M107.653,109.566c-0.78,0-1.939-0.035-3.412-0.035V97.857c0.987-0.052,2.459-0.086,3.879-0.086c2.513,0,3.914,1.021,3.914,2.892
		c0,1.16-0.64,2.165-1.766,2.615v0.035c1.248,0.26,2.096,1.315,2.096,2.615C112.364,107.729,111.082,109.566,107.653,109.566"/>
</g>
<path fill="#7D868C" d="M120.259,97.838v11.692h6.357v-1.94h-4.105v-3.151h3.898v-1.836h-3.898v-2.876h4.105v-1.889H120.259z
	 M120.519,95.727l2.876,1.42l2.857-1.49l-0.484-1.092l-2.321,0.954l-2.391-0.971L120.519,95.727z"/>
</svg>
