<svg width="56" height="56" viewBox="0 0 56 56" fill="none" xmlns="http://www.w3.org/2000/svg">
<circle cx="28" cy="28" r="28" fill="#55237C"/>
<path d="M18.5703 33H10.7734V31.4531L14.4531 27.5312C14.9583 26.9792 15.3307 26.4974 15.5703 26.0859C15.8151 25.6745 15.9375 25.2839 15.9375 24.9141C15.9375 24.4089 15.8099 24.013 15.5547 23.7266C15.2995 23.4349 14.9349 23.2891 14.4609 23.2891C13.9505 23.2891 13.5469 23.4661 13.25 23.8203C12.9583 24.1693 12.8125 24.6302 12.8125 25.2031H10.5469C10.5469 24.5104 10.7109 23.8776 11.0391 23.3047C11.3724 22.7318 11.8411 22.2839 12.4453 21.9609C13.0495 21.6328 13.7344 21.4688 14.5 21.4688C15.6719 21.4688 16.5807 21.75 17.2266 22.3125C17.8776 22.875 18.2031 23.6693 18.2031 24.6953C18.2031 25.2578 18.0573 25.8307 17.7656 26.4141C17.474 26.9974 16.974 27.6771 16.2656 28.4531L13.6797 31.1797H18.5703V33ZM27.6172 28.2969C27.6172 29.8698 27.2917 31.0729 26.6406 31.9062C25.9896 32.7396 25.0365 33.1562 23.7812 33.1562C22.5417 33.1562 21.5938 32.7474 20.9375 31.9297C20.2812 31.112 19.9453 29.9401 19.9297 28.4141V26.3203C19.9297 24.7318 20.2578 23.526 20.9141 22.7031C21.5755 21.8802 22.526 21.4688 23.7656 21.4688C25.0052 21.4688 25.9531 21.8776 26.6094 22.6953C27.2656 23.5078 27.6016 24.6771 27.6172 26.2031V28.2969ZM25.3594 26C25.3594 25.0573 25.2292 24.3724 24.9688 23.9453C24.7135 23.513 24.3125 23.2969 23.7656 23.2969C23.2344 23.2969 22.8411 23.5026 22.5859 23.9141C22.3359 24.3203 22.2031 24.9583 22.1875 25.8281V28.5938C22.1875 29.5208 22.3125 30.2109 22.5625 30.6641C22.8177 31.112 23.224 31.3359 23.7812 31.3359C24.3333 31.3359 24.7318 31.1198 24.9766 30.6875C25.2214 30.2552 25.349 29.5938 25.3594 28.7031V26ZM36.9453 33H29.1484V31.4531L32.8281 27.5312C33.3333 26.9792 33.7057 26.4974 33.9453 26.0859C34.1901 25.6745 34.3125 25.2839 34.3125 24.9141C34.3125 24.4089 34.1849 24.013 33.9297 23.7266C33.6745 23.4349 33.3099 23.2891 32.8359 23.2891C32.3255 23.2891 31.9219 23.4661 31.625 23.8203C31.3333 24.1693 31.1875 24.6302 31.1875 25.2031H28.9219C28.9219 24.5104 29.0859 23.8776 29.4141 23.3047C29.7474 22.7318 30.2161 22.2839 30.8203 21.9609C31.4245 21.6328 32.1094 21.4688 32.875 21.4688C34.0469 21.4688 34.9557 21.75 35.6016 22.3125C36.2526 22.875 36.5781 23.6693 36.5781 24.6953C36.5781 25.2578 36.4323 25.8307 36.1406 26.4141C35.849 26.9974 35.349 27.6771 34.6406 28.4531L32.0547 31.1797H36.9453V33ZM43.8203 33H41.5625V24.2969L38.8672 25.1328V23.2969L43.5781 21.6094H43.8203V33Z" fill="white"/>
</svg>
