<svg width="46" height="40" viewBox="0 0 46 40" fill="none" xmlns="http://www.w3.org/2000/svg">
<path d="M29.6994 20.0623H16.626C15.7506 20.0623 15.0439 19.3329 15.0439 18.4292V8.46161C15.0439 3.8398 18.688 0.078125 23.1653 0.078125C27.6426 0.078125 31.2867 3.8398 31.2867 8.46161V18.4292C31.2814 19.3329 30.5747 20.0623 29.6994 20.0623ZM18.2081 16.7961H28.1172V8.46161C28.1172 5.64171 25.8918 3.34442 23.16 3.34442C20.4282 3.34442 18.2028 5.64171 18.2028 8.46161V16.7961H18.2081Z" fill="#55237C"/>
<path d="M31.3932 34.6353H15.2032C12.9566 34.6353 11.1372 32.7572 11.1372 30.4381V16.0773C11.1372 13.7582 12.9566 11.8801 15.2032 11.8801H31.3932C33.6398 11.8801 35.4592 13.7582 35.4592 16.0773V30.4381C35.4592 32.7572 33.6398 34.6353 31.3932 34.6353Z" fill="#289AA1"/>
<path d="M26.5196 20.0024C26.5196 18.1624 25.0746 16.6763 23.2974 16.6763C21.5202 16.6763 20.0752 18.1679 20.0752 20.0024C20.0752 21.2437 20.7396 22.327 21.7153 22.8986V27.5694C21.7153 28.4731 22.422 29.2025 23.2974 29.2025C24.1729 29.2025 24.8795 28.4731 24.8795 27.5694V22.8986C25.8604 22.3324 26.5196 21.2491 26.5196 20.0024Z" fill="white"/>
<path d="M6.97603 24.3303H1.81842C0.942995 24.3303 0.236328 23.6008 0.236328 22.6972C0.236328 21.7934 0.942995 21.064 1.81842 21.064H6.97603C7.85145 21.064 8.55812 21.7934 8.55812 22.6972C8.55812 23.6008 7.85145 24.3303 6.97603 24.3303Z" fill="#55237C"/>
<path d="M44.1809 24.3303H39.6193C38.7438 24.3303 38.0371 23.6008 38.0371 22.6972C38.0371 21.7934 38.7438 21.064 39.6193 21.064H44.1809C45.0564 21.064 45.7631 21.7934 45.7631 22.6972C45.7631 23.6008 45.0511 24.3303 44.1809 24.3303Z" fill="#55237C"/>
<path d="M36.946 10.242C36.5399 10.242 36.1339 10.0842 35.828 9.76296C35.211 9.12609 35.211 8.09172 35.828 7.4548L37.2835 5.95231C37.9005 5.31538 38.9025 5.31538 39.5195 5.95231C40.1365 6.58923 40.1365 7.62356 39.5195 8.26048L38.0641 9.76296C37.7529 10.0842 37.3468 10.242 36.946 10.242Z" fill="#55237C"/>
<path d="M9.64956 10.242C9.24348 10.242 8.83741 10.0842 8.53159 9.76296L7.07604 8.26048C6.45903 7.62356 6.45903 6.58923 7.07604 5.95231C7.69306 5.31538 8.69506 5.31538 9.31206 5.95231L10.7676 7.4548C11.3846 8.09172 11.3846 9.12609 10.7676 9.76296C10.4617 10.0842 10.0556 10.242 9.64956 10.242Z" fill="#55237C"/>
<path d="M8.19405 39.921C7.78799 39.921 7.38192 39.7631 7.07604 39.442C6.45903 38.805 6.45903 37.7707 7.07604 37.1338L8.53159 35.6313C9.14859 34.9943 10.1505 34.9943 10.7676 35.6313C11.3846 36.2682 11.3846 37.3025 10.7676 37.9395L9.31206 39.442C9.00096 39.7577 8.60017 39.921 8.19405 39.921Z" fill="#55237C"/>
<path d="M38.4016 39.921C37.9955 39.921 37.5894 39.7631 37.2835 39.442L35.828 37.9395C35.211 37.3025 35.211 36.2682 35.828 35.6313C36.445 34.9943 37.447 34.9943 38.0641 35.6313L39.5195 37.1338C40.1365 37.7707 40.1365 38.805 39.5195 39.442C39.2084 39.7577 38.8077 39.921 38.4016 39.921Z" fill="#55237C"/>
</svg>
