<svg width="32" height="32" viewBox="0 0 32 32" fill="none" xmlns="http://www.w3.org/2000/svg">
<path d="M16.0135 21.3337C15.6535 21.3337 15.3202 21.2003 15.0668 20.947C14.8002 20.6803 14.6802 20.3737 14.6802 20.0003C14.6668 19.267 15.2535 18.6803 15.9868 18.667C16.0002 18.667 16.0002 18.667 16.0135 18.667C16.3868 18.667 16.6935 18.8003 16.9602 19.0537C17.2002 19.307 17.3335 19.627 17.3335 19.987C17.3335 20.347 17.2002 20.667 16.9468 20.9337C16.6935 21.2003 16.3735 21.3337 16.0135 21.3337ZM14.8402 16.4537C14.8402 15.8537 14.9735 15.3337 15.2268 14.907C15.4802 14.467 15.9335 13.9737 16.5602 13.4137C16.9335 13.0803 17.2002 12.787 17.3735 12.5337C17.5468 12.2803 17.6268 12.0003 17.6268 11.6803C17.6268 11.2937 17.4802 10.9737 17.2002 10.6937C16.9202 10.427 16.5335 10.2937 16.0668 10.2937C15.5735 10.2937 15.0802 10.427 14.7868 10.6937C14.5068 10.9603 14.2535 11.2937 14.2535 12.0003H12.0002C12.0002 10.6537 12.6135 9.69366 13.2935 9.05366C14.0402 8.37366 15.0002 8.00033 16.0002 8.00033C16.7868 8.00033 17.4802 8.16033 18.0935 8.46699C18.7068 8.77366 19.1468 9.20033 19.4935 9.74699C19.8402 10.2937 20.0002 10.8937 20.0002 11.547C20.0002 12.2003 19.8668 12.747 19.5868 13.2137C19.3068 13.6803 18.9468 14.1603 18.4002 14.667C17.9735 15.067 17.6935 15.4137 17.5335 15.6937C17.3735 15.9737 17.2935 16.347 17.2935 16.7737V17.3337H14.8268V16.4537H14.8402ZM24.0002 13.6003C24.0002 8.76033 20.4668 5.33366 16.0002 5.33366C11.5335 5.33366 8.00016 8.76033 8.00016 13.6003C8.00016 16.7203 10.6002 20.8537 16.0002 25.787C21.4002 20.8537 24.0002 16.7203 24.0002 13.6003ZM16.0002 2.66699C21.6002 2.66699 26.6668 6.96033 26.6668 13.6003C26.6668 18.027 23.1068 23.267 16.0002 29.3337C8.8935 23.267 5.3335 18.027 5.3335 13.6003C5.3335 6.96033 10.4002 2.66699 16.0002 2.66699Z" fill="#4F2678"/>
</svg>
