<svg width="481" height="516" viewBox="0 0 481 516" fill="none" xmlns="http://www.w3.org/2000/svg">
<path d="M426.2 202.965L428.9 196.389L455.7 199.777C458.6 200.175 461.5 199.478 463.9 197.784L476.5 188.816C478.5 187.421 479 184.731 477.6 182.738L473.8 176.959C473.2 175.963 472 175.664 470.9 176.062L456.9 182.34L438.4 179.251L449.9 174.867C451.3 174.369 451.9 172.774 451.4 171.379V171.28C450.9 170.283 449.9 169.686 448.8 169.686L431.5 170.782C430.7 170.782 429.9 170.981 429.3 171.479L419.3 177.059C417.3 178.155 415.7 179.849 414.6 181.941L408.8 193.699L426.2 202.965Z" fill="#FFD7CE"/>
<path d="M444.9 181.543H444.7C440.5 180.546 428.7 178.454 425.4 180.447C424.9 180.746 424.2 180.646 423.8 180.148C423.5 179.65 423.7 178.952 424.1 178.554C428.7 175.764 443.3 179.151 445 179.45C445.6 179.65 446 180.148 445.9 180.746C445.9 181.244 445.5 181.543 444.9 181.543Z" fill="#FFA8A8"/>
<path d="M459.5 194.197L442.5 191.407C441.9 191.307 441.5 190.809 441.6 190.211C441.7 189.613 442.2 189.215 442.8 189.314L458.9 191.905L471.8 183.336C472.3 183.037 473 183.137 473.3 183.635C473.3 183.635 473.3 183.635 473.3 183.735C473.6 184.233 473.5 184.93 473 185.229C473 185.229 473 185.229 472.9 185.229L459.5 194.197Z" fill="#FFA8A8"/>
<path d="M457.9 189.215L441 186.425C440.4 186.326 440.1 185.728 440.2 185.13C440.3 184.632 440.8 184.233 441.3 184.333L457.4 187.023L469.5 180.347C470.1 180.049 470.7 180.248 471.1 180.746C471.5 181.244 471.2 181.942 470.7 182.34L457.9 189.215Z" fill="#FFA8A8"/>
<path d="M18.5002 257.568C-39.7998 134.115 49.1002 19.3304 152.8 28.6965C273.2 39.5571 230.4 142.285 283.8 201.072C337.2 259.86 535.8 258.066 466.4 388.095C424.2 467.209 261.2 544.828 150.1 504.275C39.0002 463.721 56.2002 337.279 18.5002 257.568Z" fill="#F1ECE7"/>
<mask id="mask0" mask-type="alpha" maskUnits="userSpaceOnUse" x="-1" y="28" width="482" height="488">
<path d="M18.5002 257.568C-39.7998 134.115 49.1002 19.3304 152.8 28.6965C273.2 39.5571 230.4 142.285 283.8 201.072C337.2 259.86 535.8 258.066 466.4 388.095C424.2 467.209 261.2 544.828 150.1 504.275C39.0002 463.721 56.2002 337.279 18.5002 257.568Z" fill="#F1ECE7"/>
</mask>
<g mask="url(#mask0)">
<path d="M341 573L321.541 351L198 353.511L260.968 427.092L286.115 573" fill="#575756"/>
<path d="M258.005 573L261 426.732L247.821 352L198 352.968L205.987 573" fill="#4B4B4B"/>
<path d="M250 573L252.128 431.978C252.213 431.398 252.638 430.916 253.149 431.012C253.574 431.109 254 431.495 254 431.978L251.957 573" fill="#575756"/>
</g>
<path d="M101.3 215.818L97.9003 210.139L76.0003 217.114C73.4003 218.01 70.5003 217.811 68.0003 216.516L54.9003 210.139C52.8003 209.142 52.0003 206.652 52.9003 204.559L55.5003 198.68C55.9003 197.684 57.0003 197.186 58.1003 197.485L72.1003 201.171L88.8003 195.392L77.5003 193.101C76.2003 192.802 75.3003 191.407 75.6003 190.111C75.8003 189.115 76.7003 188.418 77.7003 188.318L94.0003 186.724C94.7003 186.624 95.5003 186.724 96.2003 186.923L106.4 190.61C108.5 191.307 110.3 192.702 111.5 194.496L118.7 204.559L101.3 215.818Z" fill="#FFD7CE"/>
<path d="M82.7 198.481C82.3 198.481 81.8 198.282 81.7 197.784C81.5 197.186 81.7 196.588 82.3 196.389C83.7 195.692 97 190.411 101.6 192.304C102.2 192.503 102.5 193.201 102.3 193.699C102.1 194.297 101.4 194.596 100.9 194.396C98 193.3 88.5 196.289 83.2 198.481H82.7Z" fill="#FFA8A8"/>
<path d="M71.4 212.63L57.3 206.253C56.7 206.054 56.5 205.356 56.7 204.858C56.9 204.26 57.6 204.061 58.1 204.26L71.4 210.239L86 205.257C86.6 205.057 87.2 205.356 87.4 205.954C87.6 206.552 87.3 207.15 86.7 207.349L71.4 212.63Z" fill="#FFA8A8"/>
<path d="M72.0004 207.648L59.0004 203.064C58.4004 202.865 58.1004 202.168 58.4004 201.57C58.6004 200.972 59.2004 200.773 59.8004 200.972L72.0004 205.157L86.6004 200.175C87.2004 199.975 87.8004 200.274 88.0004 200.872C88.2004 201.47 87.9004 202.068 87.4004 202.267L72.0004 207.648Z" fill="#FFA8A8"/>
<path d="M239.8 347.044L261.3 345.15L266.8 408.322C254.9 409.318 244.5 400.55 243.5 388.693L239.8 347.044Z" fill="#575756"/>
<path d="M196.8 351.826L323.4 350.032L323.8 359.498L197.5 361.291L196.8 351.826Z" fill="#232323"/>
<path d="M274.5 348.538L269.7 348.737L270.2 364.58L275 364.381L274.5 348.538Z" fill="#4B4B4B"/>
<path d="M237.6 348.339L232.8 348.538L233.3 364.381L238.1 364.181L237.6 348.339Z" fill="#575756"/>
<path d="M309.2 347.343L304.4 347.542L304.9 363.385L309.7 363.185L309.2 347.343Z" fill="#4B4B4B"/>
<path d="M206.2 348.339L201.4 348.538L201.9 364.381L206.7 364.181L206.2 348.339Z" fill="#575756"/>
<path d="M406 192.403C394.9 206.751 379.9 229.967 371.8 258.962C371.8 259.361 357.7 227.775 345.6 208.545C333.5 189.314 331.5 174.369 276.6 176.859L257.8 176.461C238 177.557 208.6 180.447 197.4 194.795C186.2 209.143 163.8 249.995 160.2 269.723C160.4 270.421 151.8 242.522 140.1 223.092C134.2 213.327 121.3 201.57 121.3 201.57L95.5 216.616C100.9 223.59 105.8 230.964 110.2 238.536C120.4 256.172 127.2 276.897 130.3 287.061C133.4 297.224 141.1 323.13 157.5 323.13C173.9 323.13 189.7 301.409 192.8 278.79C192.9 278.89 192.7 281.082 193 284.57C193 284.57 193 332.097 195.4 354.516L325.4 353.321C325.4 353.321 323.1 274.107 325.1 250.692C325.2 249.696 325.4 248.899 325.6 248.301C325.8 248.301 343.6 277.894 348.8 288.954C354 300.014 361 316.354 377.6 317.152C394.2 317.949 404 288.157 409.7 269.325C414.5 253.781 424 221.896 432.7 202.068L406 192.403Z" fill="#55237C"/>
<path d="M157.4 323.229C162.5 323.229 167.5 321.137 172.1 317.55C167 309.977 156.6 307.984 149 313.066C147.3 314.162 145.9 315.557 144.7 317.251C148.2 320.838 152.4 323.229 157.4 323.229Z" fill="#3C1E53"/>
<path d="M365.5 313.266C369.1 315.757 373.3 317.152 377.6 317.351C383.1 317.551 387.7 314.561 391.7 309.779C388.6 306.69 384.3 304.896 379.9 304.896C374 304.896 368.5 308.085 365.5 313.266Z" fill="#3C1E53"/>
<path d="M263.4 201.072C275.8 201.072 285.8 191.108 285.9 178.753V176.66C283 176.66 279.9 176.76 276.7 176.859L257.9 176.461C252.8 176.66 247 177.158 241.1 177.756V178.653C241 190.909 250.9 200.972 263.2 201.072C263.2 201.072 263.3 201.072 263.4 201.072Z" fill="#3C1E53"/>
<path d="M278.6 159.024V177.856C278.6 186.226 271.8 193.001 263.4 193.001C255 193.001 248.2 186.226 248.2 177.856V159.024H278.6Z" fill="#FFD7CE"/>
<path d="M278.6 165.7V159.024H248.2V177.856C265 178.952 274.3 171.081 278.6 165.7Z" fill="#F8CBC5"/>
<path d="M240.7 142.086C232.4 142.086 226.4 141.189 226.4 135.012C226.4 128.834 234.2 128.734 238.7 128.734L240.7 142.086Z" fill="#FFD7CE"/>
<path d="M286.5 142.086C294.8 142.086 300.8 141.189 300.8 135.012C300.8 128.834 293 128.734 288.5 128.734L286.5 142.086Z" fill="#FFD7CE"/>
<path d="M292.5 135.808C299.4 125.844 301.2 108.208 293.8 96.4509C286.4 84.6935 273.6 80.2097 262 80.1101C250.4 80.0105 229.4 90.2733 228.2 111.297C227 132.321 234.1 136.904 234.1 136.904L292.5 135.808Z" fill="#5C3B2F"/>
<path d="M297.8 106.714C297.6 105.518 297.2 104.323 296.9 103.027L283.9 99.6396L288.7 110.5C294.1 110.002 296.5 108.308 297.8 106.714Z" fill="#200E0A"/>
<path d="M232.6 119.467C232.6 131.922 234.4 144.576 239.2 152.647C244.8 161.913 252.9 170.084 263.4 170.084C273.9 170.084 282.1 162.013 287.6 152.647C292.4 144.676 294.2 131.922 294.2 119.467C294.2 107.012 284 89.2764 264 89.2764C244 89.2764 232.6 102.13 232.6 119.467Z" fill="#FFD7CE"/>
<path d="M262.8 126.443L259.5 140.293C259.3 141.389 259.8 142.385 260.7 142.385H264.3C265.1 142.285 265.7 141.588 265.6 140.691L265.4 126.841C265.3 125.048 263.3 124.55 262.8 126.443Z" fill="#FFA8A8"/>
<path d="M235.5 103.625C235.5 103.625 226.1 108.209 245.7 106.814C265.3 105.419 261.7 86.5869 261.7 86.5869L235.5 103.625Z" fill="#F8CBC5"/>
<path d="M252.6 133.019C253.5 133.019 254.3 132.321 254.3 131.325C254.3 130.328 253.6 129.631 252.6 129.631C251.6 129.631 250.9 130.328 250.9 131.325C250.9 132.321 251.7 133.019 252.6 133.019Z" fill="#1C1C1B"/>
<path d="M274.4 133.118C275.3 133.118 276.1 132.421 276.1 131.424C276.1 130.428 275.4 129.73 274.4 129.73C273.5 129.73 272.7 130.428 272.7 131.424C272.7 132.421 273.4 133.118 274.4 133.118Z" fill="#1C1C1B"/>
<path d="M246 124.649C245.9 123.553 246.2 122.556 246.8 121.66C247.4 120.863 248.2 120.265 249.1 119.966C250.1 119.667 251.2 119.767 252.2 120.165C253.3 120.564 254 121.56 254.1 122.756L254 122.955C253.7 122.855 253.3 122.656 253 122.556L252.4 122.457L251.8 122.357C251.1 122.257 250.4 122.357 249.7 122.556C249 122.855 248.3 123.055 247.7 123.453C247 123.752 246.4 124.25 245.9 124.748V124.649H246Z" fill="#5C3B2F"/>
<path d="M279.5 128.535C279 128.036 278.4 127.538 277.8 127.239C277.2 126.841 276.6 126.442 275.9 126.243C275.2 126.044 274.5 125.944 273.8 125.944H273.2L272.7 126.044C272.4 126.143 272 126.243 271.7 126.342L271.6 126.143C271.8 125.047 272.6 124.15 273.6 123.752C274.6 123.353 275.7 123.254 276.7 123.652C277.6 123.951 278.5 124.649 279 125.446C279.6 126.342 279.9 127.438 279.7 128.435L279.5 128.535Z" fill="#5C3B2F"/>
<path d="M256 150.654C255.7 150.654 255.4 150.455 255.3 150.256C255.2 149.957 255.3 149.558 255.6 149.359C261.8 146.968 269.8 147.565 270.2 147.665C270.6 147.665 270.9 147.964 270.9 148.362C270.9 148.761 270.6 149.06 270.2 149.06H270.1C270 149.06 262.1 148.263 256.2 150.654H256Z" fill="#FFA8A8"/>
<path d="M231.8 139.196C230.3 139.295 228.8 138.399 228.2 137.004C227.3 135.31 227.9 133.118 229.6 132.221C229.9 132.022 230.2 132.121 230.4 132.321C230.4 132.321 230.4 132.42 230.5 132.42C230.7 132.719 230.7 133.018 230.4 133.217L230.3 133.317C229.2 133.915 228.8 135.31 229.4 136.406C229.9 137.601 231.3 138.199 232.5 137.701C232.9 137.502 233.3 137.701 233.4 138C233.5 138.299 233.4 138.797 233.1 138.897C233 138.897 233 138.897 232.9 138.996C232.6 139.196 232.2 139.196 231.8 139.196Z" fill="#FFA8A8"/>
<path d="M294.5 139.196C294.1 139.196 293.7 139.096 293.4 139.096C293 138.996 292.8 138.598 292.8 138.299C292.9 137.9 293.3 137.701 293.6 137.701C293.7 137.701 293.7 137.701 293.8 137.801C295 138.199 296.4 137.601 296.9 136.505C297.4 135.409 297 134.114 296 133.417C295.7 133.217 295.6 132.918 295.7 132.62C295.7 132.62 295.7 132.62 295.7 132.52C295.9 132.221 296.2 132.121 296.5 132.221C296.5 132.221 296.5 132.221 296.6 132.221C298.3 133.217 298.9 135.31 298.1 137.004C297.5 138.399 296.1 139.295 294.5 139.196Z" fill="#FFA8A8"/>
<path d="M230.2 107.61C230.2 107.61 254.4 108.507 263.1 89.7746C263.1 90.1732 254.3 85.0916 247.2 88.579C240.1 92.0663 234.5 99.6389 230.2 107.61Z" fill="#5C3B2F"/>
<path d="M242.2 75.6259C248 72.9357 254.6 72.3378 260.8 73.932C271.3 76.6223 275.3 86.8851 275.3 86.8851C275.3 86.8851 268.1 91.4686 259.7 90.7711C251.3 90.0736 244.9 83.0989 242.2 75.6259Z" fill="#5C3B2F"/>
<path d="M300.8 86.4868C296 92.2659 289.4 96.3511 282 97.8457C269.7 100.536 259.9 91.7677 259.9 91.7677C259.9 91.7677 265.2 83.0991 274.4 79.6117C283.6 76.1243 293.9 80.0103 300.8 86.4868Z" fill="#5C3B2F"/>
<path d="M224.9 99.241C227.2 93.2626 231.4 88.2807 236.9 85.0922C246.1 79.7117 256.4 84.0958 256.4 84.0958C256.4 84.0958 254.5 92.3659 248.1 97.846C241.7 103.326 232.2 102.629 224.9 99.241Z" fill="#5C3B2F"/>
<path d="M256.4 89.2771C256.4 89.2771 256.4 87.3839 260.7 84.8929C265 82.4019 272.8 81.2063 283.2 85.2915L256.4 89.2771Z" fill="#200E0A"/>
<path d="M303.2 104.223C294.9 108.308 285.4 109.404 276.4 107.312C261.3 103.924 254.9 89.1775 254.9 89.1775C254.9 89.1775 265.1 82.3024 277.3 82.9999C289.5 83.797 298.8 93.5616 303.2 104.223Z" fill="#5C3B2F"/>
<path d="M288.7 371.355L289 373.049C291.5 385.504 321 389.988 321 389.988L288.7 371.355Z" fill="#4B4B4B"/>
<path d="M181.9 307.088C187.6 298.619 191.3 288.954 192.8 278.791C192.8 278.791 196 243.618 201.9 217.612C202.1 218.011 176.5 256.571 181.9 307.088Z" fill="#3C1E53"/>
<path d="M247 41.0514V27.1019C254.4 26.4044 262.2 24.4116 262.2 16.2412C262.2 11.4585 259.4 9.56537 255.5 9.56537C250.7 9.56537 248.3 11.9567 247.4 17.5365L236.2 15.743C237.4 6.07799 244.3 0 256.2 0C265.5 0 274.4 3.98557 274.4 16.3408C274.4 26.0058 268.5 31.6853 258.5 34.0766V41.0514H247ZM252.7 56.9937C248.1 56.9937 245.9 55.0009 245.9 50.9157C245.9 46.8304 248.1 44.738 252.7 44.738C257.3 44.738 259.5 46.9301 259.5 50.9157C259.5 54.9012 257.3 56.9937 252.7 56.9937Z" fill="#4D98A0"/>
<path d="M192.2 99.7393V89.7753C197.5 89.3768 203.1 87.8822 203.1 82.0035C203.1 78.6157 201.1 77.2208 198.3 77.2208C194.9 77.2208 193.2 79.0143 192.5 82.9002L184.4 81.7046C185.3 74.7298 190.2 70.4453 198.7 70.4453C205.4 70.4453 211.8 73.3349 211.8 82.2028C211.8 89.0779 207.6 93.1631 200.4 94.9566V99.9386H192.2V99.7393ZM196.2 111.198C192.9 111.198 191.3 109.803 191.3 106.814C191.3 103.824 192.9 102.43 196.2 102.43C199.5 102.43 201.1 104.024 201.1 106.814C201.1 109.604 199.6 111.198 196.2 111.198Z" fill="#4D98A0"/>
<path d="M316.5 89.2765V76.9212C323.1 76.3234 329.8 74.6295 329.8 67.3559C329.8 63.171 327.4 61.4771 323.9 61.4771C319.8 61.4771 317.6 63.5696 316.8 68.4519L306.9 66.8577C308 58.2887 314 53.0078 324.5 53.0078C332.7 53.0078 340.5 56.4952 340.5 67.2562C340.5 75.7256 335.3 80.8072 326.5 82.7999V88.9776H316.5V89.2765ZM321.4 103.226C317.4 103.226 315.4 101.432 315.4 97.9451C315.4 94.5574 317.4 92.5646 321.4 92.5646C325.4 92.5646 327.4 94.5574 327.4 97.9451C327.4 101.333 325.4 103.226 321.4 103.226Z" fill="#4D98A0"/>
</svg>
