<svg width="32" height="32" viewBox="0 0 32 32" fill="none" xmlns="http://www.w3.org/2000/svg">
<path d="M19.6667 2.66699H7.66667C6.2 2.66699 5 3.86699 5 5.33366V26.667C5 28.1337 6.2 29.3337 7.66667 29.3337H23.6667C25.1333 29.3337 26.3333 28.1337 26.3333 26.667V9.33366L19.6667 2.66699ZM7.66667 26.667V5.33366H18.3333V10.667H23.6667V26.667H7.66667ZM21 13.3337V20.0003C21 22.947 18.6133 25.3337 15.6667 25.3337C12.72 25.3337 10.3333 22.947 10.3333 20.0003V11.3337C10.3333 9.37366 12.0133 7.81366 14.0133 8.01366C15.7467 8.18699 17 9.77366 17 11.5203V20.0003H14.3333V11.3337C14.3333 10.9603 14.04 10.667 13.6667 10.667C13.2933 10.667 13 10.9603 13 11.3337V20.0003C13 21.467 14.2 22.667 15.6667 22.667C17.1333 22.667 18.3333 21.467 18.3333 20.0003V13.3337H21Z" fill="#55237C"/>
</svg>
