<svg width="24" height="24" viewBox="0 0 24 24" fill="none" xmlns="http://www.w3.org/2000/svg">
<mask id="path-1-inside-1" fill="white">
<path d="M23.1829 7.64769C22.2248 5.18595 20.4812 3.10914 18.2225 1.73936C15.9638 0.369578 13.3162 -0.21662 10.6903 0.0716811C8.06451 0.359982 5.60718 1.50667 3.69948 3.3339C1.79177 5.16113 0.540302 7.56678 0.139164 10.1778C-0.261974 12.7887 0.209638 15.4591 1.48086 17.7747C2.75207 20.0904 4.75185 21.9218 7.17004 22.9851C9.58823 24.0483 12.2897 24.2839 14.8554 23.6553C17.4211 23.0268 19.7078 21.5691 21.3607 19.5085L18.8421 17.4883C17.6339 18.9944 15.9625 20.0599 14.0871 20.5193C12.2117 20.9788 10.2371 20.8065 8.4696 20.0294C6.70206 19.2522 5.24035 17.9135 4.31117 16.221C3.38199 14.5284 3.03727 12.5765 3.33048 10.6681C3.62368 8.7596 4.53843 7.00122 5.93284 5.66563C7.32725 4.33004 9.1234 3.49188 11.0427 3.28115C12.962 3.07042 14.8973 3.49889 16.5482 4.50012C18.1992 5.50134 19.4737 7.01936 20.174 8.81874L23.1829 7.64769Z"/>
</mask>
<path d="M23.1829 7.64769C22.2248 5.18595 20.4812 3.10914 18.2225 1.73936C15.9638 0.369578 13.3162 -0.21662 10.6903 0.0716811C8.06451 0.359982 5.60718 1.50667 3.69948 3.3339C1.79177 5.16113 0.540302 7.56678 0.139164 10.1778C-0.261974 12.7887 0.209638 15.4591 1.48086 17.7747C2.75207 20.0904 4.75185 21.9218 7.17004 22.9851C9.58823 24.0483 12.2897 24.2839 14.8554 23.6553C17.4211 23.0268 19.7078 21.5691 21.3607 19.5085L18.8421 17.4883C17.6339 18.9944 15.9625 20.0599 14.0871 20.5193C12.2117 20.9788 10.2371 20.8065 8.4696 20.0294C6.70206 19.2522 5.24035 17.9135 4.31117 16.221C3.38199 14.5284 3.03727 12.5765 3.33048 10.6681C3.62368 8.7596 4.53843 7.00122 5.93284 5.66563C7.32725 4.33004 9.1234 3.49188 11.0427 3.28115C12.962 3.07042 14.8973 3.49889 16.5482 4.50012C18.1992 5.50134 19.4737 7.01936 20.174 8.81874L23.1829 7.64769Z" stroke="white" stroke-width="6" mask="url(#path-1-inside-1)"/>
</svg>
